<?xml version="1.0" encoding="utf-8"?>
<!-- Generator: Adobe Illustrator 24.0.2, SVG Export Plug-In . SVG Version: 6.00 Build 0)  -->
<svg version="1.1" id="Layer_1" xmlns="http://www.w3.org/2000/svg" xmlns:xlink="http://www.w3.org/1999/xlink" x="0px" y="0px"
	 width="300px" height="125px" viewBox="0 0 300 125" style="enable-background:new 0 0 300 125;" xml:space="preserve">
<g>
	<g>
		<path d="M130,60.3c0-4.3,2.4-5.3,6.4-5.3h5.3c6.4,0,7.2,1.4,7.2,5.5h-4.5v-0.4c0-1.1-0.8-1.4-2.1-1.4h-4.9c-2.4,0-2.8,1.1-2.8,2.9
			v1.6c0,2.1,0.4,2.9,2.6,2.9h4.8c2,0,2.6-0.2,2.6-2h4.5v1.4c0,2.5-0.9,4.4-5.4,4.4h-7.2c-4,0-6.4-1-6.4-5.3v-4.3H130z"/>
		<path d="M151.8,55.2h4.5v10.9h10.1v3.8h-14.6V55.2z"/>
		<path d="M167.9,60.3c0-4.3,2.4-5.3,6.4-5.3h7.2c4,0,6.4,1,6.4,5.3v4.4c0,4.3-2.4,5.3-6.4,5.3h-7.2c-4,0-6.4-1-6.4-5.3V60.3z
			 M172.5,63.3c0,2.1,0.4,2.9,2.6,2.9h5.7c2.1,0,2.6-0.8,2.6-2.9v-1.6c0-1.8-0.4-2.9-2.8-2.9h-5.2c-2.4,0-2.8,1.1-2.8,2.9
			L172.5,63.3L172.5,63.3z"/>
		<path d="M190.5,55.2h4.5v8.5c0,1.9,0.7,2.6,2.5,2.6h4.4c1.8,0,2.5-0.7,2.5-2.6v-8.5h4.5v9.4c0,3.6-1.9,5.4-6,5.4h-6.4
			c-4.1,0-6-1.7-6-5.4V55.2L190.5,55.2z"/>
		<path d="M211.6,55.2h13.5c4.5,0,6.1,1.5,6.1,5.1v4.4c0,3.6-1.6,5.1-6.1,5.1h-13.5V55.2z M216.4,66h8c1.9,0,2.7-0.6,2.7-2.6v-2
			c0-2.1-0.7-2.6-2.7-2.6h-8V66z"/>
	</g>
	<g>
		<path d="M16,60.4c0-4.2,2.4-5.1,6.5-5.1h5.3c6.4,0,7.2,1.3,7.2,5.4h-4.5v-0.4c0-1-0.8-1.3-2.1-1.3h-4.9c-2.4,0-2.8,1.1-2.8,2.8
			v1.5c0,2.1,0.4,2.8,2.6,2.8h4.8c2,0,2.6-0.2,2.6-2h4.5v1.3c0,2.4-0.9,4.3-5.4,4.3h-7.3c-4,0-6.5-1-6.5-5.1L16,60.4L16,60.4z"/>
		<path d="M37.8,55.4h4.5v5.1h9.5v-5.1h4.5v14.2h-4.5v-5.4h-9.5v5.4h-4.5V55.4L37.8,55.4z"/>
		<path d="M65.9,55.4h5.9l8.1,14.2h-5l-1.4-2.5h-9.1l-1.3,2.5h-5L65.9,55.4z M66,64h5.8l-2.9-5.3L66,64z"/>
		<path d="M80.5,60.4c0-4.2,2.4-5.1,6.5-5.1h7.2c4,0,6.5,1,6.5,5.1v4.2c0,4.2-2.4,5.1-6.5,5.1H87c-4,0-6.5-1-6.5-5.1V60.4z
			 M85.1,63.3c0,2.1,0.4,2.8,2.6,2.8h5.8c2.1,0,2.6-0.8,2.6-2.8v-1.5c0-1.8-0.4-2.8-2.8-2.8H88c-2.4,0-2.8,1.1-2.8,2.8L85.1,63.3
			L85.1,63.3z"/>
		<path d="M103.3,64.9h4.5c0,1.5,0.7,1.6,1.9,1.6h5.5c1,0,1.9-0.1,1.9-1.2c0-1.2-0.5-1.3-6.3-1.3c-6.8,0-7.5-0.8-7.5-4.3
			c0-2.6,0.2-4.5,5.9-4.5h6.3c5.2,0,5.7,1.7,5.7,4.2v0.4h-4.5c0-1-0.1-1.5-2.2-1.5h-5c-1,0-1.7,0.3-1.7,1.1c0,1.2,0.6,1.3,5.4,1.2
			c7,0,8.6,0.4,8.6,4.5c0,3.8-1.3,4.5-7.3,4.5H109c-4.1,0-5.7-0.7-5.7-3.8L103.3,64.9L103.3,64.9z"/>
	</g>
</g>
</svg>
