<?xml version="1.0" encoding="UTF-8"?>
<svg width="267px" height="130px" viewBox="0 0 267 130" version="1.1" xmlns="http://www.w3.org/2000/svg" xmlns:xlink="http://www.w3.org/1999/xlink">
    <!-- Generator: Sketch 53.2 (72643) - https://sketchapp.com -->
    <title>enterprise license server</title>
    <desc>Created with Sketch.</desc>
    <defs>
        <polygon id="path-1" points="0 0.005625 32.6782297 0.005625 32.6782297 32.6838407 0 32.6838407"></polygon>
        <polygon id="path-3" points="0.0199806338 0.0202458436 10.4759159 0.0202458436 10.4759159 12.3591549 0.0199806338 12.3591549"></polygon>
    </defs>
    <g id="enterprise-license-server" stroke="none" stroke-width="1" fill="none" fill-rule="evenodd">
        <rect id="Rectangle-Copy-7" stroke="#FFFFFF" x="-0.5" y="-0.5" width="267.25" height="131"></rect>
        <path d="M78.3391039,48.0369894 C72.0634261,48.0369894 66.9577482,53.1426673 66.9577482,59.4183451 C66.9577482,65.6940229 72.0634261,70.7996215 78.3391039,70.7996215 C84.6147025,70.7996215 89.7203803,65.6940229 89.7203803,59.4183451 C89.7203803,53.1426673 84.6147025,48.0369894 78.3391039,48.0369894 M78.3391039,50.0852817 C83.4853451,50.0852817 87.672088,54.2721039 87.672088,59.4183451 C87.672088,64.5645863 83.4853451,68.7513292 78.3391039,68.7513292 C73.1927835,68.7513292 69.0060405,64.5645863 69.0060405,59.4183451 C69.0060405,54.2721039 73.1927835,50.0852817 78.3391039,50.0852817" id="Fill-1" fill="#000000"></path>
        <g id="Group-5" transform="translate(62.000000, 43.073600)">
            <mask id="mask-2" fill="white">
                <use xlink:href="#path-1"></use>
            </mask>
            <g id="Clip-4"></g>
            <path d="M16.2626673,29.5538847 C16.7956162,29.5538847 17.3282482,29.7058389 17.7917958,30.0095889 L18.560757,30.5136206 C18.8989701,30.7352931 19.3446919,30.6488583 19.5755546,30.3168248 L20.1003433,29.5618864 C20.7277289,28.6595097 21.8305458,28.2087174 22.9105458,28.413515 L23.8138732,28.5849586 C24.2111884,28.6602227 24.5898856,28.4097914 24.6760035,28.0147738 L24.8720863,27.1163583 C25.1062764,26.0426963 25.9529577,25.204096 27.0289173,24.9801259 L27.9289173,24.7926787 C28.3248856,24.7102843 28.578882,24.3340431 28.5073415,23.936015 L28.3446127,23.0310238 C28.1501937,21.94936 28.6114437,20.8506629 29.5197623,20.2319921 L30.2796919,19.7144129 C30.6139437,19.4867984 30.7045775,19.0418688 30.4861532,18.7015167 L29.9895687,17.9277227 C29.3959331,17.002846 29.4016373,15.8112967 30.0040669,14.8921241 L30.5080194,14.1230836 C30.7296919,13.7848706 30.643257,13.3391488 30.3112236,13.1082861 L29.5562852,12.5834181 C28.6539085,11.956191 28.2031954,10.8531364 28.407993,9.77337412 L28.5792782,8.86996743 C28.6547007,8.47273151 28.4041901,8.09395511 28.0090933,8.00775792 L27.1108363,7.8117544 C26.0370951,7.57756426 25.1984947,6.73096215 24.9745246,5.65500264 L24.7871567,4.75484419 C24.7046831,4.35895511 24.3282042,4.10480018 23.9304137,4.17649912 L23.0254225,4.33914877 C22.8611092,4.36869982 22.6962412,4.38311884 22.5328785,4.38319806 C21.6208363,4.38319806 20.7510211,3.93438644 20.2263908,3.16407835 L19.7088116,2.40414877 C19.4811972,2.06997623 19.0362676,1.97918398 18.6959155,2.1976875 L17.9222007,2.69427201 C16.9972447,3.28790757 15.8056954,3.28228257 14.8864437,2.67985299 L14.1174824,2.1758213 C13.7792694,1.95414877 13.3335475,2.04058363 13.1026849,2.37261708 L12.5778961,3.12755546 C11.9505106,4.02993222 10.847456,4.48056602 9.76777289,4.27592694 L8.8643662,4.1045625 C8.46720951,4.02913996 8.08835387,4.27965053 8.00215669,4.67474736 L7.80623239,5.5730044 C7.5718838,6.64682482 6.72528169,7.48534595 5.64940141,7.70931602 L4.74924296,7.8967632 C4.35335387,7.97915757 4.09927817,8.35547799 4.17089789,8.75342694 L4.33354754,9.65841813 C4.52804577,10.7400819 4.06679577,11.838779 3.15847711,12.4574498 L2.39854754,12.975029 C2.064375,13.2026435 1.97366197,13.6476523 2.19200704,13.9879252 L2.68867077,14.76164 C3.28230634,15.6866752 3.27660211,16.8782245 2.67417254,17.797397 L2.17022007,18.5663583 C1.94854754,18.9045713 2.03498239,19.3503724 2.36701585,19.5811558 L3.12195423,20.1060238 C4.02433099,20.7333301 4.47504401,21.8363055 4.27024648,22.916147 L4.09888204,23.8194745 C4.02361796,24.2167104 4.2740493,24.5954868 4.66914613,24.681684 L5.56740317,24.8776875 C6.64114437,25.1118776 7.47974472,25.9584798 7.70371479,27.0344393 L7.89116197,27.9346769 C7.97355634,28.330566 8.34995599,28.5848002 8.7478257,28.5129428 L9.6528169,28.3502931 C10.7344014,28.1555572 11.8331778,28.6170449 12.4518486,29.5253636 L12.9694278,30.2852931 C13.1970423,30.6194657 13.6419718,30.7100995 13.9823239,30.4917544 L14.7560387,29.9951699 C15.2145951,29.7008477 15.7388292,29.5538847 16.2626673,29.5538847 M18.9625088,32.6838407 C18.4244102,32.6838407 17.8972447,32.5277667 17.4379754,32.2267896 L16.6690141,31.7227579 C16.4248415,31.5627227 16.1081778,31.5612174 15.8624208,31.7189551 L15.088706,32.2156188 C14.4736796,32.6102403 13.7406866,32.747221 13.0247271,32.6012086 C12.3087676,32.4552755 11.6878785,32.0422738 11.2765405,31.4383389 L10.7589613,30.6784093 C10.5945687,30.4370889 10.3027025,30.3146065 10.0152729,30.3661822 L9.11036092,30.5289903 C8.39115317,30.6581276 7.6615669,30.504272 7.05596831,30.09539 C6.45029049,29.6865871 6.03475352,29.067441 5.88580986,28.3521153 L5.6984419,27.4518776 C5.63894366,27.1660326 5.41616197,26.9411118 5.13087148,26.8788407 L4.23253521,26.6829164 C3.51863556,26.5271593 2.9034507,26.1056805 2.50043134,25.4961998 C2.09741197,24.8867192 1.95036972,24.1557069 2.08647887,23.4377667 L2.25792254,22.5344393 C2.31235035,22.2475643 2.19256162,21.9544305 1.95274648,21.7878195 L1.19788732,21.2629516 C0.597834507,20.8458301 0.190853873,20.221059 0.0516549296,19.5037526 C-0.0874647887,18.7863671 0.0564876761,18.054721 0.457051056,17.4435766 L0.961082746,16.6746153 C1.12111796,16.4304428 1.12262324,16.113779 0.964885563,15.868022 L0.468301056,15.0943072 C0.0736003521,14.4792808 -0.0633802817,13.7462879 0.0825528169,13.0303283 C0.228565141,12.3143688 0.641566901,11.693559 1.24550176,11.2821417 L2.00543134,10.7645625 C2.24675176,10.6001699 2.36931338,10.3083037 2.31757923,10.0208741 L2.15492958,9.11588292 C2.02555458,8.3967544 2.17956866,7.66716813 2.58837148,7.06156954 C2.99725352,6.45597095 3.61639965,6.04043398 4.33180458,5.89141109 L5.23196303,5.70404313 C5.5178081,5.64454489 5.74272887,5.42168398 5.805,5.13647271 L6.00100352,4.23813644 C6.15668134,3.5242368 6.57816021,2.90905194 7.18764085,2.50603257 C7.79712148,2.10293398 8.52821303,1.95605018 9.24607394,2.09215933 L10.1494014,2.26352377 C10.4362764,2.31787236 10.7294102,2.19808363 10.8961004,1.95834771 L11.4208891,1.20348856 C11.8380106,0.603514965 12.4627817,0.196455106 13.180088,0.0573353873 C13.8974736,-0.0818635563 14.6290405,0.0621681338 15.2402641,0.462731514 L16.0092254,0.966683979 C16.2534771,1.12671919 16.5700616,1.12822447 16.8158187,0.970486796 L17.5896127,0.473902289 C18.2045599,0.0792015845 18.9375528,-0.0576998239 19.6535123,0.0882332746 C20.3694718,0.234166373 20.9903609,0.647168134 21.4016989,1.25110299 L21.9192782,2.01103257 C22.0836708,2.25235299 22.3753785,2.37499384 22.6629665,2.32325968 L23.5679577,2.16053081 C24.2870863,2.03123504 25.0166725,2.18516989 25.6223504,2.59405194 C26.2279489,3.00293398 26.6434859,3.62208011 26.7923504,4.33740581 L26.9797183,5.23756426 C27.0392958,5.52340933 27.2620775,5.74833011 27.547368,5.81060123 L28.4457042,6.00660475 C29.1596039,6.1623618 29.7747887,6.58376144 30.1778081,7.19324208 C30.5809067,7.80272271 30.7278697,8.53381426 30.5916813,9.25167518 L30.4203169,10.1550819 C30.3659683,10.4419569 30.4856778,10.7350114 30.7254137,10.9016224 L31.4804313,11.4264903 C32.0803257,11.8436118 32.4873856,12.4683829 32.6265053,13.1856893 C32.7657042,13.9030748 32.6217518,14.634721 32.2211884,15.2458653 L31.7171567,16.0148266 C31.5571215,16.2590783 31.5556162,16.5756629 31.7132746,16.8214199 L32.2100176,17.5952139 C32.6046391,18.2101611 32.7416197,18.943154 32.5956074,19.6591136 C32.4496743,20.3750731 32.0366725,20.9959621 31.4327377,21.4073002 L30.6728081,21.9248794 C30.4314877,22.089272 30.3089261,22.3811382 30.3606602,22.6685678 L30.5233099,23.573559 C30.6526056,24.2926875 30.4986708,25.0222738 30.0897887,25.6279516 C29.6809859,26.2335502 29.0618398,26.6490871 28.3464349,26.7979516 L27.4463556,26.9853988 C27.1604313,27.0449762 26.9355106,27.2677579 26.8733187,27.5529692 L26.6772359,28.4513055 C26.5215581,29.1652051 26.1000792,29.78039 25.4905986,30.1834093 C24.8810387,30.5865079 24.1500264,30.7333917 23.4321655,30.5972826 L22.528838,30.4259181 C22.2420423,30.3714903 21.9488292,30.491279 21.7821391,30.7310942 L21.2573504,31.4860326 C20.8402289,32.0859269 20.2154577,32.493066 19.4981514,32.6321065 C19.3198151,32.666728 19.1405282,32.6838407 18.9625088,32.6838407" id="Fill-3" fill="#000000" mask="url(#mask-2)"></path>
        </g>
        <polygon id="Fill-6" fill="#000000" points="82.5753072 54.1683662 76.2954305 60.448243 73.611434 57.7642465 71.1094974 60.2662623 76.2954305 65.4521954 85.0773231 56.670382"></polygon>
        <path d="M86.5980379,75.8622245 C86.350934,75.8622245 86.1021664,75.8387738 85.8586276,75.7925854 L85.478346,75.7204111 C85.163346,75.6607544 84.842721,75.7917139 84.6597104,76.0549798 L84.4534868,76.3517579 C83.8786276,77.1786329 83.0173688,77.7716347 82.0324393,77.9817403 C80.9737509,78.207691 79.9011981,78.0012298 79.0200537,77.4236769 L78.9801241,77.3975326 C78.9050185,77.3483336 78.8086012,77.417022 78.8306259,77.5040907 L81.1170695,86.5574093 L84.2515414,82.6729903 L88.8889181,84.5946805 L86.7022192,75.9364586 C86.69089,75.8916171 86.6500097,75.8615114 86.6038213,75.8622245 C86.6019199,75.8622245 86.5999393,75.8622245 86.5980379,75.8622245" id="Fill-8" fill="#000000"></path>
        <g id="Group-12" transform="translate(67.387324, 75.635220)">
            <mask id="mask-4" fill="white">
                <use xlink:href="#path-3"></use>
            </mask>
            <g id="Clip-11"></g>
            <path d="M10.0990299,1.78118398 C9.20742782,2.3534287 8.12259507,2.54943222 7.06105458,2.30557658 C6.08555282,2.08144806 5.23752465,1.4815537 4.67399472,0.65428257 L4.53447887,0.44940581 C4.31637148,0.129256162 3.93046479,-0.0327596831 3.54915317,0.0357702465 L3.27630106,0.0848107394 C3.08085211,0.119986796 2.8820757,0.139397007 2.68385387,0.144705106 C2.63948768,0.145893486 2.60114261,0.175840669 2.59028873,0.218860035 L0.0199806338,10.3963864 L4.65727817,8.47477553 L7.79182923,12.3591945 L10.4727359,1.74386884 C10.4946021,1.65727553 10.3992148,1.58850792 10.3239507,1.63683539 L10.0990299,1.78118398 Z" id="Fill-10" fill="#000000" mask="url(#mask-4)"></path>
        </g>
        <polygon id="Path" fill="#000000" fill-rule="nonzero" points="116.236328 53.8876953 111.248535 53.8876953 111.248535 58.2382812 116.983398 58.2382812 116.983398 59 110.347656 59 110.347656 48.3359375 116.946777 48.3359375 116.946777 49.1049805 111.248535 49.1049805 111.248535 53.1259766 116.236328 53.1259766"></polygon>
        <path d="M119.510254,51.0751953 L119.539551,52.4301758 C119.837404,51.9418921 120.208494,51.5695814 120.652832,51.3132324 C121.09717,51.0568835 121.587888,50.9287109 122.125,50.9287109 C122.974614,50.9287109 123.606932,51.1679664 124.021973,51.6464844 C124.437014,52.1250024 124.646973,52.8427687 124.651855,53.7998047 L124.651855,59 L123.780273,59 L123.780273,53.7924805 C123.775391,53.0844691 123.625246,52.5571306 123.329834,52.2104492 C123.034422,51.8637678 122.562015,51.6904297 121.912598,51.6904297 C121.370603,51.6904297 120.890871,51.8601057 120.473389,52.1994629 C120.055906,52.5388201 119.747071,52.9965792 119.546875,53.5727539 L119.546875,59 L118.675293,59 L118.675293,51.0751953 L119.510254,51.0751953 Z" id="Path" fill="#000000" fill-rule="nonzero"></path>
        <path d="M128.277344,49.0463867 L128.277344,51.0751953 L129.917969,51.0751953 L129.917969,51.7929688 L128.277344,51.7929688 L128.277344,57.0737305 C128.277344,57.5131858 128.356689,57.840331 128.515381,58.0551758 C128.674073,58.2700206 128.938963,58.3774414 129.310059,58.3774414 C129.456544,58.3774414 129.693358,58.3530276 130.020508,58.3041992 L130.057129,59.0219727 C129.827636,59.1049809 129.515139,59.1464844 129.119629,59.1464844 C128.51904,59.1464844 128.082033,58.9719256 127.808594,58.6228027 C127.535155,58.2736799 127.398438,57.759769 127.398438,57.0810547 L127.398438,51.7929688 L125.940918,51.7929688 L125.940918,51.0751953 L127.398438,51.0751953 L127.398438,49.0463867 L128.277344,49.0463867 Z" id="Path" fill="#000000" fill-rule="nonzero"></path>
        <path d="M134.803223,59.1464844 C134.129391,59.1464844 133.520266,58.9804704 132.97583,58.6484375 C132.431394,58.3164046 132.007814,57.8537627 131.705078,57.260498 C131.402342,56.6672334 131.250977,56.0019568 131.250977,55.2646484 L131.250977,54.949707 C131.250977,54.1879845 131.39868,53.5019562 131.694092,52.8916016 C131.989503,52.2812469 132.400876,51.8015154 132.928223,51.4523926 C133.455569,51.1032697 134.026852,50.9287109 134.64209,50.9287109 C135.604009,50.9287109 136.366941,51.2570768 136.930908,51.9138184 C137.494876,52.5705599 137.776855,53.4677677 137.776855,54.6054688 L137.776855,55.0961914 L132.122559,55.0961914 L132.122559,55.2646484 C132.122559,56.1630904 132.380124,56.911374 132.895264,57.5095215 C133.410403,58.107669 134.05859,58.4067383 134.839844,58.4067383 C135.308596,58.4067383 135.72241,58.3212899 136.081299,58.1503906 C136.440187,57.9794913 136.766112,57.7060566 137.059082,57.3300781 L137.608398,57.7475586 C136.963864,58.6801804 136.028815,59.1464844 134.803223,59.1464844 Z M134.64209,51.6757812 C133.982907,51.6757812 133.427492,51.9174781 132.97583,52.4008789 C132.524168,52.8842798 132.249512,53.5336873 132.151855,54.3491211 L136.905273,54.3491211 L136.905273,54.2539062 C136.880859,53.4921837 136.663576,52.8720727 136.253418,52.3935547 C135.84326,51.9150367 135.306156,51.6757812 134.64209,51.6757812 Z" id="Combined-Shape" fill="#000000" fill-rule="nonzero"></path>
        <path d="M143.145508,51.8222656 C142.95996,51.7880858 142.762208,51.7709961 142.552246,51.7709961 C142.005368,51.7709961 141.542727,51.9235825 141.164307,52.2287598 C140.785887,52.5339371 140.516114,52.9770479 140.35498,53.5581055 L140.35498,59 L139.483398,59 L139.483398,51.0751953 L140.340332,51.0751953 L140.35498,52.3349609 C140.81885,51.3974562 141.563471,50.9287109 142.588867,50.9287109 C142.833009,50.9287109 143.025878,50.9604489 143.16748,51.0239258 L143.145508,51.8222656 Z" id="Path" fill="#000000" fill-rule="nonzero"></path>
        <path d="M150.901855,55.1181641 C150.901855,56.3535218 150.628421,57.3337366 150.081543,58.0588379 C149.534665,58.7839392 148.802251,59.1464844 147.884277,59.1464844 C146.800288,59.1464844 145.970218,58.7656288 145.394043,58.0039062 L145.394043,62.046875 L144.522461,62.046875 L144.522461,51.0751953 L145.335449,51.0751953 L145.379395,52.1958008 C145.950686,51.35107 146.778315,50.9287109 147.862305,50.9287109 C148.809575,50.9287109 149.552976,51.2875941 150.092529,52.0053711 C150.632083,52.7231481 150.901855,53.7192319 150.901855,54.9936523 L150.901855,55.1181641 Z M150.022949,54.9643555 C150.022949,53.9536082 149.815432,53.1552764 149.400391,52.5693359 C148.985349,51.9833955 148.406742,51.6904297 147.664551,51.6904297 C147.127439,51.6904297 146.666018,51.8198229 146.280273,52.0786133 C145.894529,52.3374036 145.599122,52.7133764 145.394043,53.206543 L145.394043,57.0078125 C145.604005,57.4619163 145.904295,57.8085926 146.294922,58.0478516 C146.685549,58.2871106 147.14697,58.4067383 147.679199,58.4067383 C148.416508,58.4067383 148.991453,58.1125518 149.404053,57.5241699 C149.816652,56.9357881 150.022949,56.0825251 150.022949,54.9643555 Z" id="Combined-Shape" fill="#000000" fill-rule="nonzero"></path>
        <path d="M156.504883,51.8222656 C156.319335,51.7880858 156.121583,51.7709961 155.911621,51.7709961 C155.364743,51.7709961 154.902102,51.9235825 154.523682,52.2287598 C154.145262,52.5339371 153.875489,52.9770479 153.714355,53.5581055 L153.714355,59 L152.842773,59 L152.842773,51.0751953 L153.699707,51.0751953 L153.714355,52.3349609 C154.178225,51.3974562 154.922846,50.9287109 155.948242,50.9287109 C156.192384,50.9287109 156.385253,50.9604489 156.526855,51.0239258 L156.504883,51.8222656 Z" id="Path" fill="#000000" fill-rule="nonzero"></path>
        <polygon id="Path" fill="#000000" fill-rule="nonzero" points="158.870605 59 157.991699 59 157.991699 51.0751953 158.870605 51.0751953"></polygon>
        <path d="M157.837891,48.7827148 C157.837891,48.6166984 157.891601,48.4763189 157.999023,48.3615723 C158.106446,48.2468256 158.252929,48.1894531 158.438477,48.1894531 C158.624024,48.1894531 158.771728,48.2468256 158.881592,48.3615723 C158.991456,48.4763189 159.046387,48.6166984 159.046387,48.7827148 C159.046387,48.9487313 158.991456,49.0878901 158.881592,49.2001953 C158.771728,49.3125006 158.624024,49.3686523 158.438477,49.3686523 C158.252929,49.3686523 158.106446,49.3125006 157.999023,49.2001953 C157.891601,49.0878901 157.837891,48.9487313 157.837891,48.7827148 Z" id="Path" fill="#000000" fill-rule="nonzero"></path>
        <path d="M165.99707,56.9858398 C165.99707,56.5512674 165.822512,56.2021498 165.473389,55.9384766 C165.124266,55.6748034 164.598148,55.4685066 163.89502,55.3195801 C163.191891,55.1706536 162.646242,54.9997568 162.258057,54.8068848 C161.869871,54.6140127 161.581788,54.3784194 161.393799,54.1000977 C161.20581,53.821776 161.111816,53.4848653 161.111816,53.0893555 C161.111816,52.4643523 161.373044,51.9480001 161.895508,51.5402832 C162.417971,51.1325663 163.08691,50.9287109 163.902344,50.9287109 C164.786137,50.9287109 165.495359,51.1472146 166.030029,51.5842285 C166.5647,52.0212424 166.832031,52.5913051 166.832031,53.2944336 L165.953125,53.2944336 C165.953125,52.8305641 165.759035,52.4448258 165.37085,52.137207 C164.982664,51.8295883 164.493167,51.6757812 163.902344,51.6757812 C163.326169,51.6757812 162.863527,51.8039538 162.514404,52.0603027 C162.165281,52.3166517 161.990723,52.6499003 161.990723,53.0600586 C161.990723,53.4555684 162.135985,53.7619618 162.426514,53.979248 C162.717042,54.1965343 163.246822,54.3955069 164.015869,54.5761719 C164.784916,54.7568368 165.361082,54.949706 165.744385,55.1547852 C166.127687,55.3598643 166.412108,55.6064439 166.597656,55.8945312 C166.783204,56.1826186 166.875977,56.5317362 166.875977,56.9418945 C166.875977,57.6108432 166.606204,58.1455058 166.06665,58.5458984 C165.527097,58.9462911 164.822758,59.1464844 163.953613,59.1464844 C163.030757,59.1464844 162.282474,58.9230979 161.70874,58.4763184 C161.135007,58.0295388 160.848145,57.4643589 160.848145,56.7807617 L161.727051,56.7807617 C161.761231,57.2934596 161.977293,57.6926255 162.375244,57.9782715 C162.773195,58.2639174 163.299313,58.4067383 163.953613,58.4067383 C164.563968,58.4067383 165.057127,58.2724623 165.433105,58.0039062 C165.809084,57.7353502 165.99707,57.3959981 165.99707,56.9858398 Z" id="Path" fill="#000000" fill-rule="nonzero"></path>
        <path d="M171.915039,59.1464844 C171.241208,59.1464844 170.632083,58.9804704 170.087646,58.6484375 C169.54321,58.3164046 169.11963,57.8537627 168.816895,57.260498 C168.514159,56.6672334 168.362793,56.0019568 168.362793,55.2646484 L168.362793,54.949707 C168.362793,54.1879845 168.510497,53.5019562 168.805908,52.8916016 C169.10132,52.2812469 169.512693,51.8015154 170.040039,51.4523926 C170.567385,51.1032697 171.138669,50.9287109 171.753906,50.9287109 C172.715825,50.9287109 173.478757,51.2570768 174.042725,51.9138184 C174.606692,52.5705599 174.888672,53.4677677 174.888672,54.6054688 L174.888672,55.0961914 L169.234375,55.0961914 L169.234375,55.2646484 C169.234375,56.1630904 169.491941,56.911374 170.00708,57.5095215 C170.522219,58.107669 171.170406,58.4067383 171.95166,58.4067383 C172.420412,58.4067383 172.834227,58.3212899 173.193115,58.1503906 C173.552004,57.9794913 173.877928,57.7060566 174.170898,57.3300781 L174.720215,57.7475586 C174.07568,58.6801804 173.140631,59.1464844 171.915039,59.1464844 Z M171.753906,51.6757812 C171.094723,51.6757812 170.539309,51.9174781 170.087646,52.4008789 C169.635984,52.8842798 169.361329,53.5336873 169.263672,54.3491211 L174.01709,54.3491211 L174.01709,54.2539062 C173.992676,53.4921837 173.775393,52.8720727 173.365234,52.3935547 C172.955076,51.9150367 172.417972,51.6757812 171.753906,51.6757812 Z" id="Combined-Shape" fill="#000000" fill-rule="nonzero"></path>
        <polygon id="Path" fill="#000000" fill-rule="nonzero" points="111.255859 76.2382812 116.521973 76.2382812 116.521973 77 110.347656 77 110.347656 66.3359375 111.255859 66.3359375"></polygon>
        <polygon id="Path" fill="#000000" fill-rule="nonzero" points="119.026855 77 118.147949 77 118.147949 69.0751953 119.026855 69.0751953"></polygon>
        <path d="M117.994141,66.7827148 C117.994141,66.6166984 118.047851,66.4763189 118.155273,66.3615723 C118.262696,66.2468256 118.409179,66.1894531 118.594727,66.1894531 C118.780274,66.1894531 118.927978,66.2468256 119.037842,66.3615723 C119.147706,66.4763189 119.202637,66.6166984 119.202637,66.7827148 C119.202637,66.9487313 119.147706,67.0878901 119.037842,67.2001953 C118.927978,67.3125006 118.780274,67.3686523 118.594727,67.3686523 C118.409179,67.3686523 118.262696,67.3125006 118.155273,67.2001953 C118.047851,67.0878901 117.994141,66.9487313 117.994141,66.7827148 Z" id="Path" fill="#000000" fill-rule="nonzero"></path>
        <path d="M124.336914,76.4067383 C124.947269,76.4067383 125.458738,76.2346209 125.871338,75.8903809 C126.283938,75.5461409 126.507324,75.1005887 126.541504,74.5537109 L127.383789,74.5537109 C127.359375,75.0371118 127.208009,75.4777812 126.929688,75.8757324 C126.651366,76.2736836 126.281496,76.5849598 125.820068,76.8095703 C125.35864,77.0341808 124.86426,77.1464844 124.336914,77.1464844 C123.29687,77.1464844 122.472903,76.7851599 121.86499,76.0625 C121.257077,75.3398401 120.953125,74.3681702 120.953125,73.1474609 L120.953125,72.8837891 C120.953125,72.1025352 121.089842,71.4116241 121.363281,70.8110352 C121.63672,70.2104462 122.028562,69.7465837 122.538818,69.4194336 C123.049075,69.0922835 123.645993,68.9287109 124.32959,68.9287109 C125.198735,68.9287109 125.91528,69.1874974 126.479248,69.7050781 C127.043216,70.2226588 127.344726,70.9038044 127.383789,71.7485352 L126.541504,71.7485352 C126.502441,71.1284149 126.279055,70.6279316 125.871338,70.2470703 C125.463621,69.866209 124.94971,69.6757812 124.32959,69.6757812 C123.53857,69.6757812 122.924563,69.9614229 122.487549,70.5327148 C122.050535,71.1040068 121.832031,71.90478 121.832031,72.9350586 L121.832031,73.1914062 C121.832031,74.2021535 122.050535,74.9907198 122.487549,75.5571289 C122.924563,76.123538 123.541012,76.4067383 124.336914,76.4067383 Z" id="Path" fill="#000000" fill-rule="nonzero"></path>
        <path d="M132.203125,77.1464844 C131.529294,77.1464844 130.920169,76.9804704 130.375732,76.6484375 C129.831296,76.3164046 129.407716,75.8537627 129.10498,75.260498 C128.802245,74.6672334 128.650879,74.0019568 128.650879,73.2646484 L128.650879,72.949707 C128.650879,72.1879845 128.798583,71.5019562 129.093994,70.8916016 C129.389406,70.2812469 129.800779,69.8015154 130.328125,69.4523926 C130.855471,69.1032697 131.426755,68.9287109 132.041992,68.9287109 C133.003911,68.9287109 133.766843,69.2570768 134.330811,69.9138184 C134.894778,70.5705599 135.176758,71.4677677 135.176758,72.6054688 L135.176758,73.0961914 L129.522461,73.0961914 L129.522461,73.2646484 C129.522461,74.1630904 129.780027,74.911374 130.295166,75.5095215 C130.810305,76.107669 131.458492,76.4067383 132.239746,76.4067383 C132.708498,76.4067383 133.122313,76.3212899 133.481201,76.1503906 C133.84009,75.9794913 134.166014,75.7060566 134.458984,75.3300781 L135.008301,75.7475586 C134.363766,76.6801804 133.428717,77.1464844 132.203125,77.1464844 Z M132.041992,69.6757812 C131.382809,69.6757812 130.827395,69.9174781 130.375732,70.4008789 C129.92407,70.8842798 129.649415,71.5336873 129.551758,72.3491211 L134.305176,72.3491211 L134.305176,72.2539062 C134.280762,71.4921837 134.063479,70.8720727 133.65332,70.3935547 C133.243162,69.9150367 132.706058,69.6757812 132.041992,69.6757812 Z" id="Combined-Shape" fill="#000000" fill-rule="nonzero"></path>
        <path d="M137.718262,69.0751953 L137.747559,70.4301758 C138.045412,69.9418921 138.416502,69.5695814 138.86084,69.3132324 C139.305178,69.0568835 139.795896,68.9287109 140.333008,68.9287109 C141.182621,68.9287109 141.814939,69.1679664 142.22998,69.6464844 C142.645022,70.1250024 142.85498,70.8427687 142.859863,71.7998047 L142.859863,77 L141.988281,77 L141.988281,71.7924805 C141.983398,71.0844691 141.833253,70.5571306 141.537842,70.2104492 C141.24243,69.8637678 140.770023,69.6904297 140.120605,69.6904297 C139.578611,69.6904297 139.098879,69.8601057 138.681396,70.1994629 C138.263914,70.5388201 137.955079,70.9965792 137.754883,71.5727539 L137.754883,77 L136.883301,77 L136.883301,69.0751953 L137.718262,69.0751953 Z" id="Path" fill="#000000" fill-rule="nonzero"></path>
        <path d="M149.869141,74.9858398 C149.869141,74.5512674 149.694582,74.2021498 149.345459,73.9384766 C148.996336,73.6748034 148.470218,73.4685066 147.76709,73.3195801 C147.063961,73.1706536 146.518312,72.9997568 146.130127,72.8068848 C145.741941,72.6140127 145.453858,72.3784194 145.265869,72.1000977 C145.07788,71.821776 144.983887,71.4848653 144.983887,71.0893555 C144.983887,70.4643523 145.245115,69.9480001 145.767578,69.5402832 C146.290042,69.1325663 146.95898,68.9287109 147.774414,68.9287109 C148.658208,68.9287109 149.367429,69.1472146 149.9021,69.5842285 C150.43677,70.0212424 150.704102,70.5913051 150.704102,71.2944336 L149.825195,71.2944336 C149.825195,70.8305641 149.631105,70.4448258 149.24292,70.137207 C148.854734,69.8295883 148.365237,69.6757812 147.774414,69.6757812 C147.198239,69.6757812 146.735597,69.8039538 146.386475,70.0603027 C146.037352,70.3166517 145.862793,70.6499003 145.862793,71.0600586 C145.862793,71.4555684 146.008055,71.7619618 146.298584,71.979248 C146.589113,72.1965343 147.118893,72.3955069 147.887939,72.5761719 C148.656986,72.7568368 149.233152,72.949706 149.616455,73.1547852 C149.999758,73.3598643 150.284179,73.6064439 150.469727,73.8945312 C150.655274,74.1826186 150.748047,74.5317362 150.748047,74.9418945 C150.748047,75.6108432 150.478274,76.1455058 149.938721,76.5458984 C149.399167,76.9462911 148.694829,77.1464844 147.825684,77.1464844 C146.902827,77.1464844 146.154544,76.9230979 145.580811,76.4763184 C145.007077,76.0295388 144.720215,75.4643589 144.720215,74.7807617 L145.599121,74.7807617 C145.633301,75.2934596 145.849363,75.6926255 146.247314,75.9782715 C146.645266,76.2639174 147.171383,76.4067383 147.825684,76.4067383 C148.436038,76.4067383 148.929197,76.2724623 149.305176,76.0039062 C149.681154,75.7353502 149.869141,75.3959981 149.869141,74.9858398 Z" id="Path" fill="#000000" fill-rule="nonzero"></path>
        <path d="M155.787109,77.1464844 C155.113278,77.1464844 154.504153,76.9804704 153.959717,76.6484375 C153.41528,76.3164046 152.991701,75.8537627 152.688965,75.260498 C152.386229,74.6672334 152.234863,74.0019568 152.234863,73.2646484 L152.234863,72.949707 C152.234863,72.1879845 152.382567,71.5019562 152.677979,70.8916016 C152.97339,70.2812469 153.384763,69.8015154 153.912109,69.4523926 C154.439456,69.1032697 155.010739,68.9287109 155.625977,68.9287109 C156.587895,68.9287109 157.350827,69.2570768 157.914795,69.9138184 C158.478763,70.5705599 158.760742,71.4677677 158.760742,72.6054688 L158.760742,73.0961914 L153.106445,73.0961914 L153.106445,73.2646484 C153.106445,74.1630904 153.364011,74.911374 153.87915,75.5095215 C154.39429,76.107669 155.042477,76.4067383 155.82373,76.4067383 C156.292483,76.4067383 156.706297,76.3212899 157.065186,76.1503906 C157.424074,75.9794913 157.749999,75.7060566 158.042969,75.3300781 L158.592285,75.7475586 C157.947751,76.6801804 157.012701,77.1464844 155.787109,77.1464844 Z M155.625977,69.6757812 C154.966794,69.6757812 154.411379,69.9174781 153.959717,70.4008789 C153.508054,70.8842798 153.233399,71.5336873 153.135742,72.3491211 L157.88916,72.3491211 L157.88916,72.2539062 C157.864746,71.4921837 157.647463,70.8720727 157.237305,70.3935547 C156.827146,69.9150367 156.290042,69.6757812 155.625977,69.6757812 Z" id="Combined-Shape" fill="#000000" fill-rule="nonzero"></path>
        <path d="M170.35498,74.3779297 C170.35498,73.7871064 170.147463,73.3195818 169.732422,72.9753418 C169.317381,72.6311018 168.558111,72.3039566 167.45459,71.9938965 C166.351069,71.6838363 165.545413,71.345705 165.037598,70.9794922 C164.314938,70.4619115 163.953613,69.7832073 163.953613,68.9433594 C163.953613,68.1279256 164.289303,67.4650904 164.960693,66.954834 C165.632083,66.4445775 166.490229,66.1894531 167.535156,66.1894531 C168.243168,66.1894531 168.876706,66.3261705 169.435791,66.5996094 C169.994876,66.8730482 170.428221,67.2539038 170.73584,67.7421875 C171.043459,68.2304712 171.197266,68.7748993 171.197266,69.3754883 L170.289062,69.3754883 C170.289062,68.6479456 170.040042,68.0632346 169.541992,67.6213379 C169.043943,67.1794411 168.375004,66.9584961 167.535156,66.9584961 C166.719722,66.9584961 166.070315,67.140379 165.586914,67.5041504 C165.103513,67.8679217 164.861816,68.3427705 164.861816,68.9287109 C164.861816,69.4707058 165.079099,69.9125959 165.513672,70.2543945 C165.948244,70.5961931 166.644038,70.8977038 167.601074,71.1589355 C168.55811,71.4201673 169.283201,71.6911607 169.776367,71.9719238 C170.269534,72.252687 170.640624,72.588377 170.889648,72.9790039 C171.138673,73.3696309 171.263184,73.831052 171.263184,74.3632812 C171.263184,75.2031292 170.927494,75.8769506 170.256104,76.3847656 C169.584713,76.8925807 168.699713,77.1464844 167.601074,77.1464844 C166.849117,77.1464844 166.159427,77.0122084 165.531982,76.7436523 C164.904538,76.4750963 164.428468,76.0991235 164.10376,75.6157227 C163.779051,75.1323218 163.616699,74.5781281 163.616699,73.953125 L164.517578,73.953125 C164.517578,74.7050819 164.798337,75.2983377 165.359863,75.7329102 C165.92139,76.1674826 166.668452,76.3847656 167.601074,76.3847656 C168.431156,76.3847656 169.097654,76.201662 169.600586,75.8354492 C170.103518,75.4692365 170.35498,74.9834015 170.35498,74.3779297 Z" id="Path" fill="#000000" fill-rule="nonzero"></path>
        <path d="M176.067871,77.1464844 C175.39404,77.1464844 174.784915,76.9804704 174.240479,76.6484375 C173.696042,76.3164046 173.272462,75.8537627 172.969727,75.260498 C172.666991,74.6672334 172.515625,74.0019568 172.515625,73.2646484 L172.515625,72.949707 C172.515625,72.1879845 172.663329,71.5019562 172.95874,70.8916016 C173.254152,70.2812469 173.665525,69.8015154 174.192871,69.4523926 C174.720217,69.1032697 175.291501,68.9287109 175.906738,68.9287109 C176.868657,68.9287109 177.631589,69.2570768 178.195557,69.9138184 C178.759524,70.5705599 179.041504,71.4677677 179.041504,72.6054688 L179.041504,73.0961914 L173.387207,73.0961914 L173.387207,73.2646484 C173.387207,74.1630904 173.644773,74.911374 174.159912,75.5095215 C174.675051,76.107669 175.323238,76.4067383 176.104492,76.4067383 C176.573245,76.4067383 176.987059,76.3212899 177.345947,76.1503906 C177.704836,75.9794913 178.03076,75.7060566 178.32373,75.3300781 L178.873047,75.7475586 C178.228512,76.6801804 177.293463,77.1464844 176.067871,77.1464844 Z M175.906738,69.6757812 C175.247555,69.6757812 174.692141,69.9174781 174.240479,70.4008789 C173.788816,70.8842798 173.514161,71.5336873 173.416504,72.3491211 L178.169922,72.3491211 L178.169922,72.2539062 C178.145508,71.4921837 177.928225,70.8720727 177.518066,70.3935547 C177.107908,69.9150367 176.570804,69.6757812 175.906738,69.6757812 Z" id="Combined-Shape" fill="#000000" fill-rule="nonzero"></path>
        <path d="M184.410156,69.8222656 C184.224608,69.7880858 184.026857,69.7709961 183.816895,69.7709961 C183.270017,69.7709961 182.807375,69.9235825 182.428955,70.2287598 C182.050535,70.5339371 181.780763,70.9770479 181.619629,71.5581055 L181.619629,77 L180.748047,77 L180.748047,69.0751953 L181.60498,69.0751953 L181.619629,70.3349609 C182.083498,69.3974563 182.82812,68.9287109 183.853516,68.9287109 C184.097657,68.9287109 184.290527,68.9604489 184.432129,69.0239258 L184.410156,69.8222656 Z" id="Path" fill="#000000" fill-rule="nonzero"></path>
        <polygon id="Path" fill="#000000" fill-rule="nonzero" points="188.262695 75.7915039 190.672363 69.0751953 191.573242 69.0751953 188.614258 77 187.903809 77 184.930176 69.0751953 185.831055 69.0751953"></polygon>
        <path d="M196.077637,77.1464844 C195.403805,77.1464844 194.79468,76.9804704 194.250244,76.6484375 C193.705808,76.3164046 193.282228,75.8537627 192.979492,75.260498 C192.676756,74.6672334 192.525391,74.0019568 192.525391,73.2646484 L192.525391,72.949707 C192.525391,72.1879845 192.673094,71.5019562 192.968506,70.8916016 C193.263917,70.2812469 193.67529,69.8015154 194.202637,69.4523926 C194.729983,69.1032697 195.301266,68.9287109 195.916504,68.9287109 C196.878423,68.9287109 197.641355,69.2570768 198.205322,69.9138184 C198.76929,70.5705599 199.05127,71.4677677 199.05127,72.6054688 L199.05127,73.0961914 L193.396973,73.0961914 L193.396973,73.2646484 C193.396973,74.1630904 193.654538,74.911374 194.169678,75.5095215 C194.684817,76.107669 195.333004,76.4067383 196.114258,76.4067383 C196.58301,76.4067383 196.996824,76.3212899 197.355713,76.1503906 C197.714601,75.9794913 198.040526,75.7060566 198.333496,75.3300781 L198.882812,75.7475586 C198.238278,76.6801804 197.303229,77.1464844 196.077637,77.1464844 Z M195.916504,69.6757812 C195.257321,69.6757812 194.701907,69.9174781 194.250244,70.4008789 C193.798582,70.8842798 193.523926,71.5336873 193.42627,72.3491211 L198.179688,72.3491211 L198.179688,72.2539062 C198.155273,71.4921837 197.93799,70.8720727 197.527832,70.3935547 C197.117674,69.9150367 196.58057,69.6757812 195.916504,69.6757812 Z" id="Combined-Shape" fill="#000000" fill-rule="nonzero"></path>
        <path d="M204.419922,69.8222656 C204.234374,69.7880858 204.036622,69.7709961 203.82666,69.7709961 C203.279782,69.7709961 202.817141,69.9235825 202.438721,70.2287598 C202.060301,70.5339371 201.790528,70.9770479 201.629395,71.5581055 L201.629395,77 L200.757812,77 L200.757812,69.0751953 L201.614746,69.0751953 L201.629395,70.3349609 C202.093264,69.3974563 202.837885,68.9287109 203.863281,68.9287109 C204.107423,68.9287109 204.300292,68.9604489 204.441895,69.0239258 L204.419922,69.8222656 Z" id="Path" fill="#000000" fill-rule="nonzero"></path>
    </g>
</svg>