<?xml version="1.0" encoding="utf-8"?>
<!-- Generator: Adobe Illustrator 24.0.2, SVG Export Plug-In . SVG Version: 6.00 Build 0)  -->
<svg version="1.1" id="Layer_1" xmlns="http://www.w3.org/2000/svg" xmlns:xlink="http://www.w3.org/1999/xlink" x="0px" y="0px"
	 width="300px" height="125px" viewBox="0 0 300 125" style="enable-background:new 0 0 300 125;" xml:space="preserve">
<style type="text/css">
	.st0{fill:#0B0204;}
</style>
<g>
	<g>
		<path d="M82.3,68.9h9.3v1.3H80.7V51.4h1.6L82.3,68.9L82.3,68.9z"/>
		<path d="M94.3,52.2c0-0.3,0.1-0.5,0.3-0.7c0.2-0.2,0.4-0.3,0.8-0.3c0.4,0,0.6,0.1,0.8,0.3c0.2,0.2,0.3,0.4,0.3,0.7
			c0,0.3-0.1,0.5-0.3,0.7c-0.2,0.2-0.4,0.3-0.8,0.3c-0.4,0-0.6-0.1-0.8-0.3C94.4,52.7,94.3,52.5,94.3,52.2z M96.1,70.3h-1.5v-14h1.5
			V70.3z"/>
		<path d="M105.5,69.2c1.1,0,1.9-0.3,2.8-0.9c0.7-0.6,1.1-1.4,1.2-2.3h1.5c0,0.8-0.3,1.6-0.8,2.3c-0.5,0.7-1.1,1.2-1.9,1.6
			c-0.8,0.4-1.7,0.6-2.7,0.6c-1.8,0-3.3-0.6-4.4-1.9c-1.1-1.3-1.6-3-1.6-5.2v-0.5c0-1.4,0.2-2.7,0.7-3.7c0.5-1,1.2-1.8,2-2.4
			c0.8-0.6,1.9-0.9,3.2-0.9c1.5,0,2.8,0.4,3.8,1.3c1,0.9,1.5,2.1,1.6,3.6h-1.5c-0.1-1.1-0.5-1.9-1.2-2.7s-1.6-1-2.8-1
			c-1.4,0-2.4,0.5-3.3,1.5c-0.8,1-1.1,2.4-1.1,4.3v0.4c0,1.8,0.4,3.2,1.1,4.2C102.9,68.5,104.1,69.2,105.5,69.2z"/>
		<path d="M119.4,70.6c-1.2,0-2.2-0.3-3.3-0.9c-1-0.6-1.7-1.4-2.2-2.4s-0.8-2.2-0.8-3.6v-0.5c0-1.3,0.3-2.6,0.8-3.7s1.2-1.9,2.1-2.6
			c0.9-0.6,1.9-0.9,3.1-0.9c1.7,0,3.1,0.6,4.1,1.7s1.5,2.8,1.5,4.8v0.9h-10v0.3c0,1.6,0.4,3,1.3,4c0.9,1,2,1.6,3.5,1.6
			c0.8,0,1.5-0.1,2.2-0.4c0.7-0.3,1.2-0.8,1.7-1.4l1,0.7C123.3,69.7,121.6,70.6,119.4,70.6z M119.2,57.3c-1.1,0-2.1,0.4-3,1.3
			c-0.8,0.9-1.3,2-1.4,3.5h8.4v-0.2c0-1.3-0.4-2.4-1.1-3.3C121.2,57.7,120.3,57.3,119.2,57.3z"/>
		<path d="M129.2,56.3l0.1,2.3c0.5-0.8,1.2-1.5,1.9-1.9c0.8-0.4,1.6-0.7,2.7-0.7c1.5,0,2.7,0.4,3.4,1.2c0.7,0.8,1.1,2.1,1.1,3.8v9.2
			h-1.5V61c0-1.2-0.3-2.1-0.8-2.8c-0.5-0.6-1.3-0.9-2.6-0.9c-0.9,0-1.8,0.3-2.6,0.9c-0.7,0.6-1.3,1.4-1.6,2.4v9.6h-1.5v-14H129.2z"
			/>
		<path d="M150.7,66.7c0-0.8-0.3-1.4-0.9-1.8c-0.6-0.4-1.5-0.8-2.8-1.1c-1.2-0.3-2.2-0.6-2.9-0.9c-0.7-0.3-1.2-0.7-1.5-1.2
			c-0.3-0.5-0.5-1.1-0.5-1.8c0-1.1,0.5-2,1.4-2.8s2.1-1.1,3.6-1.1c1.5,0,2.9,0.4,3.8,1.1c0.9,0.8,1.4,1.7,1.4,3.1h-1.5
			c0-0.8-0.3-1.5-1-2s-1.5-0.8-2.6-0.8s-1.8,0.2-2.4,0.7c-0.6,0.4-0.9,1-0.9,1.7s0.3,1.2,0.8,1.6c0.5,0.4,1.4,0.7,2.9,1
			c1.4,0.3,2.3,0.6,3.1,1s1.2,0.8,1.5,1.3c0.3,0.5,0.5,1.1,0.5,1.8c0,1.2-0.5,2.1-1.4,2.9c-0.9,0.7-2.2,1-3.8,1c-1.6,0-3-0.4-4-1.2
			s-1.5-1.8-1.5-3h1.5c0.1,0.9,0.4,1.6,1.1,2.1c0.7,0.5,1.6,0.7,2.8,0.7c1.1,0,1.9-0.2,2.7-0.7C150.7,67.8,150.7,67.4,150.7,66.7z"
			/>
		<path d="M155.6,52.2c0-0.3,0.1-0.5,0.3-0.7c0.2-0.2,0.4-0.3,0.8-0.3c0.4,0,0.6,0.1,0.8,0.3c0.2,0.2,0.3,0.4,0.3,0.7
			c0,0.3-0.1,0.5-0.3,0.7c-0.2,0.2-0.4,0.3-0.8,0.3c-0.4,0-0.6-0.1-0.8-0.3C155.7,52.7,155.6,52.5,155.6,52.2z M157.4,70.3h-1.5v-14
			h1.5V70.3z"/>
		<path d="M163.1,56.3l0.1,2.3c0.5-0.8,1.2-1.5,1.9-1.9c0.8-0.4,1.6-0.7,2.7-0.7c1.5,0,2.7,0.4,3.4,1.2c0.7,0.8,1.1,2.1,1.1,3.8v9.2
			h-1.5V61c0-1.2-0.3-2.1-0.8-2.8c-0.5-0.6-1.3-0.9-2.6-0.9c-0.9,0-1.8,0.3-2.6,0.9c-0.7,0.6-1.3,1.4-1.6,2.4v9.6h-1.5v-14H163.1z"
			/>
		<path d="M175.6,63.1c0-2.1,0.5-4,1.4-5.2c1-1.3,2.2-1.9,4-1.9c1.9,0,3.4,0.7,4.4,2.2l0.1-2h1.4v13.8c0,1.8-0.5,3.3-1.5,4.3
			s-2.3,1.5-4.1,1.5c-1,0-1.9-0.2-2.8-0.6c-0.9-0.4-1.6-1-2.1-1.7l0.9-0.9c1.1,1.3,2.4,2,3.9,2c1.3,0,2.3-0.4,3.1-1.1
			c0.7-0.8,1.1-1.8,1.1-3.2v-1.7c-1,1.4-2.4,2-4.4,2c-1.6,0-3-0.6-3.9-1.9c-0.9-1.3-1.4-3.1-1.4-5.2v-0.3H175.6z M177.1,63.4
			c0,1.8,0.4,3.2,1.1,4.2c0.7,1,1.7,1.5,3.1,1.5c1.9,0,3.3-0.8,4.1-2.6V60c-0.4-0.9-0.9-1.6-1.5-2c-0.7-0.5-1.5-0.7-2.4-0.7
			c-1.3,0-2.3,0.5-3.1,1.5C177.5,59.9,177.1,61.4,177.1,63.4z"/>
	</g>
	<g>
		<path class="st0" d="M34.8,43.8c-5.9,0-10.8,4.9-10.8,10.8s4.9,10.8,10.8,10.8s10.8-4.9,10.8-10.8l0,0l0,0
			c0.1-5.9-4.7-10.7-10.6-10.8C34.9,43.8,34.8,43.8,34.8,43.8z M34.8,63.2c-4.7,0-8.6-3.9-8.6-8.6s3.9-8.6,8.6-8.6s8.6,3.9,8.6,8.6
			l0,0c0,4.7-3.8,8.6-8.5,8.6C34.8,63.2,34.8,63.2,34.8,63.2z"/>
		<path class="st0" d="M47.3,67.8C54.6,61,55,49.3,48.2,42c-6.8-7.4-18.5-7.8-25.8-0.8c-7.2,6.7-7.8,18-1.3,25.4l-5,18.9
			c-0.1,0.4,0,0.8,0.3,1.1c0.3,0.3,0.8,0.3,1.2,0.1l5.5-2.9l2.7,4.5c0.2,0.3,0.6,0.5,1,0.5h0.1c0.4,0,0.8-0.3,0.9-0.7L33,72.6
			c0.6,0.1,1.2,0.1,1.8,0.1h0.9l4.8,15.4c0.1,0.4,0.5,0.7,0.9,0.7h0.1c0.4,0,0.8-0.2,1-0.5l2.7-4.5l5.6,2.9c0.5,0.2,1.1,0,1.3-0.4
			c0.1-0.3,0.1-0.5,0.1-0.7L47.3,67.8z M26.4,85.2l-2.1-3.4c-0.3-0.5-0.9-0.7-1.3-0.4l-4.3,2.1l4.1-15.3c2.2,1.9,5,3.4,7.9,4.1
			L26.4,85.2z M18.7,54.4c0.1-8.9,7.2-16,16.2-16s16,7.2,16,16.2c0,8.9-7.1,16-16,16c-8.9,0.1-16.1-7.1-16.2-16
			C18.7,54.6,18.7,54.5,18.7,54.4z M45.2,81.5c-0.5-0.2-1.1,0-1.3,0.4L42,85.1l-4.1-12.6c2.7-0.5,5.3-1.5,7.5-3.2l4.1,14.3
			L45.2,81.5z"/>
	</g>
</g>
</svg>
