<?xml version="1.0" encoding="utf-8"?>
<!-- Generator: Adobe Illustrator 19.2.1, SVG Export Plug-In . SVG Version: 6.00 Build 0)  -->
<svg version="1.1" id="Layer_1" xmlns="http://www.w3.org/2000/svg" xmlns:xlink="http://www.w3.org/1999/xlink" x="0px" y="0px"
	 width="60px" height="60px" viewBox="0 0 60 60" enable-background="new 0 0 60 60" xml:space="preserve">
<g>
	<path fill-rule="evenodd" clip-rule="evenodd" d="M50.6,9.4H9.4v41.3h41.3V9.4z M24.2,41h-1.7L10.8,29.4l11.6-11.6h1.7V41z
		 M29.1,41h-3V17.8h3V41z M33.9,41h-3V17.8h3V41z M37.5,41h-1.7V17.8h1.7l11.6,11.6L37.5,41z M38.8,23.3v12.2l6.1-6.1L38.8,23.3z
		 M6,6v48h48V6H6z M52.9,52.9H7.1V7.1h45.8V52.9z M21.2,35.5V23.3l-6.1,6.1L21.2,35.5z"/>
	<rect x="0" fill-rule="evenodd" clip-rule="evenodd" fill="none" width="60" height="60"/>
</g>
</svg>
