<?xml version="1.0" encoding="UTF-8"?>
<svg width="267px" height="130px" viewBox="0 0 267 130" version="1.1" xmlns="http://www.w3.org/2000/svg" xmlns:xlink="http://www.w3.org/1999/xlink">
    <!-- Generator: Sketch 53.2 (72643) - https://sketchapp.com -->
    <title>pdplayer</title>
    <desc>Created with Sketch.</desc>
    <g id="pdplayer" stroke="none" stroke-width="1" fill="none" fill-rule="evenodd">
        <rect id="Rectangle-Copy-7" stroke="#FFFFFF" x="-0.5" y="-0.5" width="267.25" height="131"></rect>
        <path d="M181.357982,69.3187164 L183.248353,73.2999654 L178.808741,73.2999654 L176.717863,69.1755589 C176.431461,68.6313009 176.202236,68.2875499 176.001816,68.1443924 C175.715414,67.9437989 175.400295,67.8292729 175.027912,67.8292729 L174.79886,67.8292729 L174.684334,67.8292729 L174.684334,67.9437989 L174.684334,73.2999654 L170.73163,73.2999654 L170.73163,59.7807939 L177.290666,59.7807939 C178.493708,59.7807939 179.438893,59.8954064 180.069046,60.0958269 C180.699198,60.3249654 181.214738,60.7259794 181.615666,61.3275004 C182.01668,61.9289349 182.217273,62.6450684 182.217273,63.5042729 C182.217273,64.2490379 182.074029,64.9078219 181.758996,65.4519934 C181.472508,65.9961649 181.042863,66.4258969 180.527323,66.7694749 C180.240921,66.9414369 179.89717,67.0845944 179.496243,67.1991204 L179.181123,67.2851014 L179.496243,67.3996274 C179.782644,67.5142399 180.011783,67.6288524 180.183658,67.7720099 C180.298184,67.8292729 180.469973,68.0298664 180.813724,68.4880569 C181.100212,68.8604394 181.272088,69.1182094 181.357982,69.3187164 Z M174.684334,62.5304559 L174.684334,62.6450684 L174.684334,65.1655054 L174.684334,65.2802044 L174.79886,65.2802044 L176.345567,65.2802044 C176.545987,65.2802044 176.889738,65.2227684 177.376647,65.0796109 C177.634417,65.0223479 177.834924,64.8791904 178.006799,64.6499654 C178.149957,64.4208269 178.235938,64.1630569 178.235938,63.8766554 C178.235938,63.4470099 178.121325,63.1033454 177.834924,62.8742069 C177.577154,62.6450684 177.090245,62.5304559 176.374198,62.5304559 L174.770229,62.5304559 L174.684334,62.5304559 Z" id="Combined-Shape" fill="#020303"></path>
        <polygon id="Path" fill="#020303" points="168.583403 70.2352704 161.909755 70.2352704 161.795229 70.2352704 161.795229 70.1206579 161.795229 67.6861154 161.795229 67.5715029 161.909755 67.5715029 167.924619 67.5715029 167.924619 64.8218409 161.909755 64.8218409 161.795229 64.8218409 161.795229 64.7072284 161.795229 62.7882259 161.795229 62.6736999 161.909755 62.6736999 168.382982 62.6736999 168.382982 59.7807939 157.842611 59.7807939 157.842611 73.2999654 168.583403 73.2999654"></polygon>
        <polygon id="Path" fill="#020303" points="151.655785 67.6861154 151.655785 67.6288524 151.684417 67.6002209 156.610938 59.7807939 152.25722 59.7807939 149.794046 63.8480239 149.708151 63.9912679 149.593539 63.8480239 147.130278 59.7807939 142.748015 59.7807939 147.703168 67.6002209 147.731799 67.6288524 147.731799 67.6861154 147.731799 73.2999654 151.655785 73.2999654"></polygon>
        <polygon id="Path" fill="#020303" points="132.551309 69.9775004 126.536445 69.9775004 126.421832 69.9775004 126.421832 69.8628879 126.421832 59.7807939 122.497846 59.7807939 122.497846 73.2999654 132.551309 73.2999654"></polygon>
        <path d="M113.590076,68.3734444 L113.590076,73.2999654 L109.637372,73.2999654 L109.637372,59.7807939 L116.167863,59.7807939 C117.571412,59.7807939 118.659755,60.1531764 119.375802,60.8405919 C120.091849,61.5566389 120.4356,62.5877189 120.4356,63.9052869 C120.4356,65.2802044 120.034586,66.3398294 119.289907,67.1132259 C118.516511,67.8865359 117.342187,68.2589184 115.738217,68.2589184 L113.704602,68.2589184 L113.590076,68.2589184 L113.590076,68.3734444 Z M113.590076,62.5878054 L113.590076,62.5304559 L113.590076,62.6450684 L113.590076,65.4233619 L113.590076,65.5378879 L113.704602,65.5378879 L114.563893,65.5378879 C115.337203,65.5378879 115.85283,65.3947304 116.167863,65.1368739 C116.482982,64.8505589 116.62614,64.5068079 116.62614,64.0771624 C116.62614,63.6475169 116.482982,63.2751344 116.225212,63.0173644 C115.967442,62.7309629 115.451816,62.5878054 114.707137,62.5878054 L113.704602,62.5878054 L113.590076,62.5878054 Z" id="Combined-Shape" fill="#020303"></path>
        <path d="M101.732137,73.2999654 L95.8890623,73.2999654 L95.8890623,59.7807939 L101.732137,59.7807939 C102.87783,59.7807939 103.794384,59.9526694 104.510431,60.2963339 C105.226478,60.6113669 105.799367,61.0983619 106.257644,61.6997964 C106.715921,62.3299489 107.059586,63.0459959 107.260093,63.8480239 C107.4606,64.6499654 107.575212,65.5378879 107.575212,66.4545284 C107.575212,67.8865359 107.431968,69.0035969 107.116849,69.8056249 C106.801816,70.6075664 106.37217,71.2664369 105.827999,71.7819769 C105.283741,72.3262349 104.682306,72.6698129 104.052154,72.8417749 C103.221581,73.1854394 102.419553,73.2999654 101.732137,73.2999654 Z M99.8130483,62.8455754 L99.8130483,62.9601014 L99.8130483,70.0920264 L99.8130483,70.2066389 L99.9276608,70.2066389 L100.786952,70.2066389 C101.588893,70.2066389 102.190414,70.0920264 102.534079,69.9201509 C102.87783,69.7197304 103.164231,69.3759794 103.336107,68.8890709 C103.536614,68.4021624 103.622508,67.6288524 103.622508,66.5404229 C103.622508,65.1368739 103.39337,64.1344254 102.963724,63.5902539 C102.534079,63.0746274 101.7894,62.7882259 100.758234,62.7882259 L99.8990293,62.7882259 L99.8130483,62.8455754 Z" id="Combined-Shape" fill="#020303"></path>
        <path d="M86.9526607,68.3734444 L86.9526607,73.2999654 L83.0000432,73.2999654 L83.0000432,59.7807939 L89.5304472,59.7807939 C90.9339097,59.7807939 92.0223392,60.1531764 92.7383862,60.8405919 C93.4544332,61.5566389 93.7981842,62.5877189 93.7981842,63.9052869 C93.7981842,65.2802044 93.4258017,66.3398294 92.6524917,67.1132259 C91.8790952,67.8865359 90.7047712,68.2589184 89.1008017,68.2589184 L87.0671867,68.2589184 L86.9526607,68.2589184 L86.9526607,68.3734444 Z M86.9526607,62.5304559 L86.9526607,62.6450684 L86.9526607,65.4233619 L86.9526607,65.5378879 L87.0671867,65.5378879 L87.9264777,65.5378879 C88.6998742,65.5378879 89.2154142,65.3947304 89.5304472,65.1368739 C89.8454802,64.8505589 89.9887242,64.5068079 89.9887242,64.0771624 C89.9887242,63.6475169 89.8454802,63.2751344 89.5877102,63.0173644 C89.3299402,62.7309629 88.8144002,62.5590874 88.0696352,62.5590874 L87.0671867,62.5590874 L86.9526607,62.5304559 Z" id="Combined-Shape" fill="#020303"></path>
        <polygon id="Path" fill="#020303" points="146.242356 73.2999654 146.242356 73.2999654 141.48771 73.2999654 139.310938 69.8056249 139.28222 69.7483619 139.224957 69.7483619 133.124198 69.7483619 135.444215 65.9389019 136.876309 65.9389019 137.105447 65.9389019 136.96229 65.7670264 133.267356 59.6948994 135.587372 55.9999654"></polygon>
    </g>
</svg>