<?xml version="1.0" encoding="utf-8"?>
<!-- Generator: Adobe Illustrator 23.1.0, SVG Export Plug-In . SVG Version: 6.00 Build 0)  -->
<svg version="1.1" id="Layer_1" xmlns="http://www.w3.org/2000/svg" xmlns:xlink="http://www.w3.org/1999/xlink" x="0px" y="0px"
	 width="300px" height="125px" viewBox="0 0 300 125" style="enable-background:new 0 0 300 125;" xml:space="preserve">
<style type="text/css">
	.st0{fill:#231F20;}
	.st1{fill:#0B0204;}
	.st2{fill:#808184;}
	.st3{fill:#FFFFFF;}
</style>
<g>
	<g>
		<rect x="150.8" y="27.5" class="st1" width="1.2" height="70"/>
		<g>
			<g>
				<path class="st1" d="M175.9,62.5h1.5c0.7,0,1.3-0.1,1.9-0.3c0.5-0.2,1-0.4,1.3-0.8c0.4-0.3,0.6-0.7,0.8-1.1
					c0.2-0.4,0.3-0.9,0.3-1.4c0-0.6-0.1-1.1-0.2-1.5c-0.2-0.5-0.4-0.9-0.7-1.2c-0.3-0.3-0.7-0.6-1.2-0.8c-0.5-0.2-1.1-0.3-1.7-0.3
					c-0.6,0-1.1,0.1-1.6,0.3c-0.5,0.2-0.9,0.4-1.3,0.8c-0.4,0.3-0.6,0.7-0.8,1.2c-0.2,0.5-0.3,1-0.3,1.6h-1.5c0-0.7,0.1-1.4,0.4-2
					c0.3-0.6,0.7-1.2,1.2-1.6c0.5-0.5,1.1-0.8,1.8-1c0.7-0.2,1.4-0.4,2.2-0.4c0.8,0,1.5,0.1,2.2,0.3c0.7,0.2,1.2,0.6,1.7,1
					c0.5,0.4,0.8,1,1.1,1.6c0.3,0.6,0.4,1.4,0.4,2.2c0,0.4-0.1,0.8-0.2,1.2c-0.1,0.4-0.3,0.8-0.6,1.2c-0.3,0.4-0.6,0.7-1,1
					c-0.4,0.3-0.9,0.5-1.4,0.7c0.6,0.2,1.1,0.4,1.6,0.7c0.4,0.3,0.8,0.6,1.1,1c0.3,0.4,0.5,0.8,0.6,1.3c0.1,0.5,0.2,0.9,0.2,1.5
					c0,0.8-0.1,1.6-0.4,2.2c-0.3,0.6-0.7,1.2-1.2,1.6c-0.5,0.5-1.1,0.8-1.8,1c-0.7,0.2-1.4,0.3-2.2,0.3c-0.7,0-1.5-0.1-2.2-0.3
					c-0.7-0.2-1.3-0.5-1.9-1c-0.6-0.4-1-1-1.3-1.6c-0.3-0.7-0.5-1.4-0.5-2.3h1.5c0,0.6,0.1,1.1,0.3,1.6c0.2,0.5,0.5,0.9,0.9,1.3
					c0.4,0.3,0.8,0.6,1.4,0.8c0.5,0.2,1.1,0.3,1.8,0.3c1.3,0,2.3-0.3,3.1-1c0.7-0.7,1.1-1.6,1.1-2.9c0-0.7-0.1-1.2-0.3-1.7
					c-0.2-0.5-0.5-0.9-0.9-1.2c-0.4-0.3-0.9-0.5-1.5-0.7c-0.6-0.1-1.2-0.2-1.9-0.2h-1.5V62.5z"/>
				<path class="st1" d="M178,72.8c-0.7,0-1.5-0.1-2.2-0.3c-0.7-0.2-1.3-0.5-1.9-1c-0.6-0.4-1-1-1.3-1.6c-0.3-0.7-0.5-1.4-0.5-2.3v0
					h1.6v0c0,0.6,0.1,1.1,0.3,1.6c0.2,0.5,0.5,0.9,0.9,1.3c0.4,0.3,0.8,0.6,1.4,0.8c0.5,0.2,1.1,0.3,1.8,0.3c1.3,0,2.3-0.3,3-1
					c0.7-0.7,1.1-1.6,1.1-2.9c0-0.7-0.1-1.2-0.3-1.7c-0.2-0.5-0.5-0.9-0.9-1.2c-0.4-0.3-0.9-0.5-1.5-0.7c-0.6-0.1-1.2-0.2-1.9-0.2
					h-1.6v-1.3h1.6c0.7,0,1.3-0.1,1.9-0.3c0.5-0.2,1-0.4,1.3-0.8c0.4-0.3,0.6-0.7,0.8-1.1c0.2-0.4,0.3-0.9,0.3-1.4
					c0-0.6-0.1-1.1-0.2-1.5c-0.2-0.5-0.4-0.9-0.7-1.2c-0.3-0.3-0.7-0.6-1.2-0.8c-0.5-0.2-1.1-0.3-1.7-0.3c-0.6,0-1.1,0.1-1.6,0.3
					c-0.5,0.2-0.9,0.4-1.3,0.8c-0.4,0.3-0.6,0.7-0.8,1.2c-0.2,0.5-0.3,1-0.3,1.6v0h-1.6v0c0-0.7,0.1-1.4,0.4-2.1
					c0.3-0.6,0.7-1.2,1.2-1.6c0.5-0.5,1.1-0.8,1.8-1.1c0.7-0.2,1.4-0.4,2.2-0.4c0.8,0,1.6,0.1,2.2,0.3c0.7,0.2,1.2,0.6,1.7,1
					c0.5,0.4,0.8,1,1.1,1.6c0.3,0.6,0.4,1.4,0.4,2.2c0,0.4-0.1,0.8-0.2,1.2c-0.1,0.4-0.3,0.8-0.6,1.2c-0.3,0.4-0.6,0.7-1,1
					c-0.4,0.3-0.8,0.5-1.3,0.7c0.6,0.2,1.1,0.4,1.5,0.7c0.4,0.3,0.8,0.6,1.1,1c0.3,0.4,0.5,0.8,0.6,1.3c0.1,0.5,0.2,1,0.2,1.5
					c0,0.8-0.1,1.6-0.4,2.2c-0.3,0.6-0.7,1.2-1.2,1.7c-0.5,0.4-1.1,0.8-1.8,1C179.5,72.7,178.8,72.8,178,72.8z M172.1,67.6
					c0,0.9,0.2,1.6,0.5,2.3c0.3,0.7,0.8,1.2,1.3,1.6c0.5,0.4,1.2,0.8,1.9,1c0.7,0.2,1.4,0.3,2.2,0.3c0.8,0,1.6-0.1,2.2-0.3
					c0.7-0.2,1.3-0.6,1.8-1c0.5-0.4,0.9-1,1.2-1.6c0.3-0.6,0.4-1.4,0.4-2.2c0-0.5-0.1-1-0.2-1.4c-0.1-0.5-0.3-0.9-0.6-1.3
					c-0.3-0.4-0.6-0.7-1.1-1c-0.4-0.3-1-0.5-1.6-0.7l-0.1,0l0.1,0c0.5-0.2,1-0.4,1.4-0.7c0.4-0.3,0.7-0.6,1-1
					c0.3-0.4,0.5-0.7,0.6-1.2c0.1-0.4,0.2-0.8,0.2-1.2c0-0.8-0.1-1.5-0.4-2.2c-0.3-0.6-0.6-1.2-1.1-1.6c-0.5-0.4-1-0.8-1.7-1
					c-0.7-0.2-1.4-0.3-2.2-0.3c-0.8,0-1.5,0.1-2.2,0.4c-0.7,0.2-1.3,0.6-1.8,1c-0.5,0.4-0.9,1-1.2,1.6c-0.3,0.6-0.4,1.3-0.4,2h1.5
					c0-0.6,0.1-1.1,0.3-1.6c0.2-0.5,0.5-0.9,0.9-1.2c0.4-0.3,0.8-0.6,1.3-0.8c0.5-0.2,1-0.3,1.6-0.3c0.7,0,1.2,0.1,1.7,0.3
					c0.5,0.2,0.9,0.4,1.2,0.8c0.3,0.3,0.6,0.7,0.7,1.2c0.2,0.5,0.2,1,0.2,1.5c0,0.5-0.1,1-0.3,1.4c-0.2,0.4-0.5,0.8-0.8,1.1
					c-0.4,0.3-0.8,0.6-1.4,0.8c-0.5,0.2-1.2,0.3-1.9,0.3h-1.5v1.3h1.5c0.7,0,1.3,0.1,1.9,0.2c0.6,0.1,1.1,0.4,1.5,0.7
					c0.4,0.3,0.7,0.7,1,1.2c0.2,0.5,0.3,1.1,0.3,1.7c0,1.3-0.4,2.3-1.1,2.9c-0.7,0.7-1.8,1-3.1,1c-0.6,0-1.2-0.1-1.8-0.3
					c-0.5-0.2-1-0.5-1.4-0.8c-0.4-0.3-0.7-0.8-0.9-1.3c-0.2-0.5-0.3-1-0.3-1.6H172.1z"/>
			</g>
			<g>
				<path class="st1" d="M185.1,65.6c0-1.1,0.1-2,0.4-2.9c0.2-0.9,0.6-1.6,1-2.2c0.5-0.6,1-1.1,1.7-1.4c0.7-0.3,1.4-0.5,2.2-0.5
					c1,0,1.8,0.2,2.5,0.6c0.7,0.4,1.3,0.9,1.7,1.6v-7.7h1.5v19.4h-1.4l-0.1-1.8c-0.5,0.6-1,1.2-1.7,1.5c-0.7,0.4-1.5,0.5-2.5,0.5
					c-0.8,0-1.5-0.2-2.2-0.5c-0.6-0.3-1.2-0.8-1.7-1.4c-0.5-0.6-0.8-1.3-1-2.2c-0.2-0.9-0.4-1.8-0.4-2.8V65.6z M186.6,65.8
					c0,0.8,0.1,1.5,0.2,2.2c0.2,0.7,0.4,1.3,0.7,1.8c0.3,0.5,0.7,0.9,1.2,1.2c0.5,0.3,1.1,0.4,1.8,0.4c0.5,0,1-0.1,1.4-0.2
					c0.4-0.1,0.8-0.3,1.1-0.5c0.3-0.2,0.6-0.5,0.8-0.8c0.2-0.3,0.4-0.6,0.6-1v-6.4c-0.2-0.3-0.3-0.7-0.6-1c-0.2-0.3-0.5-0.6-0.8-0.9
					c-0.3-0.2-0.7-0.4-1.1-0.6c-0.4-0.1-0.9-0.2-1.5-0.2c-0.7,0-1.3,0.1-1.8,0.4c-0.5,0.3-0.9,0.7-1.3,1.2c-0.3,0.5-0.6,1.1-0.7,1.8
					c-0.2,0.7-0.2,1.4-0.2,2.2V65.8z"/>
				<path class="st1" d="M190.4,72.8c-0.8,0-1.5-0.2-2.2-0.5c-0.6-0.3-1.2-0.8-1.7-1.4c-0.5-0.6-0.8-1.3-1.1-2.2
					c-0.2-0.8-0.4-1.8-0.4-2.8v-0.3c0-1.1,0.1-2,0.4-2.9c0.2-0.9,0.6-1.6,1.1-2.2c0.5-0.6,1-1.1,1.7-1.4c0.7-0.3,1.4-0.5,2.2-0.5
					c1,0,1.8,0.2,2.5,0.6c0.7,0.4,1.2,0.9,1.7,1.6v-7.6h1.5v19.4h-1.4l0,0l-0.1-1.8c-0.4,0.6-1,1.1-1.7,1.5
					C192.2,72.6,191.3,72.8,190.4,72.8z M190.4,58.6c-0.8,0-1.5,0.2-2.2,0.5c-0.6,0.3-1.2,0.8-1.7,1.4c-0.5,0.6-0.8,1.3-1,2.2
					c-0.2,0.8-0.4,1.8-0.4,2.9v0.3c0,1,0.1,2,0.4,2.8c0.2,0.8,0.6,1.6,1,2.2c0.5,0.6,1,1.1,1.6,1.4c0.6,0.3,1.4,0.5,2.2,0.5
					c1,0,1.8-0.2,2.5-0.5c0.7-0.4,1.3-0.9,1.7-1.5l0,0l0,0.1l0.1,1.8h1.4V53.1h-1.5v7.7l0,0c-0.5-0.7-1-1.2-1.7-1.6
					C192.2,58.8,191.3,58.6,190.4,58.6z M190.6,71.5c-0.7,0-1.3-0.1-1.8-0.4c-0.5-0.3-0.9-0.7-1.3-1.2c-0.3-0.5-0.6-1.1-0.7-1.8
					c-0.2-0.7-0.2-1.4-0.2-2.2v-0.3c0-0.8,0.1-1.5,0.2-2.2c0.2-0.7,0.4-1.3,0.7-1.8c0.3-0.5,0.8-0.9,1.3-1.2
					c0.5-0.3,1.1-0.4,1.8-0.4c0.6,0,1,0.1,1.5,0.2c0.4,0.1,0.8,0.3,1.1,0.6c0.3,0.2,0.6,0.5,0.8,0.9c0.2,0.3,0.4,0.7,0.6,1l0,0
					l0,6.4c-0.2,0.4-0.4,0.7-0.6,1c-0.2,0.3-0.5,0.6-0.9,0.8c-0.3,0.2-0.7,0.4-1.1,0.5C191.6,71.4,191.1,71.5,190.6,71.5z
					 M190.7,59.9c-0.7,0-1.3,0.1-1.8,0.4c-0.5,0.3-0.9,0.7-1.2,1.2c-0.3,0.5-0.6,1.1-0.7,1.8c-0.2,0.7-0.2,1.4-0.2,2.2v0.3
					c0,0.8,0.1,1.5,0.2,2.2c0.2,0.7,0.4,1.3,0.7,1.8c0.3,0.5,0.7,0.9,1.2,1.2c0.5,0.3,1.1,0.4,1.8,0.4c0.5,0,1-0.1,1.4-0.2
					c0.4-0.1,0.8-0.3,1.1-0.5c0.3-0.2,0.6-0.5,0.8-0.8c0.2-0.3,0.4-0.6,0.6-1v-6.4c-0.1-0.3-0.3-0.7-0.6-1c-0.2-0.3-0.5-0.6-0.8-0.8
					c-0.3-0.2-0.7-0.4-1.1-0.6C191.7,60,191.2,59.9,190.7,59.9z"/>
			</g>
			<g>
				<path class="st1" d="M206.7,69.1c0-0.3,0-0.6-0.1-0.8c-0.1-0.3-0.3-0.5-0.5-0.8c-0.3-0.2-0.6-0.5-1.1-0.7
					c-0.5-0.2-1.1-0.4-1.9-0.6c-0.8-0.2-1.4-0.3-2-0.6c-0.6-0.2-1.1-0.5-1.5-0.8c-0.4-0.3-0.7-0.7-0.9-1.1c-0.2-0.4-0.3-0.9-0.3-1.5
					c0-0.5,0.1-1,0.3-1.4c0.2-0.5,0.5-0.9,1-1.2c0.4-0.3,0.9-0.6,1.5-0.8c0.6-0.2,1.3-0.3,2-0.3c0.8,0,1.5,0.1,2.1,0.3
					c0.6,0.2,1.2,0.5,1.6,0.9c0.4,0.4,0.8,0.8,1,1.3c0.2,0.5,0.3,1,0.3,1.6h-1.5c0-0.4-0.1-0.7-0.2-1c-0.2-0.3-0.4-0.6-0.7-0.9
					c-0.3-0.3-0.7-0.5-1.1-0.6c-0.4-0.2-0.9-0.2-1.5-0.2c-0.6,0-1.1,0.1-1.5,0.2c-0.4,0.1-0.8,0.3-1,0.6c-0.3,0.2-0.5,0.5-0.6,0.8
					c-0.1,0.3-0.2,0.6-0.2,0.9c0,0.3,0,0.6,0.1,0.8c0.1,0.2,0.3,0.5,0.5,0.7c0.3,0.2,0.6,0.4,1.1,0.6c0.5,0.2,1.1,0.4,1.9,0.5
					c0.8,0.2,1.5,0.4,2.1,0.6c0.6,0.2,1.1,0.5,1.5,0.8c0.4,0.3,0.7,0.7,0.9,1.1c0.2,0.4,0.3,0.9,0.3,1.4c0,0.6-0.1,1.1-0.4,1.5
					c-0.2,0.5-0.6,0.9-1,1.2c-0.4,0.3-1,0.6-1.6,0.8c-0.6,0.2-1.3,0.3-2.1,0.3c-0.9,0-1.6-0.1-2.3-0.3c-0.7-0.2-1.2-0.5-1.7-0.9
					c-0.5-0.4-0.8-0.8-1-1.3c-0.2-0.5-0.3-1-0.3-1.5h1.5c0,0.5,0.2,1,0.4,1.3c0.2,0.4,0.5,0.6,0.9,0.9c0.4,0.2,0.8,0.4,1.2,0.5
					c0.4,0.1,0.9,0.1,1.3,0.1c0.6,0,1.1-0.1,1.5-0.2c0.4-0.1,0.8-0.3,1.1-0.5c0.3-0.2,0.5-0.5,0.7-0.8
					C206.6,69.7,206.7,69.4,206.7,69.1z"/>
				<path class="st1" d="M203.2,72.8c-0.9,0-1.6-0.1-2.3-0.3c-0.7-0.2-1.2-0.5-1.7-0.9c-0.5-0.4-0.8-0.8-1-1.3
					c-0.2-0.5-0.3-1-0.3-1.5v0h1.5l0,0c0,0.5,0.2,1,0.4,1.3c0.2,0.4,0.5,0.6,0.9,0.9c0.4,0.2,0.8,0.4,1.2,0.5
					c0.4,0.1,0.9,0.1,1.3,0.1c0.6,0,1.1-0.1,1.5-0.2c0.4-0.1,0.8-0.3,1.1-0.5c0.3-0.2,0.5-0.5,0.7-0.8c0.1-0.3,0.2-0.6,0.2-0.9
					c0-0.3,0-0.6-0.1-0.8c-0.1-0.3-0.3-0.5-0.5-0.8c-0.3-0.2-0.6-0.5-1.1-0.7c-0.5-0.2-1.1-0.4-1.8-0.6c-0.8-0.2-1.4-0.3-2-0.6
					c-0.6-0.2-1.1-0.5-1.5-0.8c-0.4-0.3-0.7-0.7-0.9-1.1c-0.2-0.4-0.3-0.9-0.3-1.5c0-0.5,0.1-1,0.3-1.4c0.2-0.5,0.5-0.9,1-1.2
					c0.4-0.3,0.9-0.6,1.5-0.8c0.6-0.2,1.3-0.3,2-0.3c0.8,0,1.5,0.1,2.1,0.3c0.6,0.2,1.2,0.5,1.6,0.9c0.4,0.4,0.8,0.8,1,1.3
					c0.2,0.5,0.3,1,0.3,1.6v0h-1.6v0c0-0.3-0.1-0.7-0.2-1c-0.2-0.3-0.4-0.6-0.7-0.9c-0.3-0.3-0.7-0.5-1.1-0.6
					c-0.4-0.2-0.9-0.2-1.5-0.2c-0.6,0-1.1,0.1-1.5,0.2c-0.4,0.1-0.8,0.3-1,0.6c-0.3,0.2-0.5,0.5-0.6,0.8c-0.1,0.3-0.2,0.6-0.2,0.8
					c0,0.3,0,0.6,0.1,0.8c0.1,0.2,0.3,0.5,0.5,0.7c0.3,0.2,0.6,0.4,1.1,0.6c0.5,0.2,1.1,0.4,1.9,0.5c0.8,0.2,1.5,0.4,2.1,0.6
					c0.6,0.2,1.1,0.5,1.5,0.8c0.4,0.3,0.7,0.7,0.9,1.1c0.2,0.4,0.3,0.9,0.3,1.5c0,0.6-0.1,1.1-0.4,1.6c-0.2,0.5-0.6,0.9-1,1.2
					c-0.4,0.3-1,0.6-1.6,0.8C204.6,72.7,203.9,72.8,203.2,72.8z M197.8,68.7c0,0.5,0.1,1,0.3,1.5c0.2,0.5,0.6,0.9,1,1.3
					c0.5,0.4,1,0.7,1.7,0.9c0.7,0.2,1.4,0.3,2.3,0.3c0.8,0,1.5-0.1,2.1-0.3c0.6-0.2,1.2-0.4,1.6-0.8c0.4-0.3,0.8-0.7,1-1.2
					c0.2-0.5,0.4-1,0.4-1.5c0-0.5-0.1-1-0.3-1.4c-0.2-0.4-0.5-0.8-0.9-1.1c-0.4-0.3-0.9-0.6-1.5-0.8c-0.6-0.2-1.3-0.5-2.1-0.6
					c-0.8-0.2-1.4-0.4-1.9-0.5c-0.5-0.2-0.9-0.4-1.1-0.6c-0.3-0.2-0.4-0.5-0.5-0.7c-0.1-0.2-0.1-0.5-0.1-0.8c0-0.3,0.1-0.6,0.2-0.9
					c0.1-0.3,0.3-0.5,0.6-0.8c0.3-0.2,0.6-0.4,1-0.6c0.4-0.1,0.9-0.2,1.5-0.2c0.6,0,1.1,0.1,1.5,0.2c0.4,0.2,0.8,0.4,1.1,0.6
					c0.3,0.3,0.5,0.6,0.7,0.9c0.2,0.3,0.2,0.7,0.2,1h1.5c0-0.6-0.1-1.1-0.3-1.6c-0.2-0.5-0.6-0.9-1-1.3c-0.4-0.4-1-0.7-1.6-0.9
					c-0.6-0.2-1.3-0.3-2.1-0.3c-0.7,0-1.4,0.1-2,0.3c-0.6,0.2-1.1,0.5-1.5,0.8c-0.4,0.3-0.7,0.7-1,1.2c-0.2,0.5-0.3,0.9-0.3,1.4
					c0,0.6,0.1,1,0.3,1.4c0.2,0.4,0.5,0.8,0.9,1.1c0.4,0.3,0.9,0.6,1.5,0.8c0.6,0.2,1.3,0.4,2,0.6c0.8,0.2,1.4,0.3,1.9,0.6
					c0.5,0.2,0.9,0.4,1.1,0.7c0.3,0.2,0.5,0.5,0.5,0.8c0.1,0.3,0.1,0.6,0.1,0.8c0,0.3-0.1,0.6-0.2,0.9c-0.2,0.3-0.4,0.6-0.7,0.8
					c-0.3,0.2-0.7,0.4-1.1,0.5c-0.4,0.1-0.9,0.2-1.5,0.2c-0.4,0-0.9,0-1.3-0.1c-0.4-0.1-0.8-0.2-1.2-0.5c-0.4-0.2-0.7-0.5-0.9-0.9
					c-0.2-0.4-0.4-0.8-0.4-1.3H197.8z"/>
			</g>
			<g>
				<path class="st1" d="M218.7,54.1l6.8,16.2l6.8-16.2h2.1v18.4h-1.6v-8l0.1-8.2l-6.8,16.2h-1.2l-6.8-16.2l0.1,8.1v8h-1.6V54.1
					H218.7z"/>
				<path class="st1" d="M234.4,72.6h-1.6v-8.1l0.1-8.1l-6.8,16.2h-1.2l0,0l-6.8-16.1l0.1,8v8.1h-1.6V54.1h2.1l0,0l6.8,16.2
					l6.8-16.2h2.1V72.6z M232.9,72.5h1.5V54.2h-2l-6.8,16.3l0,0l-6.8-16.2h-2v18.4h1.5v-8l-0.1-8.2l0,0.1l6.8,16.1h1.2l6.9-16.3
					l0,0.1l-0.1,8.2V72.5z"/>
			</g>
			<g>
				<path class="st1" d="M245.9,72.5c-0.1-0.2-0.1-0.5-0.2-0.9c0-0.3-0.1-0.7-0.1-1c-0.2,0.3-0.5,0.6-0.8,0.8
					c-0.3,0.3-0.7,0.5-1,0.7c-0.4,0.2-0.8,0.3-1.3,0.5c-0.5,0.1-1,0.2-1.5,0.2c-0.7,0-1.3-0.1-1.8-0.3c-0.5-0.2-1-0.5-1.4-0.8
					c-0.4-0.3-0.7-0.8-0.9-1.2c-0.2-0.5-0.3-1-0.3-1.5c0-0.7,0.1-1.3,0.4-1.8c0.3-0.5,0.7-1,1.2-1.4c0.5-0.4,1.2-0.7,2-0.9
					c0.8-0.2,1.6-0.3,2.6-0.3h2.8V63c0-1-0.3-1.7-0.9-2.3c-0.6-0.6-1.5-0.8-2.6-0.8c-0.5,0-1,0.1-1.5,0.2c-0.4,0.1-0.8,0.3-1.2,0.6
					c-0.3,0.3-0.6,0.5-0.8,0.9c-0.2,0.3-0.3,0.7-0.3,1.1l-1.5,0c0-0.5,0.1-1,0.4-1.5c0.3-0.5,0.6-0.9,1.1-1.3c0.5-0.4,1-0.7,1.7-0.9
					c0.6-0.2,1.4-0.3,2.1-0.3c0.7,0,1.4,0.1,2,0.3c0.6,0.2,1.1,0.5,1.6,0.8c0.4,0.4,0.8,0.8,1,1.4c0.2,0.6,0.4,1.2,0.4,1.9v6.6
					c0,0.2,0,0.5,0,0.7c0,0.3,0,0.5,0.1,0.7c0,0.2,0.1,0.5,0.1,0.7c0.1,0.2,0.1,0.4,0.2,0.6v0.2H245.9z M241.1,71.4
					c0.5,0,1.1-0.1,1.5-0.2c0.5-0.1,0.9-0.3,1.3-0.6c0.4-0.2,0.7-0.5,1-0.9c0.3-0.3,0.5-0.7,0.7-1.1v-3H243c-0.8,0-1.5,0.1-2.1,0.2
					c-0.6,0.1-1.1,0.3-1.5,0.6c-0.4,0.3-0.7,0.6-1,1c-0.2,0.4-0.3,0.8-0.3,1.3c0,0.4,0.1,0.7,0.2,1c0.1,0.3,0.3,0.6,0.6,0.8
					c0.3,0.2,0.6,0.4,1,0.6C240.2,71.4,240.7,71.4,241.1,71.4z"/>
				<path class="st1" d="M241,72.8c-0.7,0-1.3-0.1-1.8-0.3c-0.5-0.2-1-0.5-1.4-0.8c-0.4-0.3-0.7-0.8-0.9-1.2c-0.2-0.5-0.3-1-0.3-1.5
					c0-0.7,0.1-1.3,0.4-1.8c0.3-0.5,0.7-1,1.2-1.4c0.5-0.4,1.2-0.7,2-0.9c0.8-0.2,1.6-0.3,2.6-0.3h2.8V63c0-1-0.3-1.7-0.9-2.3
					c-0.6-0.6-1.5-0.8-2.6-0.8c-0.5,0-1,0.1-1.5,0.2c-0.4,0.1-0.8,0.3-1.2,0.6c-0.3,0.3-0.6,0.5-0.8,0.9c-0.2,0.3-0.3,0.7-0.3,1.1v0
					l-1.6,0v0c0-0.5,0.1-1,0.4-1.5c0.3-0.5,0.6-0.9,1.1-1.3c0.5-0.4,1-0.7,1.7-0.9c0.6-0.2,1.4-0.3,2.1-0.3c0.7,0,1.4,0.1,2,0.3
					c0.6,0.2,1.1,0.5,1.6,0.8c0.4,0.4,0.8,0.8,1,1.4c0.2,0.6,0.4,1.2,0.4,2v6.6c0,0.2,0,0.5,0,0.7c0,0.3,0,0.5,0.1,0.7
					c0,0.2,0.1,0.5,0.1,0.7c0.1,0.2,0.1,0.4,0.2,0.6l0,0v0.2h-1.6l0,0c-0.1-0.2-0.2-0.5-0.2-0.9c0-0.3-0.1-0.7-0.1-1
					c-0.2,0.3-0.5,0.5-0.8,0.8c-0.3,0.3-0.7,0.5-1.1,0.7c-0.4,0.2-0.8,0.4-1.3,0.5C242,72.7,241.5,72.8,241,72.8z M242.8,64.6
					c-1,0-1.8,0.1-2.6,0.3c-0.8,0.2-1.4,0.5-2,0.9c-0.5,0.4-0.9,0.8-1.2,1.4c-0.3,0.5-0.4,1.1-0.4,1.8c0,0.6,0.1,1.1,0.3,1.5
					c0.2,0.5,0.5,0.9,0.9,1.2c0.4,0.3,0.8,0.6,1.4,0.8c0.5,0.2,1.1,0.3,1.8,0.3c0.5,0,1-0.1,1.5-0.2c0.5-0.1,0.9-0.3,1.3-0.5
					c0.4-0.2,0.7-0.4,1-0.7c0.3-0.3,0.6-0.5,0.8-0.8l0,0l0,0c0,0.4,0,0.7,0.1,1c0,0.3,0.1,0.6,0.2,0.9h1.6v-0.1
					c-0.1-0.2-0.1-0.3-0.2-0.6c-0.1-0.2-0.1-0.4-0.1-0.7c0-0.2-0.1-0.5-0.1-0.7c0-0.2,0-0.5,0-0.7v-6.6c0-0.7-0.1-1.4-0.4-1.9
					c-0.2-0.6-0.6-1-1-1.4c-0.4-0.4-1-0.6-1.6-0.8c-0.6-0.2-1.3-0.3-2-0.3c-0.8,0-1.5,0.1-2.1,0.3c-0.6,0.2-1.2,0.5-1.6,0.9
					c-0.5,0.4-0.8,0.8-1.1,1.3c-0.2,0.5-0.4,1-0.4,1.5l1.5,0c0-0.4,0.1-0.7,0.3-1.1c0.2-0.3,0.4-0.6,0.8-0.9
					c0.3-0.3,0.7-0.5,1.2-0.6c0.4-0.1,0.9-0.2,1.5-0.2c1.2,0,2,0.3,2.6,0.8c0.6,0.6,0.9,1.3,0.9,2.3v1.6H242.8z M241.1,71.5
					c-0.5,0-0.9-0.1-1.3-0.2c-0.4-0.1-0.7-0.3-1-0.6c-0.3-0.2-0.5-0.5-0.6-0.9c-0.1-0.3-0.2-0.7-0.2-1c0-0.5,0.1-0.9,0.3-1.3
					c0.2-0.4,0.6-0.7,1-1c0.4-0.3,0.9-0.5,1.6-0.6c0.6-0.1,1.3-0.2,2.1-0.2h2.6l0,3c-0.2,0.4-0.4,0.7-0.7,1.1
					c-0.3,0.3-0.6,0.6-1,0.9c-0.4,0.2-0.8,0.4-1.3,0.6C242.2,71.4,241.7,71.5,241.1,71.5z M243,65.8c-0.8,0-1.5,0.1-2.1,0.2
					c-0.6,0.1-1.1,0.3-1.5,0.6c-0.4,0.3-0.7,0.6-1,0.9c-0.2,0.4-0.3,0.8-0.3,1.3c0,0.4,0.1,0.7,0.2,1c0.1,0.3,0.3,0.6,0.6,0.8
					c0.3,0.2,0.6,0.4,1,0.6c0.4,0.1,0.8,0.2,1.3,0.2c0.5,0,1.1-0.1,1.5-0.2c0.5-0.1,0.9-0.3,1.3-0.6c0.4-0.2,0.7-0.5,1-0.8
					c0.3-0.3,0.5-0.7,0.7-1v-3H243z"/>
			</g>
			<g>
				<path class="st1" d="M254.2,64.4l3.7-5.5h1.8l-4.6,6.7l4.8,7h-1.8l-3.9-5.8l-3.9,5.8h-1.8l4.8-7l-4.6-6.7h1.8L254.2,64.4z"/>
				<path class="st1" d="M259.9,72.6h-1.8l0,0l-3.9-5.8l-3.9,5.8h-1.8l0,0l4.8-7l-4.6-6.7h1.8l0,0l3.7,5.5l3.7-5.5h1.8l0,0l-4.6,6.7
					L259.9,72.6z M258.1,72.5h1.7l-4.8-6.9l0,0l4.6-6.7h-1.8l-3.7,5.6l0,0l-3.7-5.5h-1.7l4.6,6.7l0,0l-4.8,6.9h1.7l3.9-5.8l0,0
					L258.1,72.5z"/>
			</g>
		</g>
	</g>
	<g>
		<g>
			<g>
				<path class="st1" d="M72.5,67.9c0,1.2-0.4,2.2-1.3,3c-0.8,0.8-1.9,1.3-3,1.3c-0.9,0-1.5-0.3-1.8-1v7l-2.5,0.8V55h1.7l0.6,1
					c0.2-0.3,0.5-0.5,0.9-0.7c0.4-0.2,0.8-0.3,1.2-0.3c1.2,0,2.2,0.4,3,1.3c0.8,0.8,1.3,1.9,1.3,3V67.9z M70,67.9v-8.6
					c0-0.5-0.2-0.9-0.5-1.3c-0.4-0.4-0.8-0.5-1.3-0.5c-0.5,0-0.9,0.2-1.3,0.5c-0.3,0.4-0.5,0.8-0.5,1.3v8.6c0,0.5,0.2,0.9,0.5,1.3
					c0.3,0.3,0.8,0.5,1.3,0.5c0.5,0,0.9-0.2,1.3-0.5C69.8,68.8,70,68.4,70,67.9z"/>
				<path class="st1" d="M83.2,72.2h-2.5V59.3c0-0.5-0.2-0.9-0.5-1.3c-0.4-0.4-0.8-0.5-1.3-0.5c-0.5,0-0.9,0.2-1.3,0.5
					c-0.3,0.4-0.5,0.8-0.5,1.3v12.9h-2.5V50.9l2.5-0.8v5.5c0.6-0.4,1.2-0.7,1.8-0.7c1.2,0,2.2,0.4,3,1.3c0.8,0.8,1.3,1.9,1.3,3V72.2
					z"/>
				<path class="st1" d="M93.9,67.9c0,1.2-0.4,2.2-1.3,3c-0.8,0.8-1.9,1.3-3,1.3c-1.2,0-2.2-0.4-3-1.3c-0.8-0.8-1.3-1.9-1.3-3v-8.6
					c0-1.2,0.4-2.2,1.3-3c0.8-0.8,1.9-1.3,3-1.3c1.2,0,2.2,0.4,3,1.3c0.8,0.8,1.3,1.9,1.3,3V67.9z M91.4,67.9v-8.6
					c0-0.5-0.2-0.9-0.5-1.3c-0.4-0.4-0.8-0.5-1.3-0.5c-0.5,0-0.9,0.2-1.3,0.5c-0.3,0.4-0.5,0.8-0.5,1.3v8.6c0,0.5,0.2,0.9,0.5,1.3
					c0.3,0.3,0.8,0.5,1.3,0.5c0.5,0,0.9-0.2,1.3-0.5C91.2,68.8,91.4,68.4,91.4,67.9z"/>
				<path class="st1" d="M104.6,67.9c0,1.2-0.4,2.2-1.3,3c-0.8,0.8-1.9,1.3-3,1.3c-1.2,0-2.2-0.4-3-1.3c-0.8-0.8-1.3-1.9-1.3-3v-8.6
					c0-1.2,0.4-2.2,1.3-3c0.8-0.8,1.9-1.3,3-1.3c1.2,0,2.2,0.4,3,1.3c0.8,0.8,1.3,1.9,1.3,3c0,1.4-0.2,2.5-0.6,3.2
					c-0.4,0.7-1.1,1.4-2,2.1c-1.2,0.8-2.4,1.5-3.5,2.3v1c0,0.5,0.2,0.9,0.5,1.3c0.3,0.3,0.8,0.5,1.3,0.5c0.5,0,0.9-0.2,1.3-0.5
					c0.4-0.3,0.5-0.8,0.5-1.3v-0.3l2.5-0.8V67.9z M102.1,59.3c0-0.5-0.2-0.9-0.5-1.3c-0.4-0.4-0.8-0.5-1.3-0.5
					c-0.5,0-0.9,0.2-1.3,0.5c-0.3,0.4-0.5,0.8-0.5,1.3V64c1.5-0.8,2.4-1.5,2.8-2C101.9,61.4,102.1,60.5,102.1,59.3z"/>
				<path class="st1" d="M115.3,72.2h-2.5V59.3c0-0.5-0.2-0.9-0.5-1.3c-0.4-0.4-0.8-0.5-1.3-0.5c-0.5,0-0.9,0.2-1.3,0.5
					c-0.3,0.4-0.5,0.8-0.5,1.3v12.9h-2.5V55h1.7l0.6,1c0.5-0.6,1.2-1,2.1-1c1.2,0,2.2,0.4,3,1.3c0.8,0.8,1.3,1.9,1.3,3V72.2z"/>
				<path class="st1" d="M120,51.6c0,0.4-0.1,0.8-0.3,1.1c-0.2,0.3-0.5,0.5-0.9,0.5c-0.4,0-0.7-0.2-0.9-0.5
					c-0.2-0.3-0.4-0.7-0.4-1.1c0-0.4,0.1-0.7,0.4-1.1c0.2-0.3,0.6-0.5,0.9-0.5c0.4,0,0.7,0.2,0.9,0.5C119.9,50.9,120,51.2,120,51.6z
					 M120,72.2h-2.5v-16l2.5-0.8V72.2z"/>
				<path class="st1" d="M131.7,72.2h-2.8l-2-5.1l-2,5.1h-2.8l3.4-8.6L122,55h2.8l2,5.1l2-5.1h2.8l-3.4,8.6L131.7,72.2z"/>
			</g>
		</g>
		<g>
			<path class="st1" d="M39.2,76c0.5-3.6-0.1-6.4-0.9-12.6c0,0,0.5,6.1-1.3,9.9c-0.7,1.5-1.2,2.8-1.3,3.9c-0.2-3,1.4-5.6,2-9.6
				c0.8-5.3-1.6-9-2.1-11.2c-0.5-2.1,2.2-6.1,2.2-6.1s-2.4,2.5-3.1,4.8c-0.7,2.3,0.3,3.2,1.2,7.9c0.7,4.1-1.7,6.4-2.1,10.7
				c-0.4,5.1,2.7,6.7,2.7,6.7S38.7,79.2,39.2,76z"/>
			<g>
				<path class="st1" d="M25.5,60.7c-0.2-0.3-0.2-0.9-0.1-1.3c0.7,1.2,1.8,2.2,2.8,2.7c2.1,1.2,2.7,1.9,2.7,1.9
					c-0.1-3.6-4.8-4.7-3.8-9.9c0.9-5.2,6.7-5.6,6.7-5.6s-6-0.1-8.2,4c-0.9,1.6-1.1,3.1-1,4.3c-1.1-2.5-0.1-4.5-0.1-4.5
					C21.7,57.3,25.5,60.7,25.5,60.7z"/>
				<path class="st1" d="M28,67.1c0,0,4,1.5,4.8,4.6c-0.1-1.5,0-1.3,0-1.7c0.2-4-2.1-5.9-3.5-6.6c-5.6-2.1-6.8-4.2-6.6-6.9
					C22.8,56.5,18.2,63.8,28,67.1z"/>
				<path class="st1" d="M25.8,66.7c0,0-4.9-1.7-4.9-6.2c0-4.4-4.9-6.5-4.9-6.5s2.3,1.6,2.6,6.3C19,65.2,22.5,67.1,25.8,66.7z"/>
				<path class="st1" d="M45.8,54.1c0.9,5.2-3.7,6.3-3.8,9.9c0,0,0.5-0.7,2.7-1.9c2.5-1.4,5.2-4.8,2.6-9.7c-2.2-4-8.2-4-8.2-4
					S44.9,49,45.8,54.1z"/>
				<path class="st1" d="M32.9,60c0.3,1.2,0.3,3.1,0.3,3.1s0.9-0.9,0.7-2.9c-0.1-1-0.7-1.6,0-3.7C33.9,56.5,32.4,58.2,32.9,60z"/>
				<path class="st1" d="M43.6,63.4c-1.4,0.7-3.6,2.6-3.5,6.6c0,0.4,0.1,0.2,0,1.7c0.9-3.1,4.8-4.6,4.8-4.6
					c9.8-3.3,5.2-10.6,5.2-10.6C50.4,59.2,49.2,61.3,43.6,63.4z"/>
				<path class="st1" d="M46.3,73.9c-2,0.2-3.3,0.1-4.4,0c0.9-0.4,1.7-0.4,1.7-0.4c12.6-0.7,10.9-10.3,10.9-10.3
					c-1.4,7.1-8.3,4.3-11.5,5.5c-1.4,0.5-2.4,2.3-3,4.1c0,0.8,0.1,1.7,0,2.6c-0.1,0.8-0.3,1.6-0.6,2.4c1.1-0.2,9.7-1.7,13-7.2
					C52.5,70.7,50.6,73.5,46.3,73.9z M40.3,74.1c0.7-1.3,1.7-2.2,2.9-2.5c1-0.2,2.2-1,2.2-1c-0.5,0.9-1.9,1.6-1.9,1.6
					c3.2,0.3,6.1-1.8,6.1-1.8c-1.8,1.5-2.9,1.9-6.1,2.7c-0.8,0.2-1.4,0.5-1.9,0.9C41,74,40.7,74,40.3,74.1z M32.9,73
					c-0.6-1.8-1.6-3.6-3-4.1c-3.2-1.2-10.1,1.6-11.5-5.5c0,0-1.6,9.5,10.9,10.3c0,0,0.8,0,1.7,0.4c-1,0-2.3,0.2-4.4,0
					c-4.4-0.5-6.2-3.2-6.2-3.2c3.4,5.5,11.9,7,13,7.2c-0.3-0.8-0.5-1.6-0.6-2.4C32.8,74.7,32.8,73.8,32.9,73z M31.4,74
					c-0.5-0.4-1.1-0.7-1.9-0.9c-3.2-0.8-4.3-1.2-6.1-2.7c0,0,2.9,2.1,6.1,1.8c0,0-1.5-0.7-1.9-1.6c0,0,1.1,0.8,2.2,1
					c1.2,0.3,2.2,1.1,2.9,2.5C32.3,74,31.9,74,31.4,74z"/>
				<path class="st1" d="M52,60.5c0,4.5-4.9,6.2-4.9,6.2c3.4,0.4,6.8-1.4,7.2-6.3c0.4-4.8,2.6-6.3,2.6-6.3S52,56.2,52,60.5z"/>
				<path class="st1" d="M39.4,77.9c-0.5,1.2-1.2,2.2-2.3,2.8c2.9-0.2,7.4-1,10.4-4C47.6,76.8,43.2,78.5,39.4,77.9z"/>
				<path class="st1" d="M33.5,77.9c-3.8,0.6-8.2-1.1-8.2-1.1c3,2.9,7.5,3.7,10.4,4C34.7,80.1,34,79.1,33.5,77.9z"/>
			</g>
			<path class="st1" d="M28.4,57.1l0-0.2c0.6-5,4.9-6.8,4.9-6.8C26.6,50.4,28.4,57.1,28.4,57.1z"/>
			<path class="st1" d="M44.8,56.8l0,0.2c0,0,1.6-6.3-4.8-6.6C40,50.4,43.8,51.7,44.8,56.8z"/>
		</g>
	</g>
</g>
</svg>
