<?xml version="1.0" encoding="utf-8"?>
<!-- Generator: Adobe Illustrator 23.1.0, SVG Export Plug-In . SVG Version: 6.00 Build 0)  -->
<svg version="1.1" id="Layer_1" xmlns="http://www.w3.org/2000/svg" xmlns:xlink="http://www.w3.org/1999/xlink" x="0px" y="0px"
	 width="300px" height="125px" viewBox="0 0 300 125" style="enable-background:new 0 0 300 125;" xml:space="preserve">
<style type="text/css">
	.st0{fill:#231F20;}
	.st1{fill:#0B0204;}
	.st2{fill:#808184;}
	.st3{fill:#FFFFFF;}
</style>
<g>
	<g>
		<rect x="150.8" y="26.9" class="st1" width="1.2" height="70"/>
	</g>
	<g>
		<g>
			<g>
				<path class="st1" d="M72.5,67.3c0,1.2-0.4,2.2-1.3,3c-0.8,0.8-1.9,1.3-3,1.3c-0.9,0-1.5-0.3-1.8-1v7l-2.5,0.8V54.4h1.7l0.6,1
					c0.2-0.3,0.5-0.5,0.9-0.7c0.4-0.2,0.8-0.3,1.2-0.3c1.2,0,2.2,0.4,3,1.3c0.8,0.8,1.3,1.9,1.3,3V67.3z M70,67.3v-8.6
					c0-0.5-0.2-0.9-0.5-1.3c-0.4-0.4-0.8-0.5-1.3-0.5c-0.5,0-0.9,0.2-1.3,0.5c-0.3,0.4-0.5,0.8-0.5,1.3v8.6c0,0.5,0.2,0.9,0.5,1.3
					c0.3,0.3,0.8,0.5,1.3,0.5c0.5,0,0.9-0.2,1.3-0.5C69.8,68.3,70,67.9,70,67.3z"/>
				<path class="st1" d="M83.2,71.6h-2.5V58.7c0-0.5-0.2-0.9-0.5-1.3c-0.4-0.4-0.8-0.5-1.3-0.5c-0.5,0-0.9,0.2-1.3,0.5
					c-0.3,0.4-0.5,0.8-0.5,1.3v12.9h-2.5V50.4l2.5-0.8v5.5c0.6-0.4,1.2-0.7,1.8-0.7c1.2,0,2.2,0.4,3,1.3c0.8,0.8,1.3,1.9,1.3,3V71.6
					z"/>
				<path class="st1" d="M93.9,67.3c0,1.2-0.4,2.2-1.3,3c-0.8,0.8-1.9,1.3-3,1.3c-1.2,0-2.2-0.4-3-1.3c-0.8-0.8-1.3-1.9-1.3-3v-8.6
					c0-1.2,0.4-2.2,1.3-3c0.8-0.8,1.9-1.3,3-1.3c1.2,0,2.2,0.4,3,1.3c0.8,0.8,1.3,1.9,1.3,3V67.3z M91.4,67.3v-8.6
					c0-0.5-0.2-0.9-0.5-1.3c-0.4-0.4-0.8-0.5-1.3-0.5c-0.5,0-0.9,0.2-1.3,0.5c-0.3,0.4-0.5,0.8-0.5,1.3v8.6c0,0.5,0.2,0.9,0.5,1.3
					c0.3,0.3,0.8,0.5,1.3,0.5c0.5,0,0.9-0.2,1.3-0.5C91.2,68.3,91.4,67.9,91.4,67.3z"/>
				<path class="st1" d="M104.6,67.3c0,1.2-0.4,2.2-1.3,3c-0.8,0.8-1.9,1.3-3,1.3c-1.2,0-2.2-0.4-3-1.3c-0.8-0.8-1.3-1.9-1.3-3v-8.6
					c0-1.2,0.4-2.2,1.3-3c0.8-0.8,1.9-1.3,3-1.3c1.2,0,2.2,0.4,3,1.3c0.8,0.8,1.3,1.9,1.3,3c0,1.4-0.2,2.5-0.6,3.2
					c-0.4,0.7-1.1,1.4-2,2.1c-1.2,0.8-2.4,1.5-3.5,2.3v1c0,0.5,0.2,0.9,0.5,1.3c0.3,0.3,0.8,0.5,1.3,0.5c0.5,0,0.9-0.2,1.3-0.5
					c0.4-0.3,0.5-0.8,0.5-1.3v-0.3l2.5-0.8V67.3z M102.1,58.7c0-0.5-0.2-0.9-0.5-1.3c-0.4-0.4-0.8-0.5-1.3-0.5
					c-0.5,0-0.9,0.2-1.3,0.5c-0.3,0.4-0.5,0.8-0.5,1.3v4.7c1.5-0.8,2.4-1.5,2.8-2C101.9,60.8,102.1,59.9,102.1,58.7z"/>
				<path class="st1" d="M115.3,71.6h-2.5V58.7c0-0.5-0.2-0.9-0.5-1.3c-0.4-0.4-0.8-0.5-1.3-0.5c-0.5,0-0.9,0.2-1.3,0.5
					c-0.3,0.4-0.5,0.8-0.5,1.3v12.9h-2.5V54.4h1.7l0.6,1c0.5-0.6,1.2-1,2.1-1c1.2,0,2.2,0.4,3,1.3c0.8,0.8,1.3,1.9,1.3,3V71.6z"/>
				<path class="st1" d="M120,51.1c0,0.4-0.1,0.8-0.3,1.1c-0.2,0.3-0.5,0.5-0.9,0.5c-0.4,0-0.7-0.2-0.9-0.5
					c-0.2-0.3-0.4-0.7-0.4-1.1c0-0.4,0.1-0.7,0.4-1.1c0.2-0.3,0.6-0.5,0.9-0.5c0.4,0,0.7,0.2,0.9,0.5C119.9,50.3,120,50.7,120,51.1z
					 M120,71.6h-2.5v-16l2.5-0.8V71.6z"/>
				<path class="st1" d="M131.7,71.6h-2.8l-2-5.1l-2,5.1h-2.8l3.4-8.6l-3.4-8.6h2.8l2,5.1l2-5.1h2.8l-3.4,8.6L131.7,71.6z"/>
			</g>
		</g>
		<g>
			<path class="st1" d="M39.2,75.4c0.5-3.6-0.1-6.4-0.9-12.6c0,0,0.5,6.1-1.3,9.9c-0.7,1.5-1.2,2.8-1.3,3.9c-0.2-3,1.4-5.6,2-9.6
				c0.8-5.3-1.6-9-2.1-11.2c-0.5-2.1,2.2-6.1,2.2-6.1s-2.4,2.5-3.1,4.8c-0.7,2.3,0.3,3.2,1.2,7.9c0.7,4.1-1.7,6.4-2.1,10.7
				c-0.4,5.1,2.7,6.7,2.7,6.7S38.7,78.6,39.2,75.4z"/>
			<g>
				<path class="st1" d="M25.5,60.1c-0.2-0.3-0.2-0.9-0.1-1.3c0.7,1.2,1.8,2.2,2.8,2.7c2.1,1.2,2.7,1.9,2.7,1.9
					c-0.1-3.6-4.8-4.7-3.8-9.9c0.9-5.2,6.7-5.6,6.7-5.6s-6-0.1-8.2,4c-0.9,1.6-1.1,3.1-1,4.3c-1.1-2.5-0.1-4.5-0.1-4.5
					C21.7,56.8,25.5,60.1,25.5,60.1z"/>
				<path class="st1" d="M28,66.5c0,0,4,1.5,4.8,4.6c-0.1-1.5,0-1.3,0-1.7c0.2-4-2.1-5.9-3.5-6.6c-5.6-2.1-6.8-4.2-6.6-6.9
					C22.8,55.9,18.2,63.2,28,66.5z"/>
				<path class="st1" d="M25.8,66.1c0,0-4.9-1.7-4.9-6.2c0-4.4-4.9-6.5-4.9-6.5s2.3,1.6,2.6,6.3C19,64.7,22.5,66.5,25.8,66.1z"/>
				<path class="st1" d="M45.8,53.6c0.9,5.2-3.7,6.3-3.8,9.9c0,0,0.5-0.7,2.7-1.9c2.5-1.4,5.2-4.8,2.6-9.7c-2.2-4-8.2-4-8.2-4
					S44.9,48.4,45.8,53.6z"/>
				<path class="st1" d="M32.9,59.5c0.3,1.2,0.3,3.1,0.3,3.1s0.9-0.9,0.7-2.9c-0.1-1-0.7-1.6,0-3.7C33.9,55.9,32.4,57.6,32.9,59.5z"
					/>
				<path class="st1" d="M43.6,62.8c-1.4,0.7-3.6,2.6-3.5,6.6c0,0.4,0.1,0.2,0,1.7c0.9-3.1,4.8-4.6,4.8-4.6
					c9.8-3.3,5.2-10.6,5.2-10.6C50.4,58.6,49.2,60.7,43.6,62.8z"/>
				<path class="st1" d="M46.3,73.4c-2,0.2-3.3,0.1-4.4,0c0.9-0.4,1.7-0.4,1.7-0.4c12.6-0.7,10.9-10.3,10.9-10.3
					c-1.4,7.1-8.3,4.3-11.5,5.5c-1.4,0.5-2.4,2.3-3,4.1c0,0.8,0.1,1.7,0,2.6c-0.1,0.8-0.3,1.6-0.6,2.4c1.1-0.2,9.7-1.7,13-7.2
					C52.5,70.2,50.6,72.9,46.3,73.4z M40.3,73.6c0.7-1.3,1.7-2.2,2.9-2.5c1-0.2,2.2-1,2.2-1c-0.5,0.9-1.9,1.6-1.9,1.6
					c3.2,0.3,6.1-1.8,6.1-1.8c-1.8,1.5-2.9,1.9-6.1,2.7c-0.8,0.2-1.4,0.5-1.9,0.9C41,73.4,40.7,73.4,40.3,73.6z M32.9,72.4
					c-0.6-1.8-1.6-3.6-3-4.1c-3.2-1.2-10.1,1.6-11.5-5.5c0,0-1.6,9.5,10.9,10.3c0,0,0.8,0,1.7,0.4c-1,0-2.3,0.2-4.4,0
					c-4.4-0.5-6.2-3.2-6.2-3.2c3.4,5.5,11.9,7,13,7.2c-0.3-0.8-0.5-1.6-0.6-2.4C32.8,74.1,32.8,73.2,32.9,72.4z M31.4,73.4
					c-0.5-0.4-1.1-0.7-1.9-0.9c-3.2-0.8-4.3-1.2-6.1-2.7c0,0,2.9,2.1,6.1,1.8c0,0-1.5-0.7-1.9-1.6c0,0,1.1,0.8,2.2,1
					c1.2,0.3,2.2,1.1,2.9,2.5C32.3,73.4,31.9,73.4,31.4,73.4z"/>
				<path class="st1" d="M52,59.9c0,4.5-4.9,6.2-4.9,6.2c3.4,0.4,6.8-1.4,7.2-6.3c0.4-4.8,2.6-6.3,2.6-6.3S52,55.6,52,59.9z"/>
				<path class="st1" d="M39.4,77.4c-0.5,1.2-1.2,2.2-2.3,2.8c2.9-0.2,7.4-1,10.4-4C47.6,76.3,43.2,77.9,39.4,77.4z"/>
				<path class="st1" d="M33.5,77.4c-3.8,0.6-8.2-1.1-8.2-1.1c3,2.9,7.5,3.7,10.4,4C34.7,79.6,34,78.5,33.5,77.4z"/>
			</g>
			<path class="st1" d="M28.4,56.5l0-0.2c0.6-5,4.9-6.8,4.9-6.8C26.6,49.8,28.4,56.5,28.4,56.5z"/>
			<path class="st1" d="M44.8,56.2l0,0.2c0,0,1.6-6.3-4.8-6.6C40,49.8,43.8,51.2,44.8,56.2z"/>
		</g>
	</g>
	<g>
		<g>
			<path class="st1" d="M174.5,53.5l6.8,16.2l6.8-16.2h2.1v18.4h-1.6v-8l0.1-8.2l-6.8,16.2h-1.2l-6.8-16.2l0.1,8.1v8h-1.6V53.5
				H174.5z"/>
			<path class="st1" d="M190.1,71.9h-1.6v-8.1l0.1-8.1l-6.8,16.2h-1.2l0,0l-6.8-16.1l0.1,8v8.1h-1.6V53.5h2.1l0,0l6.8,16.2l6.8-16.2
				h2.1V71.9z M188.6,71.9h1.5V53.5h-2l-6.8,16.3l0,0l-6.8-16.2h-2v18.4h1.5v-8l-0.1-8.2l0,0.1l6.8,16.1h1.2l6.9-16.3l0,0.1
				l-0.1,8.2V71.9z"/>
		</g>
		<g>
			<path class="st1" d="M201.6,71.9c-0.1-0.2-0.1-0.5-0.2-0.9c0-0.3-0.1-0.7-0.1-1c-0.2,0.3-0.5,0.6-0.8,0.8c-0.3,0.3-0.7,0.5-1,0.7
				c-0.4,0.2-0.8,0.3-1.3,0.5c-0.5,0.1-1,0.2-1.5,0.2c-0.7,0-1.3-0.1-1.8-0.3c-0.5-0.2-1-0.5-1.4-0.8c-0.4-0.3-0.7-0.8-0.9-1.2
				c-0.2-0.5-0.3-1-0.3-1.5c0-0.7,0.1-1.3,0.4-1.8c0.3-0.5,0.7-1,1.2-1.4c0.5-0.4,1.2-0.7,2-0.9c0.8-0.2,1.6-0.3,2.6-0.3h2.8v-1.6
				c0-1-0.3-1.7-0.9-2.3c-0.6-0.6-1.5-0.8-2.6-0.8c-0.5,0-1,0.1-1.5,0.2c-0.4,0.1-0.8,0.3-1.2,0.6c-0.3,0.3-0.6,0.5-0.8,0.9
				c-0.2,0.3-0.3,0.7-0.3,1.1l-1.5,0c0-0.5,0.1-1,0.4-1.5c0.3-0.5,0.6-0.9,1.1-1.3c0.5-0.4,1-0.7,1.7-0.9c0.6-0.2,1.4-0.3,2.1-0.3
				c0.7,0,1.4,0.1,2,0.3c0.6,0.2,1.1,0.5,1.6,0.8c0.4,0.4,0.8,0.8,1,1.4c0.2,0.6,0.4,1.2,0.4,1.9V69c0,0.2,0,0.5,0,0.7
				c0,0.3,0,0.5,0.1,0.7c0,0.2,0.1,0.5,0.1,0.7c0.1,0.2,0.1,0.4,0.2,0.6v0.2H201.6z M196.8,70.8c0.5,0,1.1-0.1,1.5-0.2
				c0.5-0.1,0.9-0.3,1.3-0.6c0.4-0.2,0.7-0.5,1-0.9c0.3-0.3,0.5-0.7,0.7-1.1v-3h-2.6c-0.8,0-1.5,0.1-2.1,0.2
				c-0.6,0.1-1.1,0.3-1.5,0.6c-0.4,0.3-0.7,0.6-1,1c-0.2,0.4-0.3,0.8-0.3,1.3c0,0.4,0.1,0.7,0.2,1c0.1,0.3,0.3,0.6,0.6,0.8
				c0.3,0.2,0.6,0.4,1,0.6C196,70.7,196.4,70.8,196.8,70.8z"/>
			<path class="st1" d="M196.7,72.1c-0.7,0-1.3-0.1-1.8-0.3c-0.5-0.2-1-0.5-1.4-0.8c-0.4-0.3-0.7-0.8-0.9-1.2
				c-0.2-0.5-0.3-1-0.3-1.5c0-0.7,0.1-1.3,0.4-1.8c0.3-0.5,0.7-1,1.2-1.4c0.5-0.4,1.2-0.7,2-0.9c0.8-0.2,1.6-0.3,2.6-0.3h2.8v-1.5
				c0-1-0.3-1.7-0.9-2.3c-0.6-0.6-1.5-0.8-2.6-0.8c-0.5,0-1,0.1-1.5,0.2c-0.4,0.1-0.8,0.3-1.2,0.6c-0.3,0.3-0.6,0.5-0.8,0.9
				c-0.2,0.3-0.3,0.7-0.3,1.1v0l0,0l-1.5,0v0c0-0.5,0.1-1,0.4-1.5c0.3-0.5,0.6-0.9,1.1-1.3s1-0.7,1.7-0.9c0.6-0.2,1.4-0.3,2.1-0.3
				c0.7,0,1.4,0.1,2,0.3c0.6,0.2,1.1,0.5,1.6,0.8c0.4,0.4,0.8,0.8,1,1.4c0.2,0.6,0.4,1.2,0.4,2V69c0,0.2,0,0.5,0,0.7
				c0,0.2,0,0.5,0.1,0.7c0,0.2,0.1,0.5,0.1,0.7c0.1,0.2,0.1,0.4,0.2,0.6l0,0v0.2h-1.6l0,0c-0.1-0.2-0.2-0.5-0.2-0.9
				c0-0.3-0.1-0.7-0.1-1c-0.2,0.3-0.5,0.5-0.8,0.8c-0.3,0.3-0.7,0.5-1.1,0.7c-0.4,0.2-0.8,0.4-1.3,0.5
				C197.7,72.1,197.2,72.1,196.7,72.1z M198.5,63.9c-1,0-1.8,0.1-2.6,0.3c-0.8,0.2-1.4,0.5-2,0.9c-0.5,0.4-0.9,0.8-1.2,1.4
				c-0.3,0.5-0.4,1.1-0.4,1.8c0,0.6,0.1,1.1,0.3,1.5c0.2,0.5,0.5,0.9,0.9,1.2c0.4,0.3,0.8,0.6,1.4,0.8c0.5,0.2,1.1,0.3,1.8,0.3
				c0.5,0,1-0.1,1.5-0.2c0.5-0.1,0.9-0.3,1.3-0.5c0.4-0.2,0.7-0.4,1-0.7c0.3-0.3,0.6-0.5,0.8-0.8l0,0l0,0c0,0.4,0,0.7,0.1,1
				c0,0.3,0.1,0.6,0.2,0.9h1.6v-0.1c-0.1-0.2-0.1-0.3-0.2-0.6c-0.1-0.2-0.1-0.4-0.1-0.7c0-0.2-0.1-0.5-0.1-0.7c0-0.2,0-0.5,0-0.7
				v-6.6c0-0.7-0.1-1.4-0.4-1.9c-0.2-0.6-0.6-1-1-1.4c-0.4-0.4-1-0.6-1.6-0.8c-0.6-0.2-1.3-0.3-2-0.3c-0.8,0-1.5,0.1-2.1,0.3
				c-0.6,0.2-1.2,0.5-1.6,0.9c-0.5,0.4-0.8,0.8-1.1,1.3c-0.2,0.5-0.4,1-0.4,1.5l1.5,0c0-0.4,0.1-0.7,0.3-1.1
				c0.2-0.3,0.4-0.6,0.8-0.9c0.3-0.3,0.7-0.5,1.2-0.6c0.4-0.1,0.9-0.2,1.5-0.2c1.2,0,2,0.3,2.6,0.8c0.6,0.6,0.9,1.3,0.9,2.3v1.6
				H198.5z M196.8,70.8c-0.5,0-0.9-0.1-1.3-0.2c-0.4-0.1-0.7-0.3-1-0.6c-0.3-0.2-0.5-0.5-0.6-0.9c-0.1-0.3-0.2-0.7-0.2-1
				c0-0.5,0.1-0.9,0.3-1.3c0.2-0.4,0.6-0.7,1-1c0.4-0.3,0.9-0.5,1.6-0.6c0.6-0.1,1.3-0.2,2.1-0.2h2.6l0,3c-0.2,0.4-0.4,0.7-0.7,1.1
				c-0.3,0.3-0.6,0.6-1,0.9c-0.4,0.2-0.8,0.4-1.3,0.6C197.9,70.7,197.4,70.8,196.8,70.8z M198.7,65.1c-0.8,0-1.5,0.1-2.1,0.2
				c-0.6,0.1-1.1,0.3-1.5,0.6c-0.4,0.3-0.7,0.6-1,0.9c-0.2,0.4-0.3,0.8-0.3,1.3c0,0.4,0.1,0.7,0.2,1c0.1,0.3,0.3,0.6,0.6,0.8
				c0.3,0.2,0.6,0.4,1,0.6c0.4,0.1,0.8,0.2,1.3,0.2c0.5,0,1.1-0.1,1.5-0.2c0.5-0.1,0.9-0.3,1.3-0.6c0.4-0.2,0.7-0.5,1-0.8
				c0.3-0.3,0.5-0.7,0.7-1v-3H198.7z"/>
		</g>
		<g>
			<path class="st1" d="M209.2,69.7l4-11.5h1.6l-5.8,15.9c-0.1,0.3-0.3,0.7-0.4,1c-0.2,0.4-0.4,0.7-0.7,1.1
				c-0.3,0.3-0.7,0.6-1.1,0.9c-0.4,0.2-1,0.3-1.6,0.3c-0.1,0-0.2,0-0.3,0c-0.1,0-0.2,0-0.3,0c-0.1,0-0.2,0-0.3-0.1
				c-0.1,0-0.2,0-0.2-0.1l0-1.3c0.1,0,0.2,0,0.4,0.1c0.2,0,0.3,0,0.4,0c0.4,0,0.8-0.1,1.1-0.2c0.3-0.1,0.6-0.3,0.8-0.5
				c0.2-0.2,0.4-0.5,0.6-0.8c0.2-0.3,0.3-0.7,0.5-1.1l0.7-1.8l-5.2-13.6h1.7L209.2,69.7z"/>
			<path class="st1" d="M205.2,77.4c-0.1,0-0.2,0-0.3,0c-0.1,0-0.2,0-0.3,0c-0.1,0-0.2,0-0.3-0.1c-0.1,0-0.2,0-0.2-0.1l0,0v0l0-1.3
				l0,0c0.1,0,0.2,0,0.4,0.1c0.2,0,0.3,0,0.4,0c0.4,0,0.8-0.1,1.1-0.2c0.3-0.1,0.6-0.3,0.8-0.5c0.2-0.2,0.4-0.5,0.6-0.8
				c0.2-0.3,0.3-0.7,0.5-1.1l0.7-1.8l-5.2-13.6h1.7l0,0l4.2,11.5l4-11.5h1.7l-5.8,15.9c-0.1,0.3-0.3,0.7-0.4,1
				c-0.2,0.4-0.4,0.8-0.7,1.1c-0.3,0.3-0.7,0.6-1.1,0.9C206.4,77.3,205.9,77.4,205.2,77.4z M204.1,77.2c0.1,0,0.1,0,0.2,0.1
				c0.1,0,0.2,0,0.3,0.1c0.1,0,0.2,0,0.3,0c0.1,0,0.2,0,0.3,0c0.6,0,1.1-0.1,1.6-0.3c0.4-0.2,0.8-0.5,1.1-0.8
				c0.3-0.3,0.5-0.7,0.7-1.1c0.2-0.4,0.3-0.7,0.4-1l5.8-15.8h-1.6l-4,11.5l0,0L205,58.2h-1.6l5.1,13.5l0,0l-0.7,1.8
				c-0.1,0.4-0.3,0.8-0.5,1.1c-0.2,0.3-0.4,0.6-0.6,0.8c-0.2,0.2-0.5,0.4-0.8,0.5c-0.3,0.1-0.7,0.2-1.1,0.2c-0.1,0-0.2,0-0.4,0
				c-0.2,0-0.3,0-0.4,0L204.1,77.2z"/>
		</g>
		<g>
			<path class="st1" d="M224.2,71.9c-0.1-0.2-0.1-0.5-0.2-0.9c0-0.3-0.1-0.7-0.1-1c-0.2,0.3-0.5,0.6-0.8,0.8c-0.3,0.3-0.7,0.5-1,0.7
				c-0.4,0.2-0.8,0.3-1.3,0.5c-0.5,0.1-1,0.2-1.5,0.2c-0.7,0-1.3-0.1-1.8-0.3c-0.5-0.2-1-0.5-1.4-0.8c-0.4-0.3-0.7-0.8-0.9-1.2
				c-0.2-0.5-0.3-1-0.3-1.5c0-0.7,0.1-1.3,0.4-1.8c0.3-0.5,0.7-1,1.2-1.4c0.5-0.4,1.2-0.7,2-0.9c0.8-0.2,1.6-0.3,2.6-0.3h2.8v-1.6
				c0-1-0.3-1.7-0.9-2.3c-0.6-0.6-1.5-0.8-2.6-0.8c-0.5,0-1,0.1-1.5,0.2c-0.4,0.1-0.8,0.3-1.2,0.6c-0.3,0.3-0.6,0.5-0.8,0.9
				c-0.2,0.3-0.3,0.7-0.3,1.1l-1.5,0c0-0.5,0.1-1,0.4-1.5c0.3-0.5,0.6-0.9,1.1-1.3c0.5-0.4,1-0.7,1.7-0.9c0.6-0.2,1.4-0.3,2.1-0.3
				c0.7,0,1.4,0.1,2,0.3c0.6,0.2,1.1,0.5,1.6,0.8c0.4,0.4,0.8,0.8,1,1.4c0.2,0.6,0.4,1.2,0.4,1.9V69c0,0.2,0,0.5,0,0.7
				c0,0.3,0,0.5,0.1,0.7c0,0.2,0.1,0.5,0.1,0.7c0.1,0.2,0.1,0.4,0.2,0.6v0.2H224.2z M219.4,70.8c0.5,0,1.1-0.1,1.5-0.2
				c0.5-0.1,0.9-0.3,1.3-0.6c0.4-0.2,0.7-0.5,1-0.9c0.3-0.3,0.5-0.7,0.7-1.1v-3h-2.6c-0.8,0-1.5,0.1-2.1,0.2
				c-0.6,0.1-1.1,0.3-1.5,0.6c-0.4,0.3-0.7,0.6-1,1c-0.2,0.4-0.3,0.8-0.3,1.3c0,0.4,0.1,0.7,0.2,1c0.1,0.3,0.3,0.6,0.6,0.8
				c0.3,0.2,0.6,0.4,1,0.6C218.5,70.7,219,70.8,219.4,70.8z"/>
			<path class="st1" d="M219.3,72.1c-0.7,0-1.3-0.1-1.8-0.3c-0.5-0.2-1-0.5-1.4-0.8c-0.4-0.3-0.7-0.8-0.9-1.2
				c-0.2-0.5-0.3-1-0.3-1.5c0-0.7,0.1-1.3,0.4-1.8c0.3-0.5,0.7-1,1.2-1.4c0.5-0.4,1.2-0.7,2-0.9c0.8-0.2,1.6-0.3,2.6-0.3h2.8v-1.5
				c0-1-0.3-1.7-0.9-2.3c-0.6-0.6-1.5-0.8-2.6-0.8c-0.5,0-1,0.1-1.5,0.2c-0.4,0.1-0.8,0.3-1.2,0.6c-0.3,0.3-0.6,0.5-0.8,0.9
				c-0.2,0.3-0.3,0.7-0.3,1.1v0l0,0l-1.5,0v0c0-0.5,0.1-1,0.4-1.5c0.3-0.5,0.6-0.9,1.1-1.3s1-0.7,1.7-0.9c0.6-0.2,1.4-0.3,2.1-0.3
				c0.7,0,1.4,0.1,2,0.3c0.6,0.2,1.1,0.5,1.6,0.8c0.4,0.4,0.8,0.8,1,1.4c0.2,0.6,0.4,1.2,0.4,2V69c0,0.2,0,0.5,0,0.7
				c0,0.2,0,0.5,0.1,0.7c0,0.2,0.1,0.5,0.1,0.7c0.1,0.2,0.1,0.4,0.2,0.6l0,0v0.2h-1.6l0,0c-0.1-0.2-0.2-0.5-0.2-0.9
				c0-0.3-0.1-0.7-0.1-1c-0.2,0.3-0.5,0.5-0.8,0.8c-0.3,0.3-0.7,0.5-1.1,0.7c-0.4,0.2-0.8,0.4-1.3,0.5
				C220.3,72.1,219.8,72.1,219.3,72.1z M221.1,63.9c-1,0-1.8,0.1-2.6,0.3c-0.8,0.2-1.4,0.5-2,0.9c-0.5,0.4-0.9,0.8-1.2,1.4
				c-0.3,0.5-0.4,1.1-0.4,1.8c0,0.6,0.1,1.1,0.3,1.5c0.2,0.5,0.5,0.9,0.9,1.2c0.4,0.3,0.8,0.6,1.4,0.8c0.5,0.2,1.1,0.3,1.8,0.3
				c0.5,0,1-0.1,1.5-0.2c0.5-0.1,0.9-0.3,1.3-0.5c0.4-0.2,0.7-0.4,1-0.7c0.3-0.3,0.6-0.5,0.8-0.8l0,0l0,0c0,0.4,0,0.7,0.1,1
				c0,0.3,0.1,0.6,0.2,0.9h1.6v-0.1c-0.1-0.2-0.1-0.3-0.2-0.6c-0.1-0.2-0.1-0.4-0.1-0.7c0-0.2-0.1-0.5-0.1-0.7c0-0.2,0-0.5,0-0.7
				v-6.6c0-0.7-0.1-1.4-0.4-1.9c-0.2-0.6-0.6-1-1-1.4c-0.4-0.4-1-0.6-1.6-0.8c-0.6-0.2-1.3-0.3-2-0.3c-0.8,0-1.5,0.1-2.1,0.3
				c-0.6,0.2-1.2,0.5-1.6,0.9c-0.5,0.4-0.8,0.8-1.1,1.3c-0.2,0.5-0.4,1-0.4,1.5l1.5,0c0-0.4,0.1-0.7,0.3-1.1
				c0.2-0.3,0.4-0.6,0.8-0.9c0.3-0.3,0.7-0.5,1.2-0.6c0.4-0.1,0.9-0.2,1.5-0.2c1.2,0,2,0.3,2.6,0.8c0.6,0.6,0.9,1.3,0.9,2.3v1.6
				H221.1z M219.4,70.8c-0.5,0-0.9-0.1-1.3-0.2c-0.4-0.1-0.7-0.3-1-0.6c-0.3-0.2-0.5-0.5-0.6-0.9c-0.1-0.3-0.2-0.7-0.2-1
				c0-0.5,0.1-0.9,0.3-1.3c0.2-0.4,0.6-0.7,1-1c0.4-0.3,0.9-0.5,1.6-0.6c0.6-0.1,1.3-0.2,2.1-0.2h2.6l0,3c-0.2,0.4-0.4,0.7-0.7,1.1
				c-0.3,0.3-0.6,0.6-1,0.9c-0.4,0.2-0.8,0.4-1.3,0.6C220.5,70.7,220,70.8,219.4,70.8z M221.3,65.1c-0.8,0-1.5,0.1-2.1,0.2
				c-0.6,0.1-1.1,0.3-1.5,0.6c-0.4,0.3-0.7,0.6-1,0.9c-0.2,0.4-0.3,0.8-0.3,1.3c0,0.4,0.1,0.7,0.2,1c0.1,0.3,0.3,0.6,0.6,0.8
				c0.3,0.2,0.6,0.4,1,0.6c0.4,0.1,0.8,0.2,1.3,0.2c0.5,0,1.1-0.1,1.5-0.2c0.5-0.1,0.9-0.3,1.3-0.6c0.4-0.2,0.7-0.5,1-0.8
				c0.3-0.3,0.5-0.7,0.7-1v-3H221.3z"/>
		</g>
	</g>
</g>
</svg>
