<?xml version="1.0" encoding="utf-8"?>
<!-- Generator: Adobe Illustrator 24.0.2, SVG Export Plug-In . SVG Version: 6.00 Build 0)  -->
<svg version="1.1" id="Layer_1" xmlns="http://www.w3.org/2000/svg" xmlns:xlink="http://www.w3.org/1999/xlink" x="0px" y="0px"
	 width="300px" height="125px" viewBox="0 0 300 125" style="enable-background:new 0 0 300 125;" xml:space="preserve">
<g>
	<g>
		<g>
			<g>
				<g>
					<path d="M63.2,63.8v8.6h-1.8v-21h7.1c1.1,0,2.2,0.1,3,0.4c0.9,0.3,1.7,0.8,2.2,1.3c0.6,0.6,1,1.2,1.3,2
						c0.3,0.8,0.4,1.7,0.4,2.6c0,1-0.1,1.9-0.4,2.6c-0.3,0.8-0.8,1.4-1.3,1.9c-0.6,0.6-1.3,0.9-2.2,1.2s-1.9,0.4-3.1,0.4H63.2z
						 M63.2,62.3h5.3c0.9,0,1.8-0.1,2.4-0.3s1.2-0.6,1.7-1s0.8-0.9,0.9-1.4c0.2-0.6,0.3-1.2,0.3-1.8c0-0.7-0.1-1.2-0.3-1.9
						c-0.2-0.6-0.6-1.1-0.9-1.6c-0.4-0.4-1-0.8-1.7-1s-1.4-0.3-2.4-0.3h-5.3V62.3z"/>
					<path d="M85.8,58.2C85.5,58,85,58,84.6,58c-0.6,0-1.1,0.1-1.6,0.2c-0.4,0.2-0.9,0.4-1.2,0.8s-0.7,0.7-0.9,1.1
						c-0.2,0.4-0.4,0.9-0.6,1.4v10.8h-1.7V56.7h1.7v2.4c0.4-0.9,1-1.6,1.8-2c0.8-0.4,1.7-0.8,2.7-0.8c0.2,0,0.4,0,0.7,0.1
						c0.2,0,0.3,0.1,0.4,0.1L85.8,58.2z"/>
					<path d="M86.5,64.3c0-1.1,0.1-2.2,0.4-3.1c0.3-1,0.8-1.8,1.4-2.4c0.6-0.7,1.3-1.2,2.2-1.7c0.9-0.4,1.8-0.6,2.9-0.6
						c1.1,0,2,0.2,2.9,0.6c0.9,0.4,1.6,0.9,2.2,1.7c0.6,0.7,1.1,1.6,1.4,2.4c0.3,1,0.4,2,0.4,3.1v0.4c0,1.1-0.1,2.2-0.4,3.1
						c-0.3,1-0.8,1.8-1.4,2.4C98,71,97.3,71.5,96.4,72s-1.8,0.6-2.9,0.6c-1.1,0-2-0.2-2.9-0.6c-0.9-0.4-1.6-0.9-2.2-1.7
						c-0.7-0.7-1.1-1.6-1.4-2.4c-0.3-1-0.4-2-0.4-3.1V64.3z M88.3,64.8c0,0.9,0.1,1.7,0.3,2.4c0.2,0.8,0.6,1.4,1,2s1,1,1.7,1.4
						c0.7,0.3,1.4,0.6,2.2,0.6c0.9,0,1.6-0.2,2.2-0.6s1.2-0.8,1.7-1.4c0.4-0.6,0.8-1.2,1-2c0.2-0.8,0.3-1.6,0.3-2.4v-0.4
						c0-0.9-0.1-1.7-0.3-2.4c-0.2-0.8-0.6-1.4-1-2c-0.4-0.6-1-1.1-1.7-1.4c-0.7-0.3-1.4-0.6-2.2-0.6c-0.9,0-1.6,0.2-2.2,0.6
						c-0.7,0.3-1.2,0.8-1.7,1.4c-0.4,0.6-0.8,1.2-1,2c-0.2,0.8-0.3,1.6-0.3,2.4V64.8z"/>
					<path d="M105.2,56.7v17.5c0,1.4-0.3,2.6-1,3.3s-1.7,1.1-3.1,1.1c-0.2,0-0.4,0-0.8-0.1c-0.2,0-0.6-0.1-0.8-0.2v-1.4
						c0.1,0,0.3,0.1,0.6,0.1s0.4,0.1,0.7,0.1c0.8,0,1.4-0.2,1.9-0.7c0.4-0.4,0.7-1.2,0.7-2.2V56.7H105.2z M103.2,52.1
						c0-0.3,0.1-0.6,0.3-0.8c0.2-0.2,0.4-0.3,0.9-0.3c0.3,0,0.7,0.1,0.9,0.3c0.2,0.2,0.3,0.6,0.3,0.8c0,0.3-0.1,0.6-0.3,0.8
						c-0.2,0.2-0.6,0.3-0.9,0.3s-0.7-0.1-0.9-0.3C103.3,52.8,103.2,52.5,103.2,52.1z"/>
					<path d="M115.4,72.6c-1,0-2-0.2-2.8-0.6c-0.9-0.3-1.6-0.9-2.2-1.6s-1.1-1.4-1.4-2.4c-0.3-0.9-0.6-2-0.6-3.1v-0.7
						c0-1.2,0.2-2.3,0.6-3.2c0.3-1,0.9-1.8,1.4-2.4c0.7-0.7,1.3-1.2,2.1-1.6c0.8-0.3,1.7-0.6,2.6-0.6c1,0,1.9,0.2,2.7,0.6
						c0.8,0.3,1.4,0.9,1.9,1.4c0.6,0.7,0.9,1.4,1.2,2.2c0.2,0.9,0.4,1.8,0.4,2.9v1h-11.1v0.3c0,0.9,0.1,1.7,0.4,2.4
						c0.2,0.8,0.7,1.4,1.1,2c0.4,0.6,1,1,1.7,1.3c0.7,0.3,1.3,0.4,2.2,0.4c0.9,0,1.8-0.2,2.4-0.6c0.7-0.3,1.3-0.9,1.9-1.7l1.1,0.8
						c-0.2,0.3-0.6,0.8-0.9,1.1c-0.3,0.3-0.8,0.7-1.2,0.9c-0.4,0.2-1,0.4-1.6,0.6C116.8,72.6,116.1,72.6,115.4,72.6z M115.1,57.9
						c-0.7,0-1.2,0.1-1.8,0.3s-1,0.6-1.4,1.1c-0.4,0.4-0.8,1-1,1.7c-0.2,0.7-0.4,1.3-0.6,2.1h9.4v-0.1c0-0.7-0.1-1.3-0.3-1.9
						c-0.2-0.6-0.4-1.1-0.9-1.7c-0.3-0.4-0.8-0.9-1.3-1.1C116.4,58,115.9,57.9,115.1,57.9z"/>
					<path d="M129.7,71.2c0.6,0,1.1-0.1,1.6-0.2c0.6-0.1,1-0.4,1.3-0.7c0.4-0.3,0.7-0.7,1-1.1c0.2-0.4,0.4-1,0.4-1.6h1.7
						c0,0.8-0.2,1.4-0.6,2c-0.3,0.7-0.8,1.1-1.3,1.7c-0.6,0.4-1.2,0.8-1.9,1.1c-0.7,0.2-1.4,0.3-2.2,0.3c-1.1,0-2.1-0.2-2.9-0.6
						c-0.8-0.4-1.6-1-2.1-1.7s-1-1.6-1.2-2.4c-0.3-1-0.4-2-0.4-3.1v-0.6c0-1.1,0.1-2.1,0.4-3.1c0.3-1,0.7-1.8,1.2-2.4
						c0.6-0.7,1.2-1.2,2.1-1.7c0.8-0.4,1.8-0.6,2.9-0.6c0.9,0,1.7,0.1,2.3,0.4c0.7,0.2,1.3,0.7,1.9,1.1c0.6,0.4,1,1.1,1.2,1.8
						c0.3,0.7,0.4,1.4,0.6,2.3H134c0-0.7-0.2-1.2-0.4-1.7c-0.2-0.6-0.6-0.9-0.9-1.3c-0.4-0.3-0.9-0.7-1.3-0.8
						c-0.6-0.2-1.1-0.3-1.7-0.3c-0.9,0-1.7,0.2-2.2,0.6c-0.7,0.3-1.1,0.8-1.6,1.4c-0.4,0.6-0.7,1.2-0.9,2c-0.2,0.8-0.2,1.6-0.2,2.3
						v0.6c0,0.9,0.1,1.7,0.2,2.4c0.2,0.8,0.4,1.4,0.9,2c0.4,0.6,0.9,1,1.6,1.4C128,71.1,128.8,71.2,129.7,71.2z"/>
					<path d="M141.1,52.7v4h3.2v1.4h-3.2v10.5c0,0.6,0,1,0.1,1.3c0.1,0.3,0.2,0.6,0.4,0.8c0.2,0.2,0.4,0.3,0.7,0.3
						c0.2,0.1,0.6,0.1,0.8,0.1c0.2,0,0.6,0,0.8,0c0.2,0,0.4-0.1,0.7-0.1l0.1,1.4c-0.2,0.1-0.4,0.1-0.8,0.2c-0.3,0-0.7,0.1-1,0.1
						c-0.4,0-1-0.1-1.3-0.2c-0.4-0.1-0.8-0.3-1.1-0.7c-0.3-0.3-0.6-0.8-0.7-1.2c-0.2-0.6-0.2-1.2-0.2-2V58.3h-2.9v-1.4h2.9v-4h1.6
						V52.7z"/>
					<path d="M155.8,70.8h10.4v1.6h-12.2v-21h1.8v19.5H155.8z"/>
					<path d="M178.4,72.4c-0.1-0.2-0.2-0.6-0.2-1s-0.1-0.8-0.1-1.2c-0.2,0.3-0.6,0.7-0.9,1c-0.3,0.3-0.8,0.6-1.2,0.8
						c-0.4,0.2-0.9,0.4-1.4,0.6c-0.6,0.1-1.1,0.2-1.7,0.2c-0.8,0-1.4-0.1-2.1-0.3c-0.7-0.2-1.1-0.6-1.6-0.9c-0.4-0.4-0.8-0.9-1-1.4
						c-0.2-0.6-0.3-1.1-0.3-1.8c0-0.8,0.1-1.4,0.4-2.1c0.3-0.6,0.8-1.1,1.4-1.6s1.3-0.8,2.2-1c0.9-0.2,1.9-0.3,3-0.3h3.2v-1.8
						c0-1.1-0.3-2-1-2.7c-0.7-0.7-1.7-1-3-1c-0.6,0-1.1,0.1-1.7,0.2c-0.6,0.1-1,0.4-1.3,0.7c-0.3,0.3-0.7,0.7-0.9,1
						c-0.2,0.3-0.3,0.8-0.3,1.2h-1.8c0-0.6,0.1-1.1,0.4-1.7c0.3-0.6,0.7-1,1.2-1.4c0.6-0.4,1.1-0.8,1.9-1s1.6-0.4,2.4-0.4
						c0.8,0,1.6,0.1,2.3,0.3c0.7,0.2,1.3,0.6,1.8,1c0.6,0.4,0.9,1,1.2,1.6c0.3,0.7,0.4,1.3,0.4,2.2v7.6c0,0.2,0,0.6,0,0.9
						s0,0.6,0.1,0.9c0,0.2,0.1,0.6,0.1,0.8c0.1,0.2,0.1,0.4,0.2,0.7v0.2h-2V72.4z M173,71.2c0.7,0,1.2-0.1,1.8-0.2
						c0.6-0.1,1-0.3,1.4-0.7c0.4-0.3,0.8-0.6,1.1-1c0.3-0.3,0.6-0.8,0.8-1.2v-3.5h-3c-0.9,0-1.7,0.1-2.3,0.2
						c-0.7,0.1-1.3,0.3-1.8,0.7c-0.4,0.3-0.9,0.7-1.1,1.1c-0.2,0.4-0.3,0.9-0.3,1.4c0,0.4,0.1,0.8,0.2,1.2c0.1,0.3,0.4,0.7,0.7,1
						c0.3,0.2,0.7,0.4,1.1,0.7C172,71.1,172.4,71.2,173,71.2z"/>
					<path d="M188.3,70l4.8-13.2h1.8l-5.8,15.7h-1.4l-5.9-15.7h1.8L188.3,70z"/>
					<path d="M196.8,52.1c0-0.3,0.1-0.6,0.3-0.8c0.2-0.2,0.6-0.3,0.9-0.3c0.3,0,0.7,0.1,0.9,0.3c0.2,0.2,0.3,0.6,0.3,0.8
						c0,0.3-0.1,0.6-0.3,0.8c-0.2,0.2-0.6,0.3-0.9,0.3c-0.3,0-0.7-0.1-0.9-0.3C196.9,52.8,196.8,52.5,196.8,52.1z M198.9,72.4h-1.8
						V56.7h1.8V72.4z"/>
					<path d="M204.5,56.7l0.1,2.7c0.2-0.4,0.6-0.9,0.9-1.2c0.3-0.3,0.8-0.7,1.2-0.9c0.4-0.2,0.9-0.4,1.4-0.6c0.6-0.1,1-0.2,1.6-0.2
						c0.8,0,1.4,0.1,2.1,0.3c0.7,0.2,1.1,0.6,1.6,1s0.8,1.1,1,1.8c0.2,0.8,0.3,1.6,0.3,2.7v10.1H213V62.2c0-0.8-0.1-1.4-0.2-2
						c-0.2-0.6-0.4-1-0.8-1.3c-0.3-0.3-0.7-0.6-1.1-0.7s-1-0.2-1.6-0.2c-0.7,0-1.2,0.1-1.7,0.3c-0.6,0.2-0.9,0.4-1.3,0.8
						c-0.3,0.3-0.7,0.8-1,1.2s-0.6,0.9-0.7,1.3v10.7H203V56.7H204.5z"/>
					<path d="M228.2,72.4c-0.1-0.2-0.2-0.6-0.2-1s-0.1-0.8-0.1-1.2c-0.2,0.3-0.6,0.7-0.9,1c-0.3,0.3-0.8,0.6-1.2,0.8
						c-0.4,0.2-0.9,0.4-1.4,0.6c-0.6,0.1-1.1,0.2-1.7,0.2c-0.8,0-1.4-0.1-2.1-0.3c-0.7-0.2-1.1-0.6-1.6-0.9c-0.4-0.4-0.8-0.9-1-1.4
						c-0.2-0.6-0.3-1.1-0.3-1.8c0-0.8,0.1-1.4,0.4-2.1c0.3-0.6,0.8-1.1,1.4-1.6c0.7-0.4,1.3-0.8,2.2-1c0.9-0.2,1.9-0.3,3-0.3h3.2
						v-1.8c0-1.1-0.3-2-1-2.7c-0.7-0.7-1.7-1-3-1c-0.6,0-1.1,0.1-1.7,0.2c-0.6,0.1-1,0.4-1.3,0.7c-0.3,0.3-0.7,0.7-0.9,1
						c-0.2,0.3-0.3,0.8-0.3,1.2h-1.8c0-0.6,0.1-1.1,0.4-1.7c0.3-0.6,0.7-1,1.2-1.4c0.6-0.4,1.1-0.8,1.9-1s1.6-0.4,2.4-0.4
						c0.8,0,1.6,0.1,2.3,0.3c0.7,0.2,1.3,0.6,1.8,1c0.6,0.4,0.9,1,1.2,1.6c0.3,0.7,0.4,1.3,0.4,2.2v7.6c0,0.2,0,0.6,0,0.9
						s0,0.6,0.1,0.9c0,0.2,0.1,0.6,0.1,0.8c0.1,0.2,0.1,0.4,0.2,0.7v0.2h-2V72.4z M222.8,71.2c0.7,0,1.2-0.1,1.8-0.2
						c0.6-0.1,1-0.3,1.4-0.7c0.4-0.3,0.8-0.6,1.1-1c0.3-0.3,0.6-0.8,0.8-1.2v-3.5h-3c-0.9,0-1.7,0.1-2.3,0.2
						c-0.7,0.1-1.3,0.3-1.8,0.7c-0.4,0.3-0.9,0.7-1.1,1.1c-0.2,0.4-0.3,0.9-0.3,1.4c0,0.4,0.1,0.8,0.2,1.2c0.1,0.3,0.4,0.7,0.7,1
						c0.3,0.2,0.7,0.4,1.1,0.7C221.7,71.1,222.3,71.2,222.8,71.2z"/>
				</g>
			</g>
		</g>
	</g>
	<path d="M33.3,45.2c-9.5,0-17.3,7.7-17.3,17.3c0,2.3,0.4,4.6,1.3,6.7c0.3,0.8,0.8,1.7,1.2,2.3c3,5,8.5,8.2,14.7,8.2
		s11.7-3.3,14.8-8.2c0.4-0.8,0.9-1.6,1.2-2.3c0.9-2,1.3-4.3,1.3-6.7C50.6,52.9,42.8,45.2,33.3,45.2z M33.3,77.5c-4.9,0-9.4-2.3-12-6
		l3.1-4.3c0.2-0.4,0.9-0.4,1.1,0l1.7,2.3c0.2,0.4,0.9,0.4,1.1,0l3.6-5.1c0.2-0.4,0.9-0.4,1.1,0l4,5.7c0.7,0.9,1.7,1.4,2.8,1.4h5.7
		C42.6,75.2,38.3,77.5,33.3,77.5z M42.9,60.1c-0.4-0.7-1.4-0.7-1.9,0l-2.6,3.6c-0.4,0.7-1.4,0.7-1.9,0l-6.8-9.7
		c-0.4-0.7-1.4-0.7-1.9,0l-9,12.9c-0.4-1.4-0.7-2.9-0.7-4.5c0-8.2,6.8-14.9,15-14.9c8.3,0,15.1,6.7,15.1,15c0,1.6-0.2,3-0.7,4.5
		L42.9,60.1z"/>
</g>
</svg>
