<?xml version="1.0" encoding="utf-8"?>
<!-- Generator: Adobe Illustrator 23.0.6, SVG Export Plug-In . SVG Version: 6.00 Build 0)  -->
<svg version="1.1" id="Layer_1" xmlns="http://www.w3.org/2000/svg" xmlns:xlink="http://www.w3.org/1999/xlink" x="0px" y="0px"
	 width="300px" height="125px" viewBox="0 0 300 125" style="enable-background:new 0 0 300 125;" xml:space="preserve">
<style type="text/css">
	.st0{fill:#231F20;}
	.st1{fill:#0B0204;}
	.st2{fill:#808184;}
	.st3{fill:#FFFFFF;}
</style>
<g>
	<g>
		<rect x="131.8" y="27.5" width="1.2" height="70"/>
		<g>
			<path d="M49,53.7l-0.2-0.5c-0.1-0.2-0.2-0.6,0.5-0.6h0.8h1.4c0.4,0,0.4,0.4,0.5,0.5l3.7,10.8c0,0,0.3,0.9,0.5,0.9
				s0.6-0.9,0.6-0.9L60.5,53c0.1-0.2,0.1-0.5,0.6-0.5h2.1c0.6,0,0.6,0.4,0.5,0.5l-0.1,0.6l-6.4,18.6c-0.1,0.6-1.7,0.6-1.8,0L49,53.7
				z"/>
			<path d="M101.9,72.7L95.2,53c-0.1-0.2-0.1-0.5,0.5-0.5h2.5c0.2,0,0.4,0.1,0.5,0.5c0,0,4.3,12.9,4.4,13.3c0.2,0.5,0.3,0.9,0.5,1
				c0.2,0,0.4-0.4,0.5-0.7c0.2-0.5,5.2-13.5,5.2-13.5c0.1-0.2,0.1-0.3,0.2-0.4c0.1-0.1,0.2-0.1,0.3-0.1h1.6h0.9
				c0.6,0,0.6,0.4,0.5,0.5l-9,23l-2.2,5.4c-0.1,0.2-0.1,0.3-0.2,0.4c0,0.1-0.1,0.1-0.3,0.1h-2.2c-0.2,0-0.3,0-0.5-0.1
				c-0.1-0.1-0.1-0.2,0-0.4L101.9,72.7"/>
			<path d="M62.8,64.1c0-0.5,0.2-0.9,0.5-1.2c0.4-0.4,0.8-0.5,1.3-0.5c0.5,0,0.9,0.2,1.2,0.5c0.4,0.4,0.5,0.8,0.5,1.2
				c0,0.5-0.2,0.9-0.5,1.3c-0.4,0.3-0.8,0.5-1.2,0.5c-0.5,0-0.9-0.2-1.3-0.5C63,65.1,62.8,64.7,62.8,64.1z"/>
			<path d="M74.7,55.8c-0.4,0.2-0.8,0.5-1.1,0.7c-0.1,0.1-0.2,0.1-0.3,0.2L73,57c-0.3,0.4-0.5,0.8-0.7,1.2C72.1,58.7,72,59.3,72,60
				v12c0,0.4-0.2,0.5-0.5,0.5h-2c-0.4,0-0.5-0.2-0.5-0.5V60c0-0.5,0-0.9,0.1-1.4c0.1-0.5,0.3-1.1,0.5-1.5c0.4-0.9,0.9-1.8,1.6-2.4
				c0.7-0.7,1.5-1.2,2.3-1.6c0.5-0.2,1-0.4,1.5-0.5c0.3-0.1,0.6-0.1,0.9-0.1h0.6c4.1-0.1,6,2.5,6.5,2.9c0.2,0.2,0.3,0.7-0.1,0.8
				l-1.8,0.5c-0.5,0.2-0.8,0.1-1.2-0.2C79.7,56.3,77.4,54.7,74.7,55.8z"/>
			<path d="M94.1,57.1c-0.4-0.9-0.9-1.7-1.6-2.4c-0.7-0.7-3.1-2.7-8.1-1.9c-0.5,0.2-0.4,0.5,0.1,1c0.2,0.2,1,1.1,1.3,1.3
				c0.6,0.5,0.9,0.4,1.1,0.4c4.4-0.2,4.8,3.8,4.8,4.5v0.1c-0.1,0.2-0.2,0.4-0.5,0.4h-4.8c-0.8,0-1.6,0.1-2.3,0.5
				c-0.7,0.3-1.4,0.7-1.9,1.3c-0.6,0.5-1,1.2-1.3,1.9c-0.3,0.7-0.5,1.5-0.5,2.3c0,0.8,0.1,1.6,0.5,2.3c0.3,0.7,0.7,1.4,1.3,1.9
				s1.2,1,1.9,1.3c0.7,0.3,1.5,0.5,2.3,0.5H92h0.1h2c0.4,0,0.5-0.2,0.5-0.5V60C94.6,59,94.4,58,94.1,57.1z M91.6,69.5h-5.3
				c-0.8,0-3-0.5-3-3c0-0.9,0.4-1.8,0.9-2.2c1-0.9,2.1-0.8,2.1-0.8h4.8c0.3,0,0.4,0.1,0.5,0.4L91.6,69.5L91.6,69.5z"/>
		</g>
		<path d="M30.9,47.6c-8.2,0-14.9,6.7-14.9,14.9s6.7,14.9,14.9,14.9s14.9-6.7,14.9-14.9C45.8,54.3,39.1,47.6,30.9,47.6z M24.8,50.9
			c1-1.1,2.7-2,5-2.2c0.4,0,0.7-0.1,1.1-0.1c3.7,0,7.1,1.6,9.6,4.1c-0.4-0.1-0.8-0.3-1.7-0.3c-7.4,0-9.8,14.5-12,14.5
			C25.2,66.9,20.2,55.9,24.8,50.9z M30.9,75.1c-7.4,0-13.3-6-13.3-13.3c0-4.3,2-8.1,5.2-10.5c-5.3,6,0.6,18.9,4.1,19.3
			c4.3,0.3,5.9-13.2,10.9-15c3.7-1.4,6.6,4.2,4.9,10.6C40.9,71.6,36.5,75,30.9,75.1z M31.2,52.2c2.1,0,3.8-0.5,3.8-1.2
			c0-0.7-1.7-1.2-3.8-1.2s-3.8,0.5-3.8,1.2C27.4,51.7,29.1,52.2,31.2,52.2z"/>
	</g>
	<g>
		<path d="M158.5,63.1l-2.6,2.6v6.7h-1.6V53.8h1.6v10.1l2.6-2.7l7-7.4h2l-7.9,8.3l8.4,10.4h-1.9L158.5,63.1z"/>
		<path d="M178.6,72.4c-0.1-0.2-0.1-0.5-0.2-0.9c0-0.4-0.1-0.7-0.1-1.1c-0.2,0.3-0.5,0.6-0.8,0.8c-0.3,0.3-0.7,0.5-1.1,0.7
			c-0.4,0.2-0.8,0.4-1.3,0.5c-0.5,0.1-1,0.2-1.5,0.2c-0.7,0-1.3-0.1-1.9-0.3c-0.6-0.2-1-0.5-1.4-0.8c-0.4-0.4-0.7-0.8-0.9-1.3
			c-0.2-0.5-0.3-1-0.3-1.6c0-0.7,0.1-1.3,0.4-1.8c0.3-0.6,0.7-1,1.3-1.4c0.6-0.4,1.2-0.7,2-0.9c0.8-0.2,1.6-0.3,2.6-0.3h2.8v-1.6
			c0-1-0.3-1.8-0.9-2.3c-0.6-0.6-1.5-0.8-2.7-0.8c-0.5,0-1.1,0.1-1.5,0.2c-0.5,0.1-0.8,0.4-1.2,0.6c-0.3,0.2-0.6,0.6-0.8,0.9
			c-0.2,0.4-0.3,0.7-0.3,1.1h-1.5c0-0.5,0.1-1,0.4-1.5c0.2-0.5,0.6-0.9,1.1-1.3c0.5-0.4,1-0.7,1.7-0.9c0.7-0.2,1.4-0.4,2.2-0.4
			c0.7,0,1.4,0.1,2,0.3s1.2,0.5,1.6,0.8c0.5,0.4,0.8,0.8,1.1,1.4c0.2,0.6,0.4,1.2,0.4,2v6.7c0,0.2,0,0.5,0,0.7c0,0.2,0,0.5,0.1,0.7
			s0.1,0.5,0.1,0.7c0.1,0.2,0.1,0.4,0.2,0.6v0.1L178.6,72.4L178.6,72.4L178.6,72.4z M173.8,71.3c0.6,0,1.1-0.1,1.5-0.2
			c0.5-0.1,0.9-0.4,1.3-0.6s0.7-0.5,1-0.9c0.3-0.3,0.5-0.7,0.7-1.1v-3h-2.6c-0.8,0-1.5,0.1-2.1,0.2c-0.6,0.1-1.2,0.4-1.6,0.6
			c-0.4,0.3-0.8,0.6-1,1c-0.2,0.4-0.4,0.8-0.4,1.3c0,0.4,0.1,0.7,0.2,1.1c0.1,0.3,0.4,0.6,0.6,0.9s0.6,0.4,1,0.6
			C172.9,71.2,173.3,71.3,173.8,71.3z"/>
		<path d="M185.7,55v3.5h2.9v1.3h-2.9V69c0,0.5,0,0.9,0.1,1.2c0.1,0.3,0.2,0.5,0.4,0.7c0.2,0.2,0.4,0.3,0.6,0.4
			c0.2,0.1,0.5,0.1,0.7,0.1c0.2,0,0.5,0,0.7,0c0.2,0,0.4-0.1,0.6-0.1l0.1,1.3c-0.2,0.1-0.4,0.1-0.7,0.2c-0.3,0-0.6,0.1-0.9,0.1
			c-0.4,0-0.8-0.1-1.2-0.2c-0.4-0.1-0.7-0.3-0.9-0.6c-0.2-0.3-0.5-0.7-0.6-1.1c-0.1-0.5-0.2-1.1-0.2-1.8v-9.2h-2.6v-1.3h2.6v-3.5
			L185.7,55L185.7,55z"/>
		<path d="M199.8,72.4c-0.1-0.2-0.1-0.5-0.2-0.9c0-0.4-0.1-0.7-0.1-1.1c-0.2,0.3-0.5,0.6-0.8,0.8c-0.3,0.3-0.7,0.5-1.1,0.7
			c-0.4,0.2-0.8,0.4-1.3,0.5c-0.5,0.1-1,0.2-1.5,0.2c-0.7,0-1.3-0.1-1.9-0.3c-0.6-0.2-1-0.5-1.4-0.8c-0.4-0.4-0.7-0.8-0.9-1.3
			c-0.2-0.5-0.3-1-0.3-1.6c0-0.7,0.1-1.3,0.4-1.8c0.3-0.6,0.7-1,1.3-1.4c0.6-0.4,1.2-0.7,2-0.9c0.8-0.2,1.6-0.3,2.6-0.3h2.8v-1.6
			c0-1-0.3-1.8-0.9-2.3c-0.6-0.6-1.5-0.8-2.7-0.8c-0.5,0-1.1,0.1-1.5,0.2c-0.5,0.1-0.8,0.4-1.2,0.6c-0.3,0.2-0.6,0.6-0.8,0.9
			c-0.2,0.4-0.3,0.7-0.3,1.1h-1.5c0-0.5,0.1-1,0.4-1.5c0.2-0.5,0.6-0.9,1.1-1.3c0.5-0.4,1-0.7,1.7-0.9c0.7-0.2,1.4-0.4,2.2-0.4
			c0.7,0,1.4,0.1,2,0.3s1.2,0.5,1.6,0.8c0.5,0.4,0.8,0.8,1.1,1.4c0.2,0.6,0.4,1.2,0.4,2v6.7c0,0.2,0,0.5,0,0.7c0,0.2,0,0.5,0.1,0.7
			s0.1,0.5,0.1,0.7c0.1,0.2,0.1,0.4,0.2,0.6v0.1L199.8,72.4L199.8,72.4L199.8,72.4z M195,71.3c0.6,0,1.1-0.1,1.5-0.2
			c0.5-0.1,0.9-0.4,1.3-0.6c0.4-0.2,0.7-0.5,1-0.9c0.3-0.3,0.5-0.7,0.7-1.1v-3h-2.6c-0.8,0-1.5,0.1-2.1,0.2
			c-0.6,0.1-1.2,0.4-1.6,0.6c-0.4,0.3-0.8,0.6-1,1c-0.2,0.4-0.4,0.8-0.4,1.3c0,0.4,0.1,0.7,0.2,1.1c0.1,0.3,0.4,0.6,0.6,0.9
			s0.6,0.4,1,0.6C194.1,71.2,194.5,71.3,195,71.3z"/>
		<path d="M205.9,58.6l0,2.4c0.2-0.4,0.5-0.7,0.8-1.1c0.3-0.3,0.7-0.6,1.1-0.8c0.4-0.2,0.8-0.4,1.3-0.5c0.5-0.1,0.9-0.2,1.4-0.2
			c0.7,0,1.3,0.1,1.9,0.3s1,0.5,1.4,0.9c0.4,0.4,0.7,0.9,0.9,1.6s0.3,1.4,0.3,2.3v9h-1.5v-9c0-0.7-0.1-1.3-0.2-1.8
			c-0.1-0.5-0.4-0.9-0.7-1.2c-0.3-0.3-0.6-0.5-1-0.6c-0.4-0.1-0.8-0.2-1.4-0.2c-0.6,0-1.1,0.1-1.5,0.3c-0.5,0.2-0.8,0.4-1.2,0.7
			c-0.4,0.3-0.6,0.7-0.9,1.1c-0.2,0.4-0.5,0.8-0.6,1.2v9.5h-1.5V58.6L205.9,58.6L205.9,58.6L205.9,58.6z"/>
		<path d="M227,72.4c-0.1-0.2-0.1-0.5-0.2-0.9c0-0.4-0.1-0.7-0.1-1.1c-0.2,0.3-0.5,0.6-0.8,0.8c-0.3,0.3-0.7,0.5-1.1,0.7
			c-0.4,0.2-0.8,0.4-1.3,0.5c-0.5,0.1-1,0.2-1.5,0.2c-0.7,0-1.3-0.1-1.9-0.3c-0.6-0.2-1-0.5-1.4-0.8c-0.4-0.4-0.7-0.8-0.9-1.3
			c-0.2-0.5-0.3-1-0.3-1.6c0-0.7,0.1-1.3,0.4-1.8c0.3-0.6,0.7-1,1.3-1.4c0.6-0.4,1.2-0.7,2-0.9c0.8-0.2,1.6-0.3,2.6-0.3h2.8v-1.6
			c0-1-0.3-1.8-0.9-2.3c-0.6-0.6-1.5-0.8-2.7-0.8c-0.5,0-1.1,0.1-1.5,0.2c-0.5,0.1-0.8,0.4-1.2,0.6c-0.3,0.2-0.6,0.6-0.8,0.9
			c-0.2,0.4-0.3,0.7-0.3,1.1h-1.5c0-0.5,0.1-1,0.4-1.5s0.6-0.9,1.1-1.3c0.5-0.4,1-0.7,1.7-0.9c0.7-0.2,1.4-0.4,2.2-0.4
			c0.7,0,1.4,0.1,2,0.3s1.2,0.5,1.6,0.8c0.5,0.4,0.8,0.8,1.1,1.4c0.2,0.6,0.4,1.2,0.4,2v6.7c0,0.2,0,0.5,0,0.7s0,0.5,0.1,0.7
			c0,0.2,0.1,0.5,0.1,0.7c0.1,0.2,0.1,0.4,0.2,0.6v0.1L227,72.4L227,72.4L227,72.4z M222.2,71.3c0.6,0,1.1-0.1,1.5-0.2
			c0.5-0.1,0.9-0.4,1.3-0.6s0.7-0.5,1-0.9c0.3-0.3,0.5-0.7,0.7-1.1v-3H224c-0.8,0-1.5,0.1-2.1,0.2c-0.6,0.1-1.2,0.4-1.6,0.6
			c-0.4,0.3-0.8,0.6-1,1s-0.4,0.8-0.4,1.3c0,0.4,0.1,0.7,0.2,1.1c0.1,0.3,0.4,0.6,0.6,0.9s0.6,0.4,1,0.6
			C221.2,71.2,221.7,71.3,222.2,71.3z"/>
	</g>
</g>
</svg>
