<?xml version="1.0" encoding="UTF-8"?>
<svg width="267px" height="130px" viewBox="0 0 267 130" version="1.1" xmlns="http://www.w3.org/2000/svg" xmlns:xlink="http://www.w3.org/1999/xlink">
    <!-- Generator: Sketch 53.2 (72643) - https://sketchapp.com -->
    <title>v-ray for benchmark</title>
    <desc>Created with Sketch.</desc>
    <g id="v-ray-for-benchmark" stroke="none" stroke-width="1" fill="none" fill-rule="evenodd">
        <rect id="Rectangle-Copy-7" stroke="#FFFFFF" x="-0.5" y="-0.5" width="267.25" height="131"></rect>
        <g id="Group-33" transform="translate(73.000000, 45.000000)" fill="#000000">
            <polygon id="Fill-1" points="66.2961194 39.8175124 66.9731343 39.8175124 66.9731343 0 66.2961194 0"></polygon>
            <g id="Group-32" transform="translate(0.000000, 11.359801)">
                <path d="M18.793791,3.4921194 L18.6743881,3.21351244 C18.6345871,3.09391045 18.5549851,2.85510448 18.953194,2.85510448 L19.431005,2.85510448 L20.2272239,2.85510448 C20.4264279,2.85510448 20.4662289,3.05410945 20.5060299,3.13371144 L22.6162786,9.26565174 C22.6162786,9.26565174 22.7756816,9.82306468 22.9348856,9.82306468 C23.0940896,9.82306468 23.2534925,9.26565174 23.2534925,9.26565174 L25.3239403,3.13371144 C25.3637413,3.01430846 25.4035423,2.85510448 25.6823483,2.85510448 L26.8767761,2.85510448 C27.1953831,2.85510448 27.1953831,3.05410945 27.1555821,3.13371144 L27.0361791,3.45231841 L23.3728955,14.0437612 C23.2930945,14.3623682 22.4172736,14.3623682 22.3376716,14.0437612 L18.793791,3.4921194 Z" id="Fill-2"></path>
                <path d="M48.8561791,14.3623682 L45.0734925,3.09391045 C45.0336915,2.97450746 45.0336915,2.81530348 45.3522985,2.81530348 L46.7459303,2.81530348 C46.8651343,2.81530348 46.9847363,2.89490547 47.0245373,3.09391045 C47.0245373,3.09391045 49.453393,10.4202786 49.532995,10.6592836 C49.652398,10.9380896 49.692199,11.2166965 49.851602,11.2166965 C49.971005,11.2166965 50.050607,11.0174925 50.130209,10.7786866 C50.2498109,10.4602786 53.0766766,3.09391045 53.0766766,3.09391045 C53.1164776,2.97450746 53.1164776,2.93470647 53.1962786,2.89490547 C53.2360796,2.85510448 53.3156816,2.81530348 53.3554826,2.81530348 L54.2713035,2.81530348 L54.8287164,2.81530348 C55.1869254,2.81530348 55.1471244,3.01430846 55.1075224,3.09391045 L50.010806,16.1938109 L48.7365771,19.2598806 C48.6967761,19.3792836 48.6569751,19.4190846 48.6171741,19.4588856 C48.5773731,19.5386866 48.5375721,19.5386866 48.4579701,19.5386866 L47.1837413,19.5386866 C47.0643383,19.5386866 47.0245373,19.4988856 46.9449353,19.4588856 C46.9049353,19.4190846 46.9049353,19.3394826 46.9049353,19.2598806 L48.8561791,14.3623682" id="Fill-4"></path>
                <path d="M26.6379701,9.46479602 C26.6379701,9.18618905 26.7573731,8.94698507 26.9165771,8.7479801 C27.1155821,8.54877612 27.3547861,8.42957214 27.633393,8.42957214 C27.912,8.42957214 28.151005,8.54877612 28.350209,8.7479801 C28.5492139,8.94698507 28.6686169,9.18618905 28.6686169,9.46479602 C28.6686169,9.74340299 28.5492139,9.98240796 28.350209,10.1816119 C28.151005,10.3406169 27.912,10.4602189 27.633393,10.4602189 C27.3547861,10.4602189 27.1155821,10.3406169 26.9165771,10.1816119 C26.7175721,10.022209 26.6379701,9.78340299 26.6379701,9.46479602" id="Fill-6"></path>
                <path d="M33.4068657,4.76620896 C33.1680597,4.88581095 32.9688557,5.04501493 32.7698507,5.16441791 C32.7300498,5.20421891 32.6502488,5.2440199 32.6106468,5.2840199 L32.4512438,5.40322388 C32.2918408,5.60242786 32.1328358,5.84123383 32.0530348,6.08043781 C31.8938308,6.39884577 31.8540299,6.71745274 31.8540299,7.07566169 L31.8540299,13.9244179 C31.8540299,14.1234229 31.7346269,14.2030249 31.5754229,14.2030249 L30.460398,14.2030249 C30.261194,14.2030249 30.181791,14.0834229 30.181791,13.9244179 L30.181791,7.07566169 C30.181791,6.79685572 30.221393,6.55804975 30.261194,6.27944279 C30.340995,5.96083582 30.420597,5.68222886 30.54,5.40322388 C30.779005,4.88581095 31.0576119,4.407801 31.4558209,4.00979104 C31.8142289,3.61158209 32.2918408,3.29317413 32.8096517,3.09397015 C33.0882587,2.97456716 33.3670647,2.89496517 33.6458706,2.81516418 C33.8050746,2.77536318 34.0040796,2.73556219 34.1634826,2.73556219 L34.4818905,2.73556219 C36.7913433,2.6559602 37.8663682,4.12919403 38.1849751,4.407801 C38.3443781,4.52740299 38.3443781,4.80600995 38.1453731,4.88581095 L37.1099502,5.16441791 C36.8311443,5.2840199 36.6321393,5.2440199 36.4329353,5.04501493 C36.2737313,5.04501493 34.9599005,4.08939303 33.4068657,4.76620896" id="Fill-8"></path>
                <path d="M43.0426667,12.5705473 L40.016597,12.5705473 C39.5389851,12.5307463 38.3043582,12.2519403 38.3043582,10.8583085 C38.3043582,10.3406965 38.5033632,9.86308458 38.8221692,9.6238806 C39.3795821,9.10646766 40.056398,9.14626866 40.056398,9.14626866 L42.8038607,9.14626866 C42.9632637,9.14626866 43.0426667,9.22567164 43.0824677,9.38507463 L43.0426667,12.5705473 Z M44.3964975,5.48298507 C44.1576915,4.96537313 43.8390846,4.48756219 43.4806766,4.12915423 C43.1222687,3.77074627 41.7286368,2.6161194 38.8617711,3.05412935 C38.5831642,3.17353234 38.6229652,3.33273632 38.9015721,3.61154229 C39.0211741,3.73094527 39.4591841,4.24875622 39.6581891,4.3679602 C39.976796,4.64696517 40.176,4.56716418 40.295204,4.56716418 C42.8436617,4.44776119 43.0426667,6.75721393 43.0426667,7.11562189 L43.0426667,7.19502488 C43.0028657,7.31462687 42.8834627,7.39422886 42.7640597,7.39422886 L40.056398,7.39422886 C39.6183881,7.39422886 39.1407761,7.47402985 38.7425672,7.67303483 C38.3043582,7.8320398 37.9859502,8.11104478 37.6275423,8.38965174 C37.3089353,8.70825871 37.0701294,9.06666667 36.8709254,9.46487562 C36.7119204,9.86308458 36.5923184,10.3406965 36.5923184,10.7787065 C36.5923184,11.2565174 36.6719204,11.6945274 36.8709254,12.0927363 C37.0303284,12.5307463 37.3089353,12.8491542 37.6275423,13.2075622 C37.9461493,13.5261692 38.3043582,13.7649751 38.7425672,13.9243781 C39.1805771,14.0835821 39.5785871,14.2029851 40.056398,14.2029851 L43.2816716,14.2029851 L43.3612736,14.2029851 L44.5159005,14.2029851 C44.7151045,14.2029851 44.7947065,14.0835821 44.7947065,13.9243781 L44.7947065,7.11562189 C44.7549055,6.55800995 44.6355025,5.96079602 44.3964975,5.48298507 L44.3964975,5.48298507 Z" id="Fill-10"></path>
                <path d="M8.68029851,2.69570149 C9.87472637,2.69570149 10.8303483,2.37709453 10.8303483,2.01888557 C10.8701493,1.66047761 9.87472637,1.34187065 8.68029851,1.34187065 C7.48567164,1.34187065 6.53004975,1.66047761 6.49024876,2.01888557 C6.53004975,2.37709453 7.48567164,2.69570149 8.68029851,2.69570149 M8.48109453,15.756 C4.300199,15.756 0.915721393,12.3713234 0.915721393,8.19042786 C0.915721393,5.76157214 2.07054726,3.61172139 3.90199005,2.21808955 C0.875920398,5.64236816 4.26039801,12.9687363 6.21164179,13.1677413 C8.64049751,13.2873433 9.5561194,5.64236816 12.4231841,4.68674627 C14.5334328,3.89032836 16.1658706,7.075801 15.2102488,10.6990846 C14.1750249,13.7251542 11.6665672,15.676398 8.48109453,15.756 M5.01701493,1.89948259 C5.61422886,1.26226866 6.57004975,0.744656716 7.8440796,0.625253731 C8.08288557,0.625253731 8.28208955,0.585452736 8.48109453,0.585452736 C10.5915423,0.585452736 12.5423881,1.50127363 13.9360199,2.89490547 C13.7370149,2.81530348 13.458408,2.73550249 12.980398,2.73550249 C8.79970149,2.73550249 7.36606965,11.0174925 6.0920398,10.9776915 C5.2558209,11.0574925 2.42895522,4.84595025 5.01701493,1.89948259 M8.48109453,0.067840796 C3.82258706,0.067840796 9.95024876e-05,3.89032836 9.95024876e-05,8.54883582 C9.95024876e-05,13.2075423 3.82258706,17.0300299 8.48109453,17.0300299 C13.139801,17.0300299 16.9622886,13.2473433 16.9622886,8.54883582 C17.0020896,3.89032836 13.179602,0.067840796 8.48109453,0.067840796" id="Fill-12"></path>
                <path d="M79.590209,8.80909453 L79.590209,13.4343682 L82.4586667,13.4343682 C83.2773731,13.4343682 83.9265274,13.226209 84.4059303,12.8098905 C84.8851343,12.3931741 85.1249353,11.8150647 85.1249353,11.0753632 C85.1249353,10.3768557 84.8956816,9.82461692 84.4369751,9.41844776 C83.9784677,9.01227861 83.3448358,8.80909453 82.5364776,8.80909453 L79.590209,8.80909453 Z M79.590209,8.00073632 L82.2021493,8.00073632 C83.0001592,7.98501493 83.6180697,7.79695522 84.0560796,7.4361592 C84.4940896,7.07516418 84.712995,6.54959204 84.712995,5.85904478 C84.712995,5.1320796 84.4863284,4.5961592 84.032796,4.25088557 C83.5792637,3.90561194 82.8940896,3.73287562 81.9766766,3.73287562 L79.590209,3.73287562 L79.590209,8.00073632 Z M78.63399,14.2429254 L78.63399,2.92451741 L81.9766766,2.92451741 C83.1894129,2.92451741 84.1092139,3.17486567 84.7362786,3.67496517 C85.3633433,4.17566169 85.6769751,4.91317413 85.6769751,5.8879005 C85.6769751,6.47397015 85.5175721,6.98342289 85.1989652,7.41645771 C84.8801592,7.84949254 84.4435423,8.15934328 83.8891144,8.34600995 C84.5470249,8.49088557 85.0769751,8.81466667 85.4787662,9.31715423 C85.8801592,9.81944279 86.0811542,10.3995423 86.0811542,11.0574527 C86.0811542,12.0570547 85.7585672,12.8379502 85.113393,13.3997413 C84.4682189,13.9619303 83.5703085,14.2429254 82.4198607,14.2429254 L78.63399,14.2429254 Z" id="Fill-14"></path>
                <path d="M90.112199,6.46923383 C89.4124975,6.46923383 88.8228458,6.72575124 88.3436418,7.23878607 C87.8642388,7.7518209 87.5726965,8.44117413 87.4692139,9.30664677 L92.5141891,9.30664677 L92.5141891,9.20555224 C92.4881194,8.39719403 92.2576716,7.73908458 91.8224478,7.23102488 C91.3870249,6.72316418 90.8168756,6.46923383 90.112199,6.46923383 M90.2831443,14.3983881 C89.5681194,14.3983881 88.9215522,14.2222687 88.3436418,13.8698308 C87.7657313,13.517393 87.3161791,13.0262488 86.9949851,12.396597 C86.673592,11.7669453 86.512995,11.0608756 86.512995,10.2783881 L86.512995,9.9440597 C86.512995,9.13550249 86.6696119,8.40754229 86.9832438,7.75958209 C87.2968756,7.1118209 87.7334925,6.60276617 88.2930945,6.23221891 C88.8528955,5.86167164 89.4592637,5.67639801 90.112199,5.67639801 C91.1330945,5.67639801 91.9428458,6.02505473 92.5414527,6.72197015 C93.1400597,7.41888557 93.4393632,8.37132338 93.4393632,9.57868657 L93.4393632,10.0994826 L87.4379701,10.0994826 L87.4379701,10.2783881 C87.4379701,11.2320199 87.711403,12.0262488 88.2582687,12.6608756 C88.8049353,13.2959005 89.4928955,13.6131144 90.3221493,13.6131144 C90.8196617,13.6131144 91.2588657,13.5225672 91.6397612,13.3410746 C92.0206567,13.1597811 92.3665274,12.8696318 92.6775721,12.4704279 L93.2604577,12.9136119 C92.5764776,13.9034627 91.5840398,14.3983881 90.2831443,14.3983881" id="Fill-16"></path>
                <path d="M94.9905473,5.83178109 L95.021592,7.26999005 C95.3376119,6.75178109 95.7316418,6.35655721 96.2032836,6.08451741 C96.6747264,5.81227861 97.1955224,5.67635821 97.7656716,5.67635821 C98.6675622,5.67635821 99.338607,5.93028856 99.779005,6.43814925 C100.219403,6.94620896 100.442488,7.708 100.447662,8.72352239 L100.447662,14.2429254 L99.5224876,14.2429254 L99.5224876,8.71576119 C99.5173134,7.96451741 99.3579104,7.40471642 99.0444776,7.03675622 C98.7308458,6.66879602 98.2293532,6.48471642 97.540398,6.48471642 C96.9650746,6.48471642 96.4558209,6.66501493 96.0128358,7.02501493 C95.5696517,7.38541294 95.2418905,7.87118408 95.0293532,8.48252736 L95.0293532,14.2429254 L94.1043781,14.2429254 L94.1043781,5.83178109 L94.9905473,5.83178109 Z" id="Fill-18"></path>
                <path d="M104.812736,13.613194 C105.460498,13.613194 106.003184,13.4305075 106.441393,13.0651343 C106.879204,12.6997612 107.116219,12.2269254 107.152637,11.6464279 L108.046567,11.6464279 C108.020498,12.1594627 107.8601,12.6273234 107.564577,13.0496119 C107.269254,13.4720995 106.876617,13.8024478 106.386866,14.0406567 C105.897114,14.2790647 105.372537,14.3982687 104.812736,14.3982687 C103.708856,14.3982687 102.834428,14.0149851 102.189055,13.2478209 C101.543881,12.4810547 101.221294,11.4496119 101.221294,10.1538905 L101.221294,9.87408955 C101.221294,9.04503483 101.366368,8.31150249 101.656716,7.67408955 C101.946866,7.03667662 102.362587,6.54433831 102.904279,6.19707463 C103.445771,5.85000995 104.079204,5.67627861 104.804975,5.67627861 C105.727363,5.67627861 106.48796,5.95110448 107.086567,6.50035821 C107.685174,7.04981095 108.004975,7.77259701 108.046567,8.66911443 L107.152637,8.66911443 C107.111045,8.01120398 106.873831,7.4798607 106.441393,7.07548259 C106.008557,6.67130348 105.463085,6.46931343 104.804975,6.46931343 C103.965373,6.46931343 103.313632,6.77239801 102.84995,7.37876617 C102.38607,7.98513433 102.154229,8.83508458 102.154229,9.92841791 L102.154229,10.2006567 C102.154229,11.2732935 102.38607,12.1103085 102.84995,12.7115025 C103.313632,13.3126965 103.96796,13.613194 104.812736,13.613194" id="Fill-20"></path>
                <path d="M109.683303,7.25436816 C109.988975,6.7518806 110.380219,6.36302488 110.857035,6.08839801 C111.333851,5.81377114 111.854647,5.67625871 112.419622,5.67625871 C113.321313,5.67625871 113.992358,5.93038806 114.432955,6.43804975 C114.873353,6.94610945 115.096239,7.7079005 115.101612,8.72362189 L115.101612,14.2428259 L114.176438,14.2428259 L114.176438,8.7158607 C114.171264,7.96441791 114.011861,7.40481592 113.698428,7.03665672 C113.384796,6.66889552 112.883303,6.48481592 112.194149,6.48481592 C111.619025,6.48481592 111.109771,6.66491542 110.666587,7.02511443 C110.223602,7.38531343 109.895642,7.87128358 109.683303,8.48262687 L109.683303,14.2428259 L108.758328,14.2428259 L108.758328,2.30252736 L109.683303,2.30252736 L109.683303,7.25436816 Z" id="Fill-22"></path>
                <path d="M117.196896,5.83178109 L117.22794,7.1999403 C117.538985,6.6920796 117.927642,6.31118408 118.394109,6.05725373 C118.860378,5.80332338 119.378587,5.67635821 119.948736,5.67635821 C121.275303,5.67635821 122.117692,6.22043781 122.475104,7.30879602 C122.775602,6.78541294 123.177393,6.38262687 123.68008,6.1000398 C124.182766,5.81765174 124.737393,5.67635821 125.343761,5.67635821 C127.147144,5.67635821 128.066945,6.66103483 128.103363,8.63038806 L128.103363,14.2429254 L127.170428,14.2429254 L127.170428,8.70023881 C127.165254,7.94899502 127.003264,7.39178109 126.684657,7.02899502 C126.365851,6.66620896 125.846249,6.48471642 125.12605,6.48471642 C124.457393,6.49526368 123.892617,6.71158209 123.431323,7.13387065 C122.97003,7.55635821 122.713512,8.07058706 122.661771,8.67695522 L122.661771,14.2429254 L121.728836,14.2429254 L121.728836,8.63038806 C121.723662,7.90999005 121.554109,7.37227861 121.219781,7.01725373 C120.885453,6.66242786 120.371025,6.48471642 119.676697,6.48471642 C119.091025,6.48471642 118.588338,6.6518806 118.168637,6.98620896 C117.748736,7.32033831 117.437891,7.81685572 117.235701,8.47476617 L117.235701,14.2429254 L116.302965,14.2429254 L116.302965,5.83178109 L117.196896,5.83178109 Z" id="Fill-24"></path>
                <path d="M131.699005,13.5743284 C132.320896,13.5743284 132.876716,13.4240796 133.366468,13.1233831 C133.856219,12.8230846 134.212438,12.4212935 134.435323,11.918607 L134.435323,10.0684577 L132.771841,10.0684577 C131.84408,10.079005 131.118507,10.2485572 130.595124,10.5775124 C130.071542,10.9068657 129.81005,11.358806 129.81005,11.9341294 C129.81005,12.4057711 129.984975,12.7970149 130.334826,13.1078607 C130.684478,13.4189055 131.139204,13.5743284 131.699005,13.5743284 L131.699005,13.5743284 Z M134.62199,14.2427861 C134.528657,13.9785075 134.468955,13.5872637 134.443085,13.0690547 C134.116517,13.4941294 133.700796,13.8218905 133.195522,14.0523383 C132.69005,14.2829851 132.154925,14.398408 131.590149,14.398408 C130.781791,14.398408 130.127463,14.1729353 129.627363,13.72199 C129.127065,13.2712438 128.877114,12.7010945 128.877114,12.0117413 C128.877114,11.1930348 129.217811,10.5452736 129.899403,10.0684577 C130.580796,9.59164179 131.530448,9.35323383 132.748358,9.35323383 L134.435323,9.35323383 L134.435323,8.39701493 C134.435323,7.7960199 134.249851,7.32318408 133.879502,6.97830846 C133.508955,6.63383085 132.968657,6.46149254 132.258806,6.46149254 C131.610846,6.46149254 131.074328,6.62746269 130.649652,6.95900498 C130.224577,7.29074627 130.01204,7.68975124 130.01204,8.1560199 L129.079303,8.14825871 C129.079303,7.479801 129.390149,6.90069652 130.01204,6.41094527 C130.63393,5.92119403 131.398308,5.67621891 132.305373,5.67621891 C133.243284,5.67621891 133.983184,5.91084577 134.524677,6.3799005 C135.066169,6.84895522 135.344776,7.50308458 135.360299,8.34268657 L135.360299,12.3227861 C135.360299,13.1365174 135.445871,13.7452736 135.616816,14.1496517 L135.616816,14.2427861 L134.62199,14.2427861 Z" id="Fill-26"></path>
                <path d="M140.580577,6.62469652 C140.383562,6.58847761 140.173612,6.57036816 139.950925,6.57036816 C139.370428,6.57036816 138.879284,6.73235821 138.477891,7.0561393 C138.0761,7.3801194 137.78993,7.85036816 137.618786,8.46708458 L137.618786,14.242806 L136.693811,14.242806 L136.693811,5.8318607 L137.603264,5.8318607 L137.618786,7.16877612 C138.111124,6.17375124 138.901373,5.67623881 139.989731,5.67623881 C140.248836,5.67623881 140.453413,5.71006965 140.603861,5.77733333 L140.580577,6.62469652 Z" id="Fill-28"></path>
                <polygon id="Fill-30" points="142.901393 10.0062289 141.836318 11.0322985 141.836318 14.2428458 140.903582 14.2428458 140.903582 2.30254726 141.836318 2.30254726 141.836318 9.9441393 142.714925 8.99568159 145.933035 5.83170149 147.106965 5.83170149 143.538806 9.37657711 147.417811 14.2428458 146.306169 14.2428458"></polygon>
            </g>
        </g>
    </g>
</svg>