<?xml version="1.0" encoding="UTF-8"?>
<svg width="267px" height="130px" viewBox="0 0 267 130" version="1.1" xmlns="http://www.w3.org/2000/svg" xmlns:xlink="http://www.w3.org/1999/xlink">
    <!-- Generator: Sketch 53.2 (72643) - https://sketchapp.com -->
    <title>v-ray app sdk</title>
    <desc>Created with Sketch.</desc>
    <g id="v-ray-app-sdk" stroke="none" stroke-width="1" fill="none" fill-rule="evenodd">
        <rect id="Rectangle-Copy-7" stroke="#FFFFFF" x="-0.5" y="-0.5" width="267.25" height="131"></rect>
        <polygon id="Fill-1" fill="#000000" points="139.296119 84.8175124 139.973134 84.8175124 139.973134 45 139.296119 45"></polygon>
        <path d="M91.793791,59.8518607 L91.6743881,59.5732537 C91.6345871,59.4536517 91.5549851,59.2148458 91.953194,59.2148458 L92.431005,59.2148458 L93.2272239,59.2148458 C93.4264279,59.2148458 93.4662289,59.4140498 93.5060299,59.4934527 L95.6162786,65.625592 C95.6162786,65.625592 95.7756816,66.182806 95.9348856,66.182806 C96.0940896,66.182806 96.2534925,65.625592 96.2534925,65.625592 L98.3239403,59.4934527 C98.3637413,59.3742488 98.4035423,59.2148458 98.6823483,59.2148458 L99.8767761,59.2148458 C100.195383,59.2148458 100.195383,59.4140498 100.155582,59.4934527 L100.036179,59.8120597 L96.3728955,70.4035025 C96.2930945,70.7221095 95.4172736,70.7221095 95.3376716,70.4035025 L91.793791,59.8518607 Z" id="Fill-2" fill="#000000"></path>
        <path d="M121.856179,70.7221294 L118.073493,59.4536716 C118.033692,59.3342687 118.033692,59.1750647 118.352299,59.1750647 L119.74593,59.1750647 C119.865134,59.1750647 119.984736,59.2546667 120.024537,59.4536716 C120.024537,59.4536716 122.453393,66.7800398 122.532995,67.0192438 C122.652398,67.2978507 122.692199,67.5764577 122.851602,67.5764577 C122.971005,67.5764577 123.050607,67.3774527 123.130209,67.1384478 C123.249811,66.8200398 126.076677,59.4536716 126.076677,59.4536716 C126.116478,59.3342687 126.116478,59.2944677 126.196279,59.2546667 C126.23608,59.2148657 126.315682,59.1750647 126.355483,59.1750647 L127.271303,59.1750647 L127.828716,59.1750647 C128.186925,59.1750647 128.147124,59.3742687 128.107522,59.4536716 L123.010806,72.5537711 L121.736577,75.6196418 C121.696776,75.7390448 121.656975,75.7788458 121.617174,75.8186468 C121.577373,75.8984478 121.537572,75.8984478 121.45797,75.8984478 L120.183741,75.8984478 C120.064338,75.8984478 120.024537,75.8586468 119.944935,75.8186468 C119.904935,75.7788458 119.904935,75.6994428 119.904935,75.6196418 L121.856179,70.7221294" id="Fill-4" fill="#000000"></path>
        <path d="M99.6379701,65.8245373 C99.6379701,65.5459303 99.7573731,65.3069254 99.9165771,65.1077214 C100.115582,64.9087164 100.354786,64.7893134 100.633393,64.7893134 C100.912,64.7893134 101.151005,64.9087164 101.350209,65.1077214 C101.549214,65.3069254 101.668617,65.5459303 101.668617,65.8245373 C101.668617,66.1031443 101.549214,66.3423483 101.350209,66.5413532 C101.151005,66.7005572 100.912,66.8199602 100.633393,66.8199602 C100.354786,66.8199602 100.115582,66.7005572 99.9165771,66.5413532 C99.7175721,66.3819502 99.6379701,66.1431443 99.6379701,65.8245373" id="Fill-6" fill="#000000"></path>
        <path d="M106.406866,61.1261692 C106.16806,61.2455721 105.968856,61.4047761 105.769851,61.5241791 C105.73005,61.5639801 105.650249,61.6037811 105.610647,61.6437811 L105.451244,61.7631841 C105.291841,61.9621891 105.132836,62.200995 105.053035,62.440199 C104.893831,62.758607 104.85403,63.0772139 104.85403,63.4354229 L104.85403,70.2841791 C104.85403,70.4833831 104.734627,70.5627861 104.575423,70.5627861 L103.460398,70.5627861 C103.261194,70.5627861 103.181791,70.4433831 103.181791,70.2841791 L103.181791,63.4354229 C103.181791,63.1568159 103.221393,62.9178109 103.261194,62.639204 C103.340995,62.320597 103.420597,62.04199 103.54,61.7631841 C103.779005,61.2455721 104.057612,60.7677612 104.455821,60.3695522 C104.814229,59.9713433 105.291841,59.6529353 105.809652,59.4537313 C106.088259,59.3343284 106.367065,59.2547264 106.645871,59.1749254 C106.805075,59.1351244 107.00408,59.0953234 107.163483,59.0953234 L107.481891,59.0953234 C109.791343,59.0159204 110.866368,60.4889552 111.184975,60.7677612 C111.344378,60.8871642 111.344378,61.1657711 111.145373,61.2455721 L110.10995,61.5241791 C109.831144,61.6437811 109.632139,61.6037811 109.432935,61.4047761 C109.273731,61.4047761 107.9599,60.4493532 106.406866,61.1261692" id="Fill-8" fill="#000000"></path>
        <path d="M116.042667,68.9303085 L113.016597,68.9303085 C112.538985,68.8905075 111.304358,68.6117015 111.304358,67.2180697 C111.304358,66.7004577 111.503363,66.2228458 111.822169,65.9838408 C112.379582,65.4662289 113.056398,65.5060299 113.056398,65.5060299 L115.803861,65.5060299 C115.963264,65.5060299 116.042667,65.5856318 116.082468,65.7448358 L116.042667,68.9303085 Z M117.396498,61.8429453 C117.157692,61.3251343 116.839085,60.8473234 116.480677,60.4889154 C116.122269,60.1305075 114.728637,58.9758806 111.861771,59.4140896 C111.583164,59.5332935 111.622965,59.6926965 111.901572,59.9713035 C112.021174,60.0909055 112.459184,60.6085174 112.658189,60.7279204 C112.976796,61.0067264 113.176,60.9269254 113.295204,60.9269254 C115.843662,60.8077214 116.042667,63.1169751 116.042667,63.4753831 L116.042667,63.5549851 C116.002866,63.6743881 115.883463,63.75399 115.76406,63.75399 L113.056398,63.75399 C112.618388,63.75399 112.140776,63.833791 111.742567,64.032796 C111.304358,64.192 110.98595,64.470806 110.627542,64.7494129 C110.308935,65.0680199 110.070129,65.4264279 109.870925,65.8246368 C109.71192,66.2228458 109.592318,66.7006567 109.592318,67.1384677 C109.592318,67.6162786 109.67192,68.0544876 109.870925,68.4524975 C110.030328,68.8905075 110.308935,69.2089154 110.627542,69.5673234 C110.946149,69.8859303 111.304358,70.1249353 111.742567,70.2841393 C112.180577,70.4435423 112.578587,70.5627463 113.056398,70.5627463 L116.281672,70.5627463 L116.361274,70.5627463 L117.5159,70.5627463 C117.715104,70.5627463 117.794706,70.4435423 117.794706,70.2841393 L117.794706,63.4753831 C117.754905,62.9177711 117.635502,62.3205572 117.396498,61.8429453 L117.396498,61.8429453 Z" id="Fill-10" fill="#000000"></path>
        <path d="M81.6802985,59.0556617 C82.8747264,59.0556617 83.8303483,58.7368557 83.8303483,58.3788458 C83.8701493,58.0204378 82.8747264,57.7016318 81.6802985,57.7016318 C80.4856716,57.7016318 79.5300498,58.0204378 79.4902488,58.3788458 C79.5300498,58.7368557 80.4856716,59.0556617 81.6802985,59.0556617 M81.4810945,72.1157612 C77.300199,72.1157612 73.9157214,68.7312836 73.9157214,64.5503881 C73.9157214,62.1215323 75.0705473,59.9714826 76.90199,58.5778507 C73.8759204,62.0021294 77.260398,69.3284975 79.2116418,69.5275025 C81.6404975,69.6471045 82.5561194,62.0021294 85.4231841,61.0465075 C87.5334328,60.2500896 89.1658706,63.4355622 88.2102488,67.0588458 C87.1750249,70.0851144 84.6665672,72.0361592 81.4810945,72.1157612 M78.0170149,58.2592438 C78.6142289,57.6222289 79.5700498,57.1044179 80.8440796,56.9852139 C81.0828856,56.9852139 81.2820896,56.9454129 81.4810945,56.9454129 C83.5915423,56.9454129 85.5423881,57.8610348 86.9360199,59.2546667 C86.7370149,59.1750647 86.458408,59.0952637 85.980398,59.0952637 C81.7997015,59.0952637 80.3660697,67.3774527 79.0920398,67.3376517 C78.2558209,67.4172537 75.4289552,61.2057114 78.0170149,58.2592438 M81.4810945,56.427602 C76.8225871,56.427602 73.0000995,60.2500896 73.0000995,64.908796 C73.0000995,69.5673035 76.8225871,73.389791 81.4810945,73.389791 C86.139801,73.389791 89.9622886,69.6071045 89.9622886,64.908796 C90.0020896,60.2500896 86.179602,56.427602 81.4810945,56.427602" id="Fill-12" fill="#000000"></path>
        <path d="M152.901154,66.6147264 L157.440856,66.6147264 L155.171005,60.4501493 L152.901154,66.6147264 Z M157.744139,67.4230846 L152.605831,67.4230846 L151.439662,70.6025871 L150.436876,70.6025871 L154.720259,59.2841791 L155.629711,59.2841791 L159.912896,70.6025871 L158.917871,70.6025871 L157.744139,67.4230846 Z" id="Fill-14" fill="#000000"></path>
        <path d="M166.042866,66.3193433 C166.042866,65.2465075 165.822567,64.3993433 165.382169,63.7774527 C164.941572,63.1555622 164.327443,62.8445174 163.539781,62.8445174 C162.969632,62.8445174 162.479881,62.9820299 162.070527,63.2564577 C161.660975,63.5312836 161.347542,63.9304876 161.13003,64.4536716 L161.13003,68.4880995 C161.352716,68.9700896 161.671323,69.3382488 162.08605,69.5919801 C162.500577,69.8463085 162.990328,69.9728756 163.555303,69.9728756 C164.337791,69.9728756 164.94794,69.6608358 165.38595,69.0361592 C165.823761,68.4120796 166.042866,67.506408 166.042866,66.3193433 L166.042866,66.3193433 Z M166.975602,66.4825274 C166.975602,67.7939701 166.685453,68.8341692 166.104955,69.6037214 C165.524657,70.3732736 164.747144,70.7581493 163.773015,70.7581493 C162.622567,70.7581493 161.741373,70.3537711 161.13003,69.5454129 L161.13003,73.8363582 L160.204856,73.8363582 L160.204856,62.1915821 L161.067741,62.1915821 L161.114308,63.3808358 C161.720677,62.4845174 162.599085,62.0361592 163.749731,62.0361592 C164.754905,62.0361592 165.54396,62.4170547 166.116697,63.1788458 C166.689234,63.9406368 166.975602,64.9977512 166.975602,66.3503881 L166.975602,66.4825274 Z" id="Fill-16" fill="#000000"></path>
        <path d="M173.719721,66.3193433 C173.719721,65.2465075 173.499423,64.3993433 173.059025,63.7774527 C172.618428,63.1555622 172.004299,62.8445174 171.216637,62.8445174 C170.646488,62.8445174 170.156736,62.9820299 169.747383,63.2564577 C169.337831,63.5312836 169.024398,63.9304876 168.806886,64.4536716 L168.806886,68.4880995 C169.029572,68.9700896 169.348179,69.3382488 169.762905,69.5919801 C170.177433,69.8463085 170.667184,69.9728756 171.232159,69.9728756 C172.014647,69.9728756 172.624796,69.6608358 173.062806,69.0361592 C173.500617,68.4120796 173.719721,67.506408 173.719721,66.3193433 L173.719721,66.3193433 Z M174.652458,66.4825274 C174.652458,67.7939701 174.362308,68.8341692 173.781811,69.6037214 C173.201512,70.3732736 172.424,70.7581493 171.449871,70.7581493 C170.299423,70.7581493 169.418229,70.3537711 168.806886,69.5454129 L168.806886,73.8363582 L167.881711,73.8363582 L167.881711,62.1915821 L168.744597,62.1915821 L168.791164,63.3808358 C169.397532,62.4845174 170.27594,62.0361592 171.426587,62.0361592 C172.431761,62.0361592 173.220816,62.4170547 173.793552,63.1788458 C174.36609,63.9406368 174.652458,64.9977512 174.652458,66.3503881 L174.652458,66.4825274 Z" id="Fill-18" fill="#000000"></path>
        <path d="M182.189274,67.8196418 C182.189274,67.1927761 181.968975,66.6962587 181.528577,66.3310846 C181.08798,65.9657114 180.28201,65.6184478 179.110866,65.2892935 C177.939721,64.9605373 177.084597,64.6013333 176.545692,64.2126766 C175.778527,63.6634229 175.395045,62.9432239 175.395045,62.0516816 C175.395045,61.186408 175.751264,60.4829254 176.4639,59.9410348 C177.176537,59.3995423 178.087383,59.1286965 179.196438,59.1286965 C179.947682,59.1286965 180.620119,59.2741692 181.213751,59.5641194 C181.806985,59.8544677 182.267085,60.2586468 182.593453,60.7766567 C182.92002,61.2952637 183.083204,61.8727761 183.083204,62.5101891 L182.119224,62.5101891 C182.119224,61.7360597 181.854945,61.1133731 181.326388,60.6429254 C180.797831,60.1726766 180.087582,59.9372537 179.196438,59.9372537 C178.330766,59.9372537 177.641612,60.1306866 177.128577,60.5175522 C176.615542,60.9042189 176.359025,61.4086965 176.359025,62.0317811 C176.359025,62.6079005 176.589473,63.0777512 177.050965,63.4411343 C177.51206,63.8045174 178.250567,64.1249154 179.266289,64.4027264 C180.28201,64.6803383 181.051562,64.9682985 181.575144,65.26601 C182.098527,65.5641194 182.492358,65.9205373 182.756836,66.3348657 C183.021114,66.749592 183.153254,67.2393433 183.153254,67.8041194 C183.153254,68.6956617 182.796836,69.4108856 182.084398,69.949592 C181.371761,70.4886965 180.432458,70.7581493 179.266289,70.7581493 C178.468279,70.7581493 177.736139,70.6154627 177.070269,70.3304876 C176.404398,70.0457114 175.899124,69.6465075 175.554448,69.1334726 C175.209771,68.6202388 175.037433,68.0321791 175.037433,67.3686965 L175.993652,67.3686965 C175.993652,68.1671045 176.291562,68.7967562 176.887582,69.2578507 C177.483602,69.7191443 178.276438,69.949592 179.266289,69.949592 C180.147284,69.949592 180.854746,69.7553632 181.388677,69.3665075 C181.922209,68.9778507 182.189274,68.4624279 182.189274,67.8196418" id="Fill-20" fill="#000000"></path>
        <path d="M185.023164,60.0926567 L185.023164,69.7941493 L187.168637,69.7941493 C188.360677,69.7941493 189.316697,69.3989254 190.037095,68.6078806 C190.757294,67.8168358 191.117692,66.7471841 191.117692,65.3985274 L191.117692,64.4027065 C191.117692,63.1010149 190.762667,62.0586269 190.052617,61.2753433 C189.342567,60.4922587 188.407244,60.0980299 187.246448,60.0926567 L185.023164,60.0926567 Z M184.066945,70.6027065 L184.066945,59.2842985 L187.230925,59.2842985 C188.158488,59.2842985 188.990328,59.4956418 189.726249,59.9177313 C190.46197,60.3402189 191.0361,60.945393 191.44804,61.7328557 C191.85998,62.5207164 192.066149,63.4174328 192.066149,64.422607 L192.066149,65.464199 C192.066149,66.4747463 191.861174,67.3714627 191.45202,68.1539502 C191.042468,68.9366368 190.46595,69.5404179 189.722269,69.9650945 C188.978587,70.3903682 188.124856,70.6027065 187.160876,70.6027065 L184.066945,70.6027065 Z" id="Fill-22" fill="#000000"></path>
        <polygon id="Fill-24" fill="#000000" points="195.894965 64.9822687 194.301333 66.5526169 194.301333 70.6025672 193.345114 70.6025672 193.345114 59.2841592 194.301333 59.2841592 194.301333 65.3864478 200.100537 59.2841592 201.305313 59.2841592 196.563423 64.3215721 201.670687 70.6025672 200.504716 70.6025672"></polygon>
    </g>
</svg>