<?xml version="1.0" encoding="utf-8"?>
<!-- Generator: Adobe Illustrator 23.0.6, SVG Export Plug-In . SVG Version: 6.00 Build 0)  -->
<svg version="1.1" id="Layer_1" xmlns="http://www.w3.org/2000/svg" xmlns:xlink="http://www.w3.org/1999/xlink" x="0px" y="0px"
	 width="300px" height="125px" viewBox="0 0 300 125" style="enable-background:new 0 0 300 125;" xml:space="preserve">
<style type="text/css">
	.st0{fill:#231F20;}
	.st1{fill:#0B0204;}
	.st2{fill:#808184;}
	.st3{fill:#FFFFFF;}
</style>
<g>
	<rect x="132.6" y="27.5" width="1.2" height="70"/>
	<g>
		<path d="M49,53.6l-0.2-0.5c-0.1-0.2-0.2-0.6,0.5-0.6h0.9h1.4c0.4,0,0.4,0.3,0.5,0.5l3.8,10.8c0,0,0.3,1,0.5,1c0.3,0,0.6-1,0.6-1
			L60.6,53c0.1-0.2,0.1-0.5,0.6-0.5h2.1c0.6,0,0.6,0.3,0.5,0.5l-0.2,0.6l-6.4,18.6c-0.1,0.6-1.7,0.6-1.8,0L49,53.6z"/>
		<path d="M101.9,72.7L95.2,53c-0.1-0.2-0.1-0.5,0.5-0.5h2.5c0.2,0,0.4,0.1,0.5,0.5c0,0,4.3,12.9,4.4,13.3c0.2,0.5,0.3,0.9,0.5,1
			c0.2,0,0.3-0.4,0.5-0.7c0.2-0.5,5.2-13.5,5.2-13.5c0.1-0.2,0.1-0.3,0.2-0.4c0.1-0.1,0.2-0.1,0.3-0.1h1.6h0.9
			c0.6,0,0.6,0.3,0.5,0.5l-8.9,23l-2.2,5.4c-0.1,0.2-0.1,0.3-0.2,0.3c0,0.1-0.1,0.2-0.3,0.2h-2.3c-0.2,0-0.3,0-0.5-0.2
			c-0.1-0.1-0.1-0.2,0-0.3L101.9,72.7"/>
		<path d="M62.8,64.1c0-0.5,0.2-0.9,0.5-1.2c0.4-0.4,0.8-0.5,1.3-0.5c0.5,0,0.9,0.2,1.2,0.5c0.3,0.4,0.5,0.8,0.5,1.2
			c0,0.5-0.2,0.9-0.5,1.3c-0.4,0.3-0.8,0.5-1.2,0.5c-0.5,0-0.9-0.2-1.2-0.5C63,65.1,62.8,64.6,62.8,64.1z"/>
		<path d="M74.7,55.8c-0.4,0.2-0.8,0.4-1.1,0.7c-0.1,0.1-0.2,0.1-0.3,0.2L73,57c-0.3,0.4-0.5,0.8-0.7,1.2C72.1,58.8,72,59.4,72,60
			v12c0,0.3-0.2,0.5-0.5,0.5h-2c-0.3,0-0.5-0.2-0.5-0.5V60c0-0.5,0-0.9,0.1-1.4c0.1-0.5,0.3-1,0.5-1.5c0.4-0.9,0.9-1.7,1.6-2.4
			c0.7-0.7,1.5-1.2,2.4-1.6c0.5-0.2,1-0.4,1.5-0.5c0.3-0.1,0.6-0.1,0.9-0.1h0.6c4.1-0.1,6,2.4,6.5,2.9c0.2,0.2,0.3,0.7-0.1,0.8
			l-1.8,0.5c-0.5,0.2-0.8,0.1-1.2-0.2C79.7,56.3,77.4,54.7,74.7,55.8z"/>
		<path d="M94.1,57.1c-0.4-0.9-0.9-1.7-1.6-2.4c-0.7-0.7-3.1-2.7-8.1-1.9c-0.5,0.2-0.4,0.5,0.1,1c0.2,0.2,1,1.1,1.3,1.3
			c0.6,0.4,0.9,0.4,1.1,0.4c4.5-0.2,4.8,3.8,4.8,4.5v0.1c-0.1,0.2-0.2,0.4-0.5,0.4h-4.8c-0.8,0-1.6,0.2-2.3,0.5
			c-0.7,0.3-1.4,0.7-1.9,1.3c-0.6,0.5-1,1.2-1.3,1.9c-0.3,0.7-0.5,1.5-0.5,2.4c0,0.8,0.2,1.6,0.5,2.3c0.3,0.7,0.8,1.4,1.3,1.9
			c0.5,0.6,1.2,1,1.9,1.3c0.7,0.3,1.5,0.5,2.3,0.5H92h0.2h2c0.3,0,0.5-0.2,0.5-0.5V60C94.7,59,94.5,58,94.1,57.1z M91.6,69.5h-5.3
			c-0.8,0-3-0.5-3-3c0-0.9,0.4-1.7,0.9-2.2c1-0.9,2.1-0.8,2.1-0.8h4.8c0.3,0,0.4,0.1,0.5,0.4V69.5z"/>
	</g>
	<path d="M30.9,47.6c-8.2,0-14.9,6.7-14.9,14.9c0,8.2,6.7,14.9,14.9,14.9c8.2,0,14.9-6.7,14.9-14.9C45.8,54.3,39.2,47.6,30.9,47.6z
		 M24.8,50.8c1-1.1,2.7-2,5-2.2c0.4,0,0.7-0.1,1.1-0.1c3.8,0,7.1,1.6,9.6,4.1c-0.3-0.1-0.8-0.3-1.7-0.3c-7.4,0-9.9,14.5-12.1,14.5
		C25.2,66.9,20.2,55.9,24.8,50.8z M30.9,75.1c-7.3,0-13.3-6-13.3-13.3c0-4.3,2-8.1,5.2-10.5c-5.3,6,0.6,18.9,4.1,19.3
		c4.3,0.3,5.9-13.2,10.9-15c3.8-1.4,6.6,4.2,4.9,10.6C40.9,71.6,36.5,75,30.9,75.1z M31.2,52.2c2.1,0,3.8-0.5,3.8-1.2
		c0-0.6-1.7-1.2-3.8-1.2c-2.1,0-3.8,0.5-3.8,1.2C27.4,51.6,29.1,52.2,31.2,52.2z"/>
</g>
<g>
	<path d="M169.6,55.1h-6.3v17.2h-1.6V55.1h-6.3v-1.3h14.2V55.1z"/>
	<path d="M170.1,65.2c0-1.3,0.3-2.5,0.8-3.6c0.5-1.1,1.2-1.9,2.2-2.5c0.9-0.6,2-0.9,3.2-0.9c1.8,0,3.3,0.6,4.4,1.9
		c1.1,1.3,1.7,3,1.7,5.1v0.3c0,1.3-0.3,2.5-0.8,3.6c-0.5,1.1-1.2,1.9-2.2,2.5s-2,0.9-3.2,0.9c-1.8,0-3.3-0.6-4.4-1.9
		c-1.1-1.3-1.7-3-1.7-5.1V65.2z M171.6,65.7c0,1.6,0.4,3,1.3,4c0.9,1.1,2,1.6,3.3,1.6c1.4,0,2.5-0.5,3.3-1.6
		c0.9-1.1,1.3-2.4,1.3-4.2v-0.3c0-1-0.2-2-0.6-2.9s-0.9-1.5-1.6-2c-0.7-0.5-1.5-0.7-2.4-0.7c-1.4,0-2.5,0.5-3.3,1.6
		c-0.9,1.1-1.3,2.5-1.3,4.2V65.7z"/>
	<path d="M184.7,65.2c0-1.3,0.3-2.5,0.8-3.6c0.5-1.1,1.2-1.9,2.2-2.5c0.9-0.6,2-0.9,3.2-0.9c1.8,0,3.3,0.6,4.4,1.9
		c1.1,1.3,1.7,3,1.7,5.1v0.3c0,1.3-0.3,2.5-0.8,3.6c-0.5,1.1-1.2,1.9-2.2,2.5s-2,0.9-3.2,0.9c-1.8,0-3.3-0.6-4.4-1.9
		c-1.1-1.3-1.7-3-1.7-5.1V65.2z M186.2,65.7c0,1.6,0.4,3,1.3,4c0.9,1.1,2,1.6,3.3,1.6c1.4,0,2.5-0.5,3.3-1.6
		c0.9-1.1,1.3-2.4,1.3-4.2v-0.3c0-1-0.2-2-0.6-2.9s-0.9-1.5-1.6-2c-0.7-0.5-1.5-0.7-2.4-0.7c-1.4,0-2.5,0.5-3.3,1.6
		c-0.9,1.1-1.3,2.5-1.3,4.2V65.7z"/>
	<path d="M201.8,72.3h-1.5V52.8h1.5V72.3z"/>
	<path d="M214.1,68.8c0-0.8-0.3-1.4-0.9-1.8c-0.6-0.5-1.5-0.8-2.7-1.1c-1.2-0.3-2.2-0.6-2.8-0.9c-0.7-0.3-1.2-0.7-1.5-1.2
		c-0.3-0.5-0.5-1.1-0.5-1.8c0-1.1,0.5-2,1.4-2.7c0.9-0.7,2.1-1.1,3.5-1.1c1.5,0,2.8,0.4,3.7,1.1c0.9,0.8,1.4,1.7,1.4,3H214
		c0-0.8-0.3-1.5-1-2c-0.7-0.5-1.5-0.8-2.5-0.8c-1,0-1.8,0.2-2.4,0.7c-0.6,0.4-0.9,1-0.9,1.7c0,0.7,0.3,1.2,0.8,1.6
		c0.5,0.4,1.4,0.7,2.8,1c1.3,0.3,2.3,0.6,3,1c0.7,0.4,1.2,0.8,1.5,1.3s0.5,1.1,0.5,1.8c0,1.2-0.5,2.1-1.4,2.8c-0.9,0.7-2.2,1-3.7,1
		c-1.6,0-2.9-0.4-3.9-1.2c-1-0.8-1.5-1.8-1.5-2.9h1.5c0.1,0.9,0.4,1.6,1.1,2.1c0.7,0.5,1.6,0.7,2.7,0.7c1.1,0,1.9-0.2,2.6-0.7
		S214.1,69.5,214.1,68.8z"/>
</g>
</svg>
