<?xml version="1.0" encoding="UTF-8"?>
<svg width="267px" height="130px" viewBox="0 0 267 130" version="1.1" xmlns="http://www.w3.org/2000/svg" xmlns:xlink="http://www.w3.org/1999/xlink">
    <!-- Generator: Sketch 53.2 (72643) - https://sketchapp.com -->
    <title>v-ray for swarm</title>
    <desc>Created with Sketch.</desc>
    <defs>
        <polygon id="path-1" points="0.0455920398 0.104238806 11.8459701 0.104238806 11.8459701 8.67080597 0.0455920398 8.67080597"></polygon>
    </defs>
    <g id="v-ray-for-swarm" stroke="none" stroke-width="1" fill="none" fill-rule="evenodd">
        <rect id="Rectangle-Copy-7" stroke="#FFFFFF" x="-0.5" y="-0.5" width="267.25" height="131"></rect>
        <g id="Group-26" transform="translate(73.000000, 45.000000)">
            <polygon id="Fill-1" fill="#000000" points="66.2961194 39.8175124 66.9731343 39.8175124 66.9731343 0 66.2961194 0"></polygon>
            <g id="Group-25" transform="translate(0.000000, 11.359801)">
                <path d="M18.793791,3.4921393 L18.6743881,3.21353234 C18.6345871,3.09393035 18.5549851,2.85512438 18.953194,2.85512438 L19.431005,2.85512438 L20.2272239,2.85512438 C20.4264279,2.85512438 20.4662289,3.05412935 20.5060299,3.13373134 L22.6162786,9.26567164 C22.6162786,9.26567164 22.7756816,9.82308458 22.9348856,9.82308458 C23.0940896,9.82308458 23.2534925,9.26567164 23.2534925,9.26567164 L25.3239403,3.13373134 C25.3637413,3.01432836 25.4035423,2.85512438 25.6823483,2.85512438 L26.8767761,2.85512438 C27.1953831,2.85512438 27.1953831,3.05412935 27.1555821,3.13373134 L27.0361791,3.45233831 L23.3728955,14.0435821 C23.2930945,14.3623881 22.4172736,14.3623881 22.3376716,14.0435821 L18.793791,3.4921393 Z" id="Fill-2" fill="#000000"></path>
                <path d="M48.8561791,14.362408 L45.0734925,3.09395025 C45.0336915,2.97434826 45.0336915,2.81534328 45.3522985,2.81534328 L46.7459303,2.81534328 C46.8651343,2.81534328 46.9847363,2.89494527 47.0245373,3.09395025 C47.0245373,3.09395025 49.453393,10.4203184 49.532995,10.6593234 C49.652398,10.9379303 49.692199,11.2167363 49.851602,11.2167363 C49.971005,11.2167363 50.050607,11.0175323 50.130209,10.7787264 C50.2498109,10.4603184 53.0766766,3.09395025 53.0766766,3.09395025 C53.1164776,2.97434826 53.1164776,2.93474627 53.1962786,2.89494527 C53.2360796,2.85514428 53.3156816,2.81534328 53.3554826,2.81534328 L54.2713035,2.81534328 L54.8287164,2.81534328 C55.1869254,2.81534328 55.1471244,3.01434826 55.1075224,3.09395025 L50.010806,16.1938507 L48.7365771,19.2597214 C48.6967761,19.3793234 48.6569751,19.4191244 48.6171741,19.4589254 C48.5773731,19.5387264 48.5375721,19.5387264 48.4579701,19.5387264 L47.1837413,19.5387264 C47.0643383,19.5387264 47.0245373,19.4989254 46.9449353,19.4589254 C46.9049353,19.4191244 46.9049353,19.3395224 46.9049353,19.2597214 L48.8561791,14.362408" id="Fill-4" fill="#000000"></path>
                <path d="M26.6379701,9.46481592 C26.6379701,9.18600995 26.7573731,8.94700498 26.9165771,8.748 C27.1155821,8.54879602 27.3547861,8.42959204 27.633393,8.42959204 C27.912,8.42959204 28.151005,8.54879602 28.350209,8.748 C28.5492139,8.94700498 28.6686169,9.18600995 28.6686169,9.46481592 C28.6686169,9.74342289 28.5492139,9.98242786 28.350209,10.1816318 C28.151005,10.3406368 27.912,10.4602388 27.633393,10.4602388 C27.3547861,10.4602388 27.1155821,10.3406368 26.9165771,10.1816318 C26.7175721,10.0222289 26.6379701,9.78342289 26.6379701,9.46481592" id="Fill-6" fill="#000000"></path>
                <path d="M33.4068657,4.76622886 C33.1680597,4.88583085 32.9688557,5.04483582 32.7698507,5.16443781 C32.7300498,5.20423881 32.6502488,5.2440398 32.6106468,5.2840398 L32.4512438,5.40324378 C32.2918408,5.60244776 32.1328358,5.84125373 32.0530348,6.08025871 C31.8938308,6.39886567 31.8540299,6.71747264 31.8540299,7.07568159 L31.8540299,13.9244378 C31.8540299,14.1234428 31.7346269,14.2030448 31.5754229,14.2030448 L30.460398,14.2030448 C30.261194,14.2030448 30.181791,14.0834428 30.181791,13.9244378 L30.181791,7.07568159 C30.181791,6.79687562 30.221393,6.55806965 30.261194,6.27946269 C30.340995,5.96085572 30.420597,5.68224876 30.54,5.40324378 C30.779005,4.88583085 31.0576119,4.4078209 31.4558209,4.00961194 C31.8142289,3.61160199 32.2918408,3.29299502 32.8096517,3.09399005 C33.0882587,2.97438806 33.3670647,2.89498507 33.6458706,2.81518408 C33.8050746,2.77538308 34.0040796,2.73558209 34.1634826,2.73558209 L34.4818905,2.73558209 C36.7913433,2.6559801 37.8663682,4.12921393 38.1849751,4.4078209 C38.3443781,4.52742289 38.3443781,4.80602985 38.1453731,4.88583085 L37.1099502,5.16443781 C36.8311443,5.2840398 36.6321393,5.2440398 36.4329353,5.04483582 C36.2737313,5.04483582 34.9599005,4.08941294 33.4068657,4.76622886" id="Fill-8" fill="#000000"></path>
                <path d="M43.0426667,12.5705672 L40.016597,12.5705672 C39.5389851,12.5307662 38.3043582,12.2519602 38.3043582,10.8583284 C38.3043582,10.3407164 38.5033632,9.86310448 38.8221692,9.6239005 C39.3795821,9.10648756 40.056398,9.14628856 40.056398,9.14628856 L42.8038607,9.14628856 C42.9632637,9.14628856 43.0426667,9.22569154 43.0824677,9.38509453 L43.0426667,12.5705672 Z M44.3964975,5.48300498 C44.1576915,4.96539303 43.8390846,4.48758209 43.4806766,4.12917413 C43.1222687,3.77076617 41.7286368,2.6161393 38.8617711,3.05414925 C38.5831642,3.17355224 38.6229652,3.33275622 38.9015721,3.61156219 C39.0211741,3.73096517 39.4591841,4.24877612 39.6581891,4.3679801 C39.976796,4.64698507 40.176,4.56718408 40.295204,4.56718408 C42.8436617,4.44778109 43.0426667,6.75703483 43.0426667,7.11544279 L43.0426667,7.19504478 C43.0028657,7.31464677 42.8834627,7.39424876 42.7640597,7.39424876 L40.056398,7.39424876 C39.6183881,7.39424876 39.1407761,7.47385075 38.7425672,7.67305473 C38.3043582,7.8320597 37.9859502,8.11106468 37.6275423,8.38967164 C37.3089353,8.70827861 37.0701294,9.06668657 36.8709254,9.46489552 C36.7119204,9.86310448 36.5923184,10.3407164 36.5923184,10.7787264 C36.5923184,11.2563383 36.6719204,11.6945473 36.8709254,12.0927562 C37.0303284,12.5307662 37.3089353,12.8491741 37.6275423,13.2075821 C37.9461493,13.5261891 38.3043582,13.764995 38.7425672,13.924398 C39.1805771,14.083602 39.5785871,14.203005 40.056398,14.203005 L43.2816716,14.203005 L43.3612736,14.203005 L44.5159005,14.203005 C44.7151045,14.203005 44.7947065,14.083602 44.7947065,13.924398 L44.7947065,7.11544279 C44.7549055,6.55802985 44.6355025,5.96081592 44.3964975,5.48300498 L44.3964975,5.48300498 Z" id="Fill-10" fill="#000000"></path>
                <path d="M8.68029851,2.69574129 C9.87472637,2.69574129 10.8303483,2.37713433 10.8303483,2.01892537 C10.8701493,1.66051741 9.87472637,1.34191045 8.68029851,1.34191045 C7.48567164,1.34191045 6.53004975,1.66051741 6.49024876,2.01892537 C6.53004975,2.37713433 7.48567164,2.69574129 8.68029851,2.69574129 M8.48109453,15.7560398 C4.300199,15.7560398 0.915721393,12.3713632 0.915721393,8.19046766 C0.915721393,5.76161194 2.07054726,3.61176119 3.90199005,2.21812935 C0.875920398,5.64240796 4.26039801,12.9687761 6.21164179,13.1677811 C8.64049751,13.2873831 9.5561194,5.64240796 12.4231841,4.68658706 C14.5334328,3.89036816 16.1658706,7.0758408 15.2102488,10.6991244 C14.1750249,13.725194 11.6665672,15.6764378 8.48109453,15.7560398 M5.01701493,1.89932338 C5.61422886,1.26230846 6.57004975,0.744696517 7.8440796,0.625293532 C8.08288557,0.625293532 8.28208955,0.585492537 8.48109453,0.585492537 C10.5915423,0.585492537 12.5423881,1.50131343 13.9360199,2.89494527 C13.7370149,2.81534328 13.458408,2.73554229 12.980398,2.73554229 C8.79970149,2.73554229 7.36606965,11.0175323 6.0920398,10.9777313 C5.2558209,11.0575323 2.42895522,4.84599005 5.01701493,1.89932338 M8.48109453,0.067880597 C3.82258706,0.067880597 9.95024876e-05,3.89036816 9.95024876e-05,8.54887562 C9.95024876e-05,13.2075821 3.82258706,17.0300697 8.48109453,17.0300697 C13.139801,17.0300697 16.9622886,13.2473831 16.9622886,8.54887562 C17.0020896,3.89036816 13.179602,0.067880597 8.48109453,0.067880597" id="Fill-12" fill="#000000"></path>
                <path d="M85.0395224,11.4599204 C85.0395224,10.8330547 84.8192239,10.3365373 84.3788259,9.97136318 C83.9382289,9.60599005 83.1322587,9.25872637 81.9611144,8.92957214 C80.7899701,8.60061692 79.9348458,8.24161194 79.3959403,7.85295522 C78.6287761,7.30370149 78.2452935,6.58330348 78.2452935,5.6919602 C78.2452935,4.82648756 78.6015124,4.12300498 79.3141493,3.58131343 C80.0267861,3.0398209 80.9376318,2.76897512 82.0466866,2.76897512 C82.7979303,2.76897512 83.4703682,2.91424876 84.064,3.20439801 C84.6572338,3.49474627 85.1173333,3.89892537 85.4437015,4.41693532 C85.7702687,4.93534328 85.9334527,5.51305473 85.9334527,6.15046766 L84.9694726,6.15046766 C84.9694726,5.3761393 84.705194,4.75365174 84.1766368,4.28320398 C83.6480796,3.81275622 82.9378308,3.57753234 82.0466866,3.57753234 C81.1810149,3.57753234 80.4918607,3.77076617 79.9788259,4.15763184 C79.465791,4.54429851 79.2092736,5.04897512 79.2092736,5.6718607 C79.2092736,6.2481791 79.4397214,6.71783085 79.9012139,7.08121393 C80.3623085,7.44459701 81.1008159,7.76519403 82.1165373,8.04280597 C83.1322587,8.32061692 83.9018109,8.60837811 84.425393,8.90628856 C84.9487761,9.20439801 85.342607,9.56061692 85.6070846,9.97514428 C85.8713632,10.3898706 86.0035025,10.8796219 86.0035025,11.444398 C86.0035025,12.3357413 85.6470846,13.0509652 84.9346468,13.5898706 C84.22201,14.1289751 83.2827065,14.3984279 82.1165373,14.3984279 C81.3185274,14.3984279 80.5863881,14.2557413 79.9205174,13.9707662 C79.2546468,13.68599 78.7493731,13.2867861 78.4046965,12.7737512 C78.0600199,12.2605174 77.8876816,11.6724577 77.8876816,11.0089751 L78.8439005,11.0089751 C78.8439005,11.8071841 79.1418109,12.4368358 79.7378308,12.8981294 C80.3338507,13.3594229 81.1266866,13.5898706 82.1165373,13.5898706 C82.9975323,13.5898706 83.704995,13.3956418 84.2389254,13.0067861 C84.7724577,12.6181294 85.0395224,12.1025075 85.0395224,11.4599204" id="Fill-14" fill="#000000"></path>
                <polygon id="Fill-16" fill="#000000" points="88.7129552 12.3072438 88.8528557 13.0302289 89.0395224 12.2684378 91.0606169 5.8318209 91.8534527 5.8318209 93.8512637 12.2139104 94.0689751 13.1000796 94.2476816 12.2839602 95.9734527 5.8318209 96.9374328 5.8318209 94.4886766 14.2429652 93.6958408 14.2429652 91.5348458 7.57311443 91.4337512 7.11440796 91.3326567 7.58087562 89.2104677 14.2429652 88.4176318 14.2429652 85.9766368 5.8318209 86.9328557 5.8318209"></polygon>
                <path d="M99.9423483,13.5743483 C100.564239,13.5743483 101.12006,13.4240995 101.609811,13.123403 C102.099562,12.8231045 102.455781,12.4213134 102.678667,11.9186269 L102.678667,10.0684776 L101.015184,10.0684776 C100.087423,10.0790249 99.3618507,10.2485771 98.8384677,10.5775323 C98.3148856,10.9068856 98.053393,11.3588259 98.053393,11.9341493 C98.053393,12.405791 98.2283184,12.7970348 98.5781692,13.1078806 C98.9278209,13.4189254 99.3825473,13.5743483 99.9423483,13.5743483 L99.9423483,13.5743483 Z M102.865333,14.242806 C102.772,13.9785274 102.712299,13.5872836 102.686428,13.0690746 C102.359861,13.4941493 101.944139,13.8219104 101.438866,14.0523582 C100.933393,14.283005 100.398269,14.3984279 99.8334925,14.3984279 C99.0251343,14.3984279 98.370806,14.1729552 97.8707065,13.72201 C97.370408,13.2712637 97.1204577,12.7011144 97.1204577,12.0117612 C97.1204577,11.1930547 97.4611542,10.5452935 98.1427463,10.0684776 C98.8241393,9.59166169 99.773791,9.35325373 100.991701,9.35325373 L102.678667,9.35325373 L102.678667,8.39703483 C102.678667,7.7960398 102.493194,7.32320398 102.122846,6.97832836 C101.752299,6.63385075 101.212,6.46151244 100.502149,6.46151244 C99.8541891,6.46151244 99.3176716,6.62748259 98.892995,6.95902488 C98.4679204,7.29076617 98.2553831,7.68977114 98.2553831,8.1560398 L97.3226468,8.14827861 C97.3226468,7.4798209 97.6334925,6.90071642 98.2553831,6.41096517 C98.8772736,5.92121393 99.6416517,5.67623881 100.548716,5.67623881 C101.486627,5.67623881 102.226527,5.91086567 102.76802,6.3799204 C103.309512,6.84897512 103.588119,7.50310448 103.603642,8.34270647 L103.603642,12.322806 C103.603642,13.1365373 103.689214,13.7452935 103.860159,14.1496716 L103.860159,14.242806 L102.865333,14.242806 Z" id="Fill-18" fill="#000000"></path>
                <path d="M108.82392,6.62471642 C108.626905,6.58849751 108.416955,6.57038806 108.194269,6.57038806 C107.613771,6.57038806 107.122627,6.73237811 106.721234,7.0561592 C106.319443,7.3801393 106.033274,7.85038806 105.862129,8.46710448 L105.862129,14.2428259 L104.937154,14.2428259 L104.937154,5.8318806 L105.846607,5.8318806 L105.862129,7.16879602 C106.354468,6.17377114 107.144716,5.67625871 108.233075,5.67625871 C108.492179,5.67625871 108.696756,5.71008955 108.847204,5.77735323 L108.82392,6.62471642 Z" id="Fill-20" fill="#000000"></path>
                <g id="Group-24" transform="translate(109.054726, 5.572139)">
                    <mask id="mask-2" fill="white">
                        <use xlink:href="#path-1"></use>
                    </mask>
                    <g id="Clip-23"></g>
                    <path d="M0.939522388,0.259661692 L0.970567164,1.6278209 C1.28161194,1.1199602 1.67026866,0.739064677 2.13673632,0.485134328 C2.60300498,0.23120398 3.12121393,0.104238806 3.69136318,0.104238806 C5.01793035,0.104238806 5.86031841,0.648318408 6.21773134,1.73667662 C6.51822886,1.21329353 6.9200199,0.810507463 7.42270647,0.527920398 C7.92539303,0.245532338 8.4800199,0.104238806 9.08638806,0.104238806 C10.8897711,0.104238806 11.8095721,1.08891542 11.84599,3.05826866 L11.84599,8.67080597 L10.9130547,8.67080597 L10.9130547,3.1281194 C10.9078806,2.37687562 10.7458905,1.81966169 10.4272836,1.45687562 C10.1084776,1.09408955 9.58887562,0.912597015 8.86867662,0.912597015 C8.2000199,0.923144279 7.63524378,1.13946269 7.17395025,1.56175124 C6.71265672,1.98423881 6.4561393,2.49846766 6.40439801,3.10483582 L6.40439801,8.67080597 L5.47146269,8.67080597 L5.47146269,3.05826866 C5.46628856,2.33787065 5.29673632,1.8001592 4.96240796,1.44513433 C4.6280796,1.09030846 4.11365174,0.912597015 3.41932338,0.912597015 C2.83365174,0.912597015 2.33096517,1.07976119 1.91126368,1.41408955 C1.49136318,1.74821891 1.18051741,2.24473632 0.978328358,2.90264677 L0.978328358,8.67080597 L0.0455920398,8.67080597 L0.0455920398,0.259661692 L0.939522388,0.259661692 Z" id="Fill-22" fill="#000000" mask="url(#mask-2)"></path>
                </g>
            </g>
        </g>
    </g>
</svg>