<?xml version="1.0" encoding="UTF-8"?>
<svg width="267px" height="130px" viewBox="0 0 267 130" version="1.1" xmlns="http://www.w3.org/2000/svg" xmlns:xlink="http://www.w3.org/1999/xlink">
    <!-- Generator: Sketch 53.2 (72643) - https://sketchapp.com -->
    <title>v-ray license server</title>
    <desc>Created with Sketch.</desc>
    <g id="v-ray-license-server" stroke="none" stroke-width="1" fill="none" fill-rule="evenodd">
        <rect id="Rectangle" stroke="#FFFFFF" x="-0.5" y="-0.5" width="267.25" height="131"></rect>
        <path d="M114.133333,72.8 C114.266667,72.6666667 114.4,72.6 114.6,72.5333333 C114.8,72.4666667 115,72.4666667 115.266667,72.4666667 C115.533333,72.4666667 115.8,72.5333333 116,72.6 C116.2,72.6666667 116.4,72.8 116.533333,72.8666667 C116.666667,73 116.8,73.1333333 116.866667,73.3333333 C116.933333,73.5333333 116.933333,73.7333333 116.933333,73.9333333 L118.933333,73.9333333 C118.933333,73.4666667 118.866667,73.0666667 118.666667,72.7333333 C118.466667,72.3333333 118.266667,72.0666667 117.933333,71.8 C117.6,71.5333333 117.266667,71.3333333 116.8,71.1333333 C116.333333,71 115.866667,70.9333333 115.333333,70.9333333 C114.8,70.9333333 114.333333,71 113.866667,71.1333333 C113.4,71.2666667 113.066667,71.4666667 112.733333,71.6666667 C112.4,71.9333333 112.133333,72.2 112,72.5333333 C111.8,72.8666667 111.733333,73.2666667 111.733333,73.6666667 C111.733333,74.0666667 111.8,74.4666667 112,74.8 C112.2,75.1333333 112.4,75.4 112.733333,75.6666667 C113.066667,75.9333333 113.4,76.1333333 113.8,76.3333333 C114.2,76.5333333 114.6,76.6666667 115.066667,76.8 C115.466667,76.9333333 115.8,77.0666667 116.066667,77.1333333 C116.333333,77.2666667 116.533333,77.3333333 116.666667,77.4666667 C116.8,77.6 116.933333,77.7333333 116.933333,77.8666667 C117,78 117,78.1333333 117,78.3333333 C117,78.4666667 117,78.6666667 116.933333,78.8 C116.866667,78.9333333 116.8,79.0666667 116.666667,79.1333333 C116.533333,79.2666667 116.4,79.3333333 116.2,79.4 C116,79.4666667 115.8,79.4666667 115.533333,79.4666667 C115.266667,79.4666667 115,79.4666667 114.733333,79.4 C114.466667,79.3333333 114.266667,79.2666667 114.133333,79.1333333 C113.933333,79 113.8,78.8666667 113.733333,78.6 C113.666667,78.4 113.6,78.1333333 113.6,77.8666667 L111.533333,77.8666667 C111.533333,78.2666667 111.6,78.6 111.666667,78.8666667 C111.8,79.2 111.933333,79.4666667 112.133333,79.6666667 C112.333333,79.9333333 112.533333,80.1333333 112.8,80.2666667 C113.066667,80.4666667 113.333333,80.6 113.6,80.7333333 C113.866667,80.8666667 114.2,80.9333333 114.533333,81 C114.866667,81.0666667 115.2,81.0666667 115.533333,81.0666667 C116.066667,81.0666667 116.533333,81 117,80.8666667 C117.466667,80.7333333 117.8,80.5333333 118.133333,80.3333333 C118.466667,80.1333333 118.666667,79.8 118.866667,79.4666667 C119.066667,79.1333333 119.133333,78.7333333 119.133333,78.3333333 C119.133333,77.9333333 119.066667,77.5333333 118.933333,77.2666667 C118.8,76.9333333 118.6,76.6666667 118.333333,76.4 C118.066667,76.1333333 117.733333,75.9333333 117.333333,75.7333333 C116.933333,75.5333333 116.466667,75.3333333 115.933333,75.2 C115.266667,75 114.8,74.8 114.466667,74.6 C114.133333,74.4 114,74.1333333 114,73.8 C114,73.6666667 114,73.4666667 114.066667,73.3333333 C113.933333,73.0666667 114,72.9333333 114.133333,72.8 Z" id="Path" fill="#000000" fill-rule="nonzero"></path>
        <polygon id="Path" fill="#000000" fill-rule="nonzero" points="106.333333 71 104.333333 71 104.333333 80.8666667 110.666667 80.8666667 110.666667 79.2666667 106.333333 79.2666667"></polygon>
        <path d="M103.333333,53.9333333 C105.6,53.9333333 107.4,53.4 107.466667,52.6666667 C107.466667,52 105.666667,51.4 103.4,51.4 C101.133333,51.4 99.3333333,51.9333333 99.2666667,52.6666667 C99.2666667,53.3333333 101.066667,53.9333333 103.333333,53.9333333 Z" id="Path" fill="#000000" fill-rule="nonzero"></path>
        <path d="M88.7333333,64.2666667 C88.7333333,71.8666667 94.7333333,78.0666667 102.2,78.4666667 L102.2,80.9333333 C93.7333333,80.5333333 87,73.6 87,65 C87,56.1333333 94.1333333,49 103,49 C111.866667,49 119,56.1333333 119,65 C119,66.4666667 118.8,67.9333333 118.4,69.2666667 C117.8,68.9333333 116.933333,68.6 115.666667,68.6 C117.333333,61.9333333 114.266667,56.1333333 110.333333,57.6 C105,59.4666667 103.266667,73.9333333 98.6666667,73.6666667 C95,73.3333333 88.6666667,59.4666667 94.3333333,53 C90.9333333,55.6 88.7333333,59.6666667 88.7333333,64.2666667 Z M96.4,52.4666667 C91.5333333,58 96.9333333,69.6666667 98.4666667,69.6666667 C100.866667,69.6666667 103.533333,54.1333333 111.4,54.0666667 C112.4,54.0666667 112.933333,54.2 113.266667,54.3333333 C110.666667,51.6666667 107,50 103,50 C102.6,50 102.2,50 101.8,50.0666667 C99.3333333,50.2666667 97.4666667,51.2666667 96.4,52.4666667 Z" id="Combined-Shape" fill="#000000" fill-rule="nonzero"></path>
        <polygon id="Path" fill="#000000" fill-rule="nonzero" points="133.255859 61.2382812 138.521973 61.2382812 138.521973 62 132.347656 62 132.347656 51.3359375 133.255859 51.3359375"></polygon>
        <polygon id="Path" fill="#000000" fill-rule="nonzero" points="141.026855 62 140.147949 62 140.147949 54.0751953 141.026855 54.0751953"></polygon>
        <path d="M139.994141,51.7827148 C139.994141,51.6166984 140.047851,51.4763189 140.155273,51.3615723 C140.262696,51.2468256 140.409179,51.1894531 140.594727,51.1894531 C140.780274,51.1894531 140.927978,51.2468256 141.037842,51.3615723 C141.147706,51.4763189 141.202637,51.6166984 141.202637,51.7827148 C141.202637,51.9487313 141.147706,52.0878901 141.037842,52.2001953 C140.927978,52.3125006 140.780274,52.3686523 140.594727,52.3686523 C140.409179,52.3686523 140.262696,52.3125006 140.155273,52.2001953 C140.047851,52.0878901 139.994141,51.9487313 139.994141,51.7827148 Z" id="Path" fill="#000000" fill-rule="nonzero"></path>
        <path d="M146.336914,61.4067383 C146.947269,61.4067383 147.458738,61.2346209 147.871338,60.8903809 C148.283938,60.5461409 148.507324,60.1005887 148.541504,59.5537109 L149.383789,59.5537109 C149.359375,60.0371118 149.208009,60.4777812 148.929688,60.8757324 C148.651366,61.2736836 148.281496,61.5849598 147.820068,61.8095703 C147.35864,62.0341808 146.86426,62.1464844 146.336914,62.1464844 C145.29687,62.1464844 144.472903,61.7851599 143.86499,61.0625 C143.257077,60.3398401 142.953125,59.3681702 142.953125,58.1474609 L142.953125,57.8837891 C142.953125,57.1025352 143.089842,56.4116241 143.363281,55.8110352 C143.63672,55.2104462 144.028562,54.7465837 144.538818,54.4194336 C145.049075,54.0922835 145.645993,53.9287109 146.32959,53.9287109 C147.198735,53.9287109 147.91528,54.1874974 148.479248,54.7050781 C149.043216,55.2226588 149.344726,55.9038044 149.383789,56.7485352 L148.541504,56.7485352 C148.502441,56.1284149 148.279055,55.6279316 147.871338,55.2470703 C147.463621,54.866209 146.94971,54.6757812 146.32959,54.6757812 C145.53857,54.6757812 144.924563,54.9614229 144.487549,55.5327148 C144.050535,56.1040068 143.832031,56.90478 143.832031,57.9350586 L143.832031,58.1914062 C143.832031,59.2021535 144.050535,59.9907198 144.487549,60.5571289 C144.924563,61.123538 145.541012,61.4067383 146.336914,61.4067383 Z" id="Path" fill="#000000" fill-rule="nonzero"></path>
        <path d="M154.203125,62.1464844 C153.529294,62.1464844 152.920169,61.9804704 152.375732,61.6484375 C151.831296,61.3164046 151.407716,60.8537627 151.10498,60.260498 C150.802245,59.6672334 150.650879,59.0019568 150.650879,58.2646484 L150.650879,57.949707 C150.650879,57.1879845 150.798583,56.5019562 151.093994,55.8916016 C151.389406,55.2812469 151.800779,54.8015154 152.328125,54.4523926 C152.855471,54.1032697 153.426755,53.9287109 154.041992,53.9287109 C155.003911,53.9287109 155.766843,54.2570768 156.330811,54.9138184 C156.894778,55.5705599 157.176758,56.4677677 157.176758,57.6054688 L157.176758,58.0961914 L151.522461,58.0961914 L151.522461,58.2646484 C151.522461,59.1630904 151.780027,59.911374 152.295166,60.5095215 C152.810305,61.107669 153.458492,61.4067383 154.239746,61.4067383 C154.708498,61.4067383 155.122313,61.3212899 155.481201,61.1503906 C155.84009,60.9794913 156.166014,60.7060566 156.458984,60.3300781 L157.008301,60.7475586 C156.363766,61.6801804 155.428717,62.1464844 154.203125,62.1464844 Z M154.041992,54.6757812 C153.382809,54.6757812 152.827395,54.9174781 152.375732,55.4008789 C151.92407,55.8842798 151.649415,56.5336873 151.551758,57.3491211 L156.305176,57.3491211 L156.305176,57.2539062 C156.280762,56.4921837 156.063479,55.8720727 155.65332,55.3935547 C155.243162,54.9150367 154.706058,54.6757812 154.041992,54.6757812 Z" id="Combined-Shape" fill="#000000" fill-rule="nonzero"></path>
        <path d="M159.718262,54.0751953 L159.747559,55.4301758 C160.045412,54.9418921 160.416502,54.5695814 160.86084,54.3132324 C161.305178,54.0568835 161.795896,53.9287109 162.333008,53.9287109 C163.182621,53.9287109 163.814939,54.1679664 164.22998,54.6464844 C164.645022,55.1250024 164.85498,55.8427687 164.859863,56.7998047 L164.859863,62 L163.988281,62 L163.988281,56.7924805 C163.983398,56.0844691 163.833253,55.5571306 163.537842,55.2104492 C163.24243,54.8637678 162.770023,54.6904297 162.120605,54.6904297 C161.578611,54.6904297 161.098879,54.8601057 160.681396,55.1994629 C160.263914,55.5388201 159.955079,55.9965792 159.754883,56.5727539 L159.754883,62 L158.883301,62 L158.883301,54.0751953 L159.718262,54.0751953 Z" id="Path" fill="#000000" fill-rule="nonzero"></path>
        <path d="M171.869141,59.9858398 C171.869141,59.5512674 171.694582,59.2021498 171.345459,58.9384766 C170.996336,58.6748034 170.470218,58.4685066 169.76709,58.3195801 C169.063961,58.1706536 168.518312,57.9997568 168.130127,57.8068848 C167.741941,57.6140127 167.453858,57.3784194 167.265869,57.1000977 C167.07788,56.821776 166.983887,56.4848653 166.983887,56.0893555 C166.983887,55.4643523 167.245115,54.9480001 167.767578,54.5402832 C168.290042,54.1325663 168.95898,53.9287109 169.774414,53.9287109 C170.658208,53.9287109 171.367429,54.1472146 171.9021,54.5842285 C172.43677,55.0212424 172.704102,55.5913051 172.704102,56.2944336 L171.825195,56.2944336 C171.825195,55.8305641 171.631105,55.4448258 171.24292,55.137207 C170.854734,54.8295883 170.365237,54.6757812 169.774414,54.6757812 C169.198239,54.6757812 168.735597,54.8039538 168.386475,55.0603027 C168.037352,55.3166517 167.862793,55.6499003 167.862793,56.0600586 C167.862793,56.4555684 168.008055,56.7619618 168.298584,56.979248 C168.589113,57.1965343 169.118893,57.3955069 169.887939,57.5761719 C170.656986,57.7568368 171.233152,57.949706 171.616455,58.1547852 C171.999758,58.3598643 172.284179,58.6064439 172.469727,58.8945312 C172.655274,59.1826186 172.748047,59.5317362 172.748047,59.9418945 C172.748047,60.6108432 172.478274,61.1455058 171.938721,61.5458984 C171.399167,61.9462911 170.694829,62.1464844 169.825684,62.1464844 C168.902827,62.1464844 168.154544,61.9230979 167.580811,61.4763184 C167.007077,61.0295388 166.720215,60.4643589 166.720215,59.7807617 L167.599121,59.7807617 C167.633301,60.2934596 167.849363,60.6926255 168.247314,60.9782715 C168.645266,61.2639174 169.171383,61.4067383 169.825684,61.4067383 C170.436038,61.4067383 170.929197,61.2724623 171.305176,61.0039062 C171.681154,60.7353502 171.869141,60.3959981 171.869141,59.9858398 Z" id="Path" fill="#000000" fill-rule="nonzero"></path>
        <path d="M177.787109,62.1464844 C177.113278,62.1464844 176.504153,61.9804704 175.959717,61.6484375 C175.41528,61.3164046 174.991701,60.8537627 174.688965,60.260498 C174.386229,59.6672334 174.234863,59.0019568 174.234863,58.2646484 L174.234863,57.949707 C174.234863,57.1879845 174.382567,56.5019562 174.677979,55.8916016 C174.97339,55.2812469 175.384763,54.8015154 175.912109,54.4523926 C176.439456,54.1032697 177.010739,53.9287109 177.625977,53.9287109 C178.587895,53.9287109 179.350827,54.2570768 179.914795,54.9138184 C180.478763,55.5705599 180.760742,56.4677677 180.760742,57.6054688 L180.760742,58.0961914 L175.106445,58.0961914 L175.106445,58.2646484 C175.106445,59.1630904 175.364011,59.911374 175.87915,60.5095215 C176.39429,61.107669 177.042477,61.4067383 177.82373,61.4067383 C178.292483,61.4067383 178.706297,61.3212899 179.065186,61.1503906 C179.424074,60.9794913 179.749999,60.7060566 180.042969,60.3300781 L180.592285,60.7475586 C179.947751,61.6801804 179.012701,62.1464844 177.787109,62.1464844 Z M177.625977,54.6757812 C176.966794,54.6757812 176.411379,54.9174781 175.959717,55.4008789 C175.508054,55.8842798 175.233399,56.5336873 175.135742,57.3491211 L179.88916,57.3491211 L179.88916,57.2539062 C179.864746,56.4921837 179.647463,55.8720727 179.237305,55.3935547 C178.827146,54.9150367 178.290042,54.6757812 177.625977,54.6757812 Z" id="Combined-Shape" fill="#000000" fill-rule="nonzero"></path>
        <path d="M138.382812,77.3779297 C138.382812,76.7871064 138.175295,76.3195818 137.760254,75.9753418 C137.345213,75.6311018 136.585943,75.3039566 135.482422,74.9938965 C134.378901,74.6838363 133.573245,74.345705 133.06543,73.9794922 C132.34277,73.4619115 131.981445,72.7832073 131.981445,71.9433594 C131.981445,71.1279256 132.317135,70.4650904 132.988525,69.954834 C133.659915,69.4445775 134.518061,69.1894531 135.562988,69.1894531 C136.271,69.1894531 136.904538,69.3261705 137.463623,69.5996094 C138.022708,69.8730482 138.456053,70.2539038 138.763672,70.7421875 C139.071291,71.2304712 139.225098,71.7748993 139.225098,72.3754883 L138.316895,72.3754883 C138.316895,71.6479456 138.067874,71.0632346 137.569824,70.6213379 C137.071775,70.1794411 136.402836,69.9584961 135.562988,69.9584961 C134.747555,69.9584961 134.098147,70.140379 133.614746,70.5041504 C133.131345,70.8679217 132.889648,71.3427705 132.889648,71.9287109 C132.889648,72.4707058 133.106931,72.9125959 133.541504,73.2543945 C133.976076,73.5961931 134.67187,73.8977038 135.628906,74.1589355 C136.585942,74.4201673 137.311033,74.6911607 137.804199,74.9719238 C138.297366,75.252687 138.668456,75.588377 138.91748,75.9790039 C139.166505,76.3696309 139.291016,76.831052 139.291016,77.3632812 C139.291016,78.2031292 138.955326,78.8769506 138.283936,79.3847656 C137.612545,79.8925807 136.727545,80.1464844 135.628906,80.1464844 C134.876949,80.1464844 134.187259,80.0122084 133.559814,79.7436523 C132.93237,79.4750963 132.4563,79.0991235 132.131592,78.6157227 C131.806883,78.1323218 131.644531,77.5781281 131.644531,76.953125 L132.54541,76.953125 C132.54541,77.7050819 132.826169,78.2983377 133.387695,78.7329102 C133.949222,79.1674826 134.696284,79.3847656 135.628906,79.3847656 C136.458989,79.3847656 137.125486,79.201662 137.628418,78.8354492 C138.13135,78.4692365 138.382812,77.9834015 138.382812,77.3779297 Z" id="Path" fill="#000000" fill-rule="nonzero"></path>
        <path d="M144.095703,80.1464844 C143.421872,80.1464844 142.812747,79.9804704 142.268311,79.6484375 C141.723874,79.3164046 141.300294,78.8537627 140.997559,78.260498 C140.694823,77.6672334 140.543457,77.0019568 140.543457,76.2646484 L140.543457,75.949707 C140.543457,75.1879845 140.691161,74.5019562 140.986572,73.8916016 C141.281984,73.2812469 141.693357,72.8015154 142.220703,72.4523926 C142.74805,72.1032697 143.319333,71.9287109 143.93457,71.9287109 C144.896489,71.9287109 145.659421,72.2570768 146.223389,72.9138184 C146.787356,73.5705599 147.069336,74.4677677 147.069336,75.6054688 L147.069336,76.0961914 L141.415039,76.0961914 L141.415039,76.2646484 C141.415039,77.1630904 141.672605,77.911374 142.187744,78.5095215 C142.702883,79.107669 143.35107,79.4067383 144.132324,79.4067383 C144.601077,79.4067383 145.014891,79.3212899 145.373779,79.1503906 C145.732668,78.9794913 146.058592,78.7060566 146.351562,78.3300781 L146.900879,78.7475586 C146.256344,79.6801804 145.321295,80.1464844 144.095703,80.1464844 Z M143.93457,72.6757812 C143.275387,72.6757812 142.719973,72.9174781 142.268311,73.4008789 C141.816648,73.8842798 141.541993,74.5336873 141.444336,75.3491211 L146.197754,75.3491211 L146.197754,75.2539062 C146.17334,74.4921837 145.956057,73.8720727 145.545898,73.3935547 C145.13574,72.9150367 144.598636,72.6757812 143.93457,72.6757812 Z" id="Combined-Shape" fill="#000000" fill-rule="nonzero"></path>
        <path d="M152.437988,72.8222656 C152.25244,72.7880858 152.054689,72.7709961 151.844727,72.7709961 C151.297849,72.7709961 150.835207,72.9235825 150.456787,73.2287598 C150.078367,73.5339371 149.808595,73.9770479 149.647461,74.5581055 L149.647461,80 L148.775879,80 L148.775879,72.0751953 L149.632812,72.0751953 L149.647461,73.3349609 C150.11133,72.3974563 150.855952,71.9287109 151.881348,71.9287109 C152.12549,71.9287109 152.318359,71.9604489 152.459961,72.0239258 L152.437988,72.8222656 Z" id="Path" fill="#000000" fill-rule="nonzero"></path>
        <polygon id="Path" fill="#000000" fill-rule="nonzero" points="156.290527 78.7915039 158.700195 72.0751953 159.601074 72.0751953 156.64209 80 155.931641 80 152.958008 72.0751953 153.858887 72.0751953"></polygon>
        <path d="M164.105469,80.1464844 C163.431637,80.1464844 162.822512,79.9804704 162.278076,79.6484375 C161.73364,79.3164046 161.31006,78.8537627 161.007324,78.260498 C160.704588,77.6672334 160.553223,77.0019568 160.553223,76.2646484 L160.553223,75.949707 C160.553223,75.1879845 160.700926,74.5019562 160.996338,73.8916016 C161.29175,73.2812469 161.703122,72.8015154 162.230469,72.4523926 C162.757815,72.1032697 163.329098,71.9287109 163.944336,71.9287109 C164.906255,71.9287109 165.669187,72.2570768 166.233154,72.9138184 C166.797122,73.5705599 167.079102,74.4677677 167.079102,75.6054688 L167.079102,76.0961914 L161.424805,76.0961914 L161.424805,76.2646484 C161.424805,77.1630904 161.68237,77.911374 162.19751,78.5095215 C162.712649,79.107669 163.360836,79.4067383 164.14209,79.4067383 C164.610842,79.4067383 165.024656,79.3212899 165.383545,79.1503906 C165.742433,78.9794913 166.068358,78.7060566 166.361328,78.3300781 L166.910645,78.7475586 C166.26611,79.6801804 165.331061,80.1464844 164.105469,80.1464844 Z M163.944336,72.6757812 C163.285153,72.6757812 162.729739,72.9174781 162.278076,73.4008789 C161.826414,73.8842798 161.551758,74.5336873 161.454102,75.3491211 L166.20752,75.3491211 L166.20752,75.2539062 C166.183105,74.4921837 165.965822,73.8720727 165.555664,73.3935547 C165.145506,72.9150367 164.608402,72.6757812 163.944336,72.6757812 Z" id="Combined-Shape" fill="#000000" fill-rule="nonzero"></path>
        <path d="M172.447754,72.8222656 C172.262206,72.7880858 172.064454,72.7709961 171.854492,72.7709961 C171.307614,72.7709961 170.844973,72.9235825 170.466553,73.2287598 C170.088133,73.5339371 169.81836,73.9770479 169.657227,74.5581055 L169.657227,80 L168.785645,80 L168.785645,72.0751953 L169.642578,72.0751953 L169.657227,73.3349609 C170.121096,72.3974563 170.865718,71.9287109 171.891113,71.9287109 C172.135255,71.9287109 172.328124,71.9604489 172.469727,72.0239258 L172.447754,72.8222656 Z" id="Path" fill="#000000" fill-rule="nonzero"></path>
    </g>
</svg>