<?xml version="1.0" encoding="utf-8"?>
<!-- Generator: Adobe Illustrator 23.0.6, SVG Export Plug-In . SVG Version: 6.00 Build 0)  -->
<svg version="1.1" id="Layer_1" xmlns="http://www.w3.org/2000/svg" xmlns:xlink="http://www.w3.org/1999/xlink" x="0px" y="0px"
	 width="300px" height="125px" viewBox="0 0 300 125" style="enable-background:new 0 0 300 125;" xml:space="preserve">
<style type="text/css">
	.st0{fill:#231F20;}
	.st1{fill:#0B0204;}
	.st2{fill:#808184;}
	.st3{fill:#FFFFFF;}
</style>
<g>
	<rect x="131.8" y="27.5" width="1.2" height="70"/>
	<g>
		<path d="M49,53.6l-0.2-0.5c-0.1-0.2-0.2-0.6,0.5-0.6h0.9h1.4c0.4,0,0.4,0.3,0.5,0.5l3.8,10.8c0,0,0.3,1,0.5,1c0.3,0,0.6-1,0.6-1
			L60.6,53c0.1-0.2,0.1-0.5,0.6-0.5h2.1c0.6,0,0.6,0.3,0.5,0.5l-0.2,0.6l-6.4,18.6c-0.1,0.6-1.7,0.6-1.8,0L49,53.6z"/>
		<path d="M101.9,72.7L95.2,53c-0.1-0.2-0.1-0.5,0.5-0.5h2.5c0.2,0,0.4,0.1,0.5,0.5c0,0,4.3,12.9,4.4,13.3c0.2,0.5,0.3,0.9,0.5,1
			c0.2,0,0.3-0.4,0.5-0.8c0.2-0.5,5.2-13.5,5.2-13.5c0.1-0.2,0.1-0.3,0.2-0.4c0.1-0.1,0.2-0.1,0.3-0.1h1.6h0.9
			c0.6,0,0.6,0.3,0.5,0.5l-8.9,23l-2.2,5.4c-0.1,0.2-0.1,0.3-0.2,0.4c0,0.1-0.1,0.2-0.3,0.2h-2.3c-0.2,0-0.3-0.1-0.5-0.2
			c-0.1-0.1-0.1-0.2,0-0.4L101.9,72.7"/>
		<path d="M62.8,64.1c0-0.5,0.2-0.9,0.5-1.2c0.4-0.4,0.8-0.5,1.3-0.5c0.5,0,0.9,0.2,1.2,0.5c0.4,0.4,0.5,0.8,0.5,1.2
			c0,0.5-0.2,0.9-0.5,1.3c-0.3,0.3-0.8,0.5-1.2,0.5c-0.5,0-0.9-0.2-1.2-0.5C63,65.1,62.8,64.6,62.8,64.1z"/>
		<path d="M74.7,55.8c-0.4,0.2-0.8,0.4-1.1,0.7c-0.1,0.1-0.2,0.2-0.3,0.3L73,57c-0.3,0.4-0.5,0.8-0.7,1.2C72.1,58.8,72,59.4,72,60
			v12c0,0.3-0.2,0.5-0.5,0.5h-2c-0.3,0-0.5-0.2-0.5-0.5V60c0-0.5,0-0.9,0.1-1.4c0.1-0.5,0.3-1,0.5-1.5c0.4-0.9,0.9-1.7,1.6-2.4
			c0.7-0.7,1.5-1.2,2.4-1.6c0.5-0.2,1-0.4,1.5-0.5c0.3-0.1,0.6-0.1,0.9-0.2h0.6c4.1-0.1,6,2.4,6.5,2.9c0.2,0.2,0.3,0.7-0.1,0.8
			l-1.8,0.5c-0.5,0.2-0.8,0.1-1.2-0.2C79.7,56.3,77.5,54.7,74.7,55.8z"/>
		<path d="M94.1,57.1c-0.4-0.9-0.9-1.7-1.6-2.4c-0.7-0.7-3.1-2.7-8.1-1.8c-0.5,0.2-0.4,0.5,0.1,1c0.2,0.2,1,1.1,1.3,1.3
			c0.6,0.4,0.9,0.4,1.1,0.4c4.5-0.2,4.8,3.8,4.8,4.5v0.2c-0.1,0.2-0.2,0.4-0.5,0.4h-4.8c-0.8,0-1.6,0.2-2.3,0.5
			c-0.7,0.3-1.4,0.7-1.9,1.3c-0.6,0.5-1,1.2-1.3,1.9c-0.3,0.7-0.5,1.5-0.5,2.4c0,0.8,0.2,1.6,0.5,2.3c0.3,0.7,0.8,1.4,1.3,1.9
			c0.5,0.6,1.2,1,1.9,1.3c0.7,0.3,1.5,0.5,2.3,0.5H92h0.1h2c0.3,0,0.5-0.2,0.5-0.5V60C94.7,59,94.5,58,94.1,57.1z M91.6,69.5h-5.3
			c-0.8,0-3-0.5-3-3c0-0.9,0.4-1.7,0.9-2.2c1-0.9,2.1-0.8,2.1-0.8h4.8c0.3,0,0.4,0.1,0.5,0.4V69.5z"/>
	</g>
	<path d="M30.9,47.6c-8.2,0-14.9,6.7-14.9,14.9c0,8.2,6.7,14.9,14.9,14.9c8.2,0,14.9-6.7,14.9-14.9C45.8,54.3,39.2,47.6,30.9,47.6z
		 M24.8,50.8c1-1.1,2.7-2,5-2.2c0.4,0,0.7-0.1,1.1-0.1c3.8,0,7.1,1.6,9.6,4.1c-0.3-0.1-0.8-0.3-1.7-0.3c-7.4,0-9.9,14.5-12.1,14.5
		C25.2,66.9,20.2,55.9,24.8,50.8z M30.9,75.1c-7.3,0-13.3-5.9-13.3-13.3c0-4.3,2-8.1,5.2-10.5c-5.3,6,0.6,18.9,4.1,19.3
		c4.3,0.3,5.9-13.2,10.9-15c3.8-1.4,6.6,4.2,4.9,10.6C40.9,71.6,36.5,75,30.9,75.1z M31.2,52.2c2.1,0,3.8-0.5,3.8-1.2
		c0-0.6-1.7-1.2-3.8-1.2c-2.1,0-3.8,0.5-3.8,1.2C27.4,51.6,29.1,52.2,31.2,52.2z"/>
	<g>
		<g>
			<path d="M154.9,72.5V60.1h-2.3v-1.2h2.3v-1.7c0-0.7,0.1-1.3,0.3-1.8c0.2-0.5,0.5-1,0.8-1.4c0.3-0.4,0.8-0.6,1.3-0.8
				c0.5-0.2,1.1-0.3,1.7-0.3c0.3,0,0.5,0,0.8,0.1c0.3,0,0.5,0.1,0.8,0.2l-0.1,1.3c-0.2-0.1-0.4-0.1-0.6-0.1c-0.2,0-0.5,0-0.7,0
				c-0.8,0-1.5,0.3-1.9,0.8c-0.5,0.5-0.7,1.3-0.7,2.2v1.7h3.3v1.2h-3.3v12.4H154.9z"/>
			<path d="M156.5,72.6h-1.6V60.1h-2.3v-1.3h2.3v-1.7c0-0.7,0.1-1.3,0.3-1.9c0.2-0.5,0.5-1,0.8-1.4c0.3-0.4,0.8-0.6,1.3-0.8
				c0.5-0.2,1.1-0.3,1.7-0.3c0.3,0,0.5,0,0.8,0.1c0.3,0,0.5,0.1,0.8,0.2l0,0l0,0l-0.1,1.3l0,0c-0.2-0.1-0.4-0.1-0.6-0.1
				c-0.2,0-0.5,0-0.7,0c-0.8,0-1.5,0.3-1.9,0.8c-0.5,0.5-0.7,1.3-0.7,2.2v1.7h3.3v1.3h-3.3V72.6z M155,72.5h1.5V60.1h3.3v-1.2h-3.3
				v-1.7c0-1,0.2-1.7,0.7-2.2c0.5-0.5,1.1-0.8,2-0.8c0.3,0,0.5,0,0.7,0c0.2,0,0.4,0.1,0.6,0.1l0.1-1.2c-0.3-0.1-0.5-0.1-0.8-0.2
				c-0.3,0-0.5-0.1-0.8-0.1c-0.6,0-1.2,0.1-1.7,0.3c-0.5,0.2-0.9,0.5-1.3,0.8c-0.3,0.4-0.6,0.8-0.8,1.3c-0.2,0.5-0.3,1.2-0.3,1.8
				v1.7h-2.3v1.2h2.3V72.5z"/>
		</g>
		<g>
			<path d="M159.5,65.5c0-1,0.1-1.9,0.4-2.8c0.3-0.8,0.7-1.6,1.2-2.2c0.5-0.6,1.2-1.1,1.9-1.4c0.7-0.3,1.6-0.5,2.5-0.5
				c0.9,0,1.8,0.2,2.5,0.5c0.8,0.3,1.4,0.8,1.9,1.4c0.5,0.6,0.9,1.3,1.2,2.2c0.3,0.8,0.4,1.8,0.4,2.8v0.4c0,1-0.1,1.9-0.4,2.8
				c-0.3,0.8-0.7,1.6-1.2,2.2c-0.5,0.6-1.2,1.1-1.9,1.4c-0.7,0.3-1.6,0.5-2.5,0.5c-0.9,0-1.8-0.2-2.5-0.5c-0.7-0.3-1.4-0.8-1.9-1.4
				c-0.5-0.6-0.9-1.3-1.2-2.2c-0.3-0.8-0.4-1.8-0.4-2.8V65.5z M161,65.9c0,0.7,0.1,1.5,0.3,2.1c0.2,0.7,0.5,1.3,0.9,1.8
				c0.4,0.5,0.9,0.9,1.4,1.2c0.6,0.3,1.2,0.5,2,0.5c0.7,0,1.4-0.2,2-0.5c0.6-0.3,1-0.7,1.4-1.2c0.4-0.5,0.7-1.1,0.9-1.8
				c0.2-0.7,0.3-1.4,0.3-2.1v-0.4c0-0.7-0.1-1.4-0.3-2.1c-0.2-0.7-0.5-1.3-0.9-1.8c-0.4-0.5-0.9-0.9-1.4-1.2c-0.6-0.3-1.2-0.5-2-0.5
				c-0.7,0-1.4,0.2-2,0.5c-0.6,0.3-1,0.7-1.4,1.2c-0.4,0.5-0.7,1.1-0.9,1.8c-0.2,0.7-0.3,1.4-0.3,2.1V65.9z"/>
			<path d="M165.6,72.8c-0.9,0-1.8-0.2-2.5-0.5c-0.7-0.3-1.4-0.8-1.9-1.4c-0.5-0.6-1-1.3-1.2-2.2c-0.3-0.8-0.4-1.8-0.4-2.8v-0.4
				c0-1,0.1-1.9,0.4-2.8c0.3-0.8,0.7-1.6,1.2-2.2c0.5-0.6,1.2-1.1,1.9-1.4c0.7-0.3,1.6-0.5,2.5-0.5c0.9,0,1.8,0.2,2.5,0.5
				c0.8,0.3,1.4,0.8,1.9,1.4s0.9,1.3,1.2,2.2c0.3,0.8,0.4,1.8,0.4,2.8v0.4c0,1-0.1,1.9-0.4,2.8c-0.3,0.8-0.7,1.6-1.2,2.2
				c-0.5,0.6-1.2,1.1-1.9,1.4C167.4,72.6,166.6,72.8,165.6,72.8z M165.6,58.6c-0.9,0-1.8,0.2-2.5,0.5c-0.7,0.3-1.4,0.8-1.9,1.4
				c-0.5,0.6-0.9,1.3-1.2,2.2c-0.3,0.8-0.4,1.8-0.4,2.7v0.4c0,1,0.1,1.9,0.4,2.7c0.3,0.8,0.7,1.6,1.2,2.2c0.5,0.6,1.2,1.1,1.9,1.4
				c0.7,0.3,1.6,0.5,2.5,0.5c0.9,0,1.8-0.2,2.5-0.5c0.7-0.3,1.4-0.8,1.9-1.4c0.5-0.6,0.9-1.3,1.2-2.2c0.3-0.8,0.4-1.8,0.4-2.7v-0.4
				c0-1-0.1-1.9-0.4-2.7c-0.3-0.8-0.7-1.6-1.2-2.2c-0.5-0.6-1.2-1.1-1.9-1.4C167.4,58.8,166.5,58.6,165.6,58.6z M165.6,71.5
				c-0.7,0-1.4-0.2-2-0.5c-0.6-0.3-1.1-0.7-1.4-1.2c-0.4-0.5-0.7-1.1-0.9-1.8c-0.2-0.7-0.3-1.4-0.3-2.1v-0.4c0-0.7,0.1-1.4,0.3-2.1
				c0.2-0.7,0.5-1.3,0.9-1.8c0.4-0.5,0.9-0.9,1.4-1.2c0.6-0.3,1.2-0.5,2-0.5c0.7,0,1.4,0.2,2,0.5c0.6,0.3,1.1,0.7,1.5,1.2
				c0.4,0.5,0.7,1.1,0.9,1.8c0.2,0.7,0.3,1.4,0.3,2.1v0.4c0,0.7-0.1,1.5-0.3,2.1c-0.2,0.7-0.5,1.3-0.9,1.8c-0.4,0.5-0.9,0.9-1.4,1.2
				C167,71.4,166.4,71.5,165.6,71.5z M165.6,59.9c-0.7,0-1.4,0.2-1.9,0.5c-0.6,0.3-1,0.7-1.4,1.2c-0.4,0.5-0.7,1.1-0.9,1.8
				c-0.2,0.7-0.3,1.4-0.3,2.1v0.4c0,0.7,0.1,1.5,0.3,2.1c0.2,0.7,0.5,1.3,0.9,1.8c0.4,0.5,0.9,0.9,1.4,1.2c0.6,0.3,1.2,0.5,2,0.5
				c0.7,0,1.4-0.2,2-0.5c0.6-0.3,1-0.7,1.4-1.2c0.4-0.5,0.7-1.1,0.9-1.8c0.2-0.7,0.3-1.4,0.3-2.1v-0.4c0-0.7-0.1-1.4-0.3-2.1
				c-0.2-0.7-0.5-1.3-0.9-1.8c-0.4-0.5-0.9-0.9-1.4-1.2C167,60.1,166.3,59.9,165.6,59.9z"/>
		</g>
		<g>
			<path d="M179.8,60.2c-0.3-0.1-0.7-0.1-1-0.1c-0.5,0-1,0.1-1.4,0.2c-0.4,0.2-0.8,0.4-1.1,0.6c-0.3,0.3-0.6,0.6-0.8,1
				c-0.2,0.4-0.4,0.8-0.5,1.2v9.4h-1.5V58.9h1.5l0,2.2c0.4-0.7,0.9-1.3,1.5-1.8c0.6-0.4,1.4-0.7,2.3-0.7c0.2,0,0.4,0,0.6,0.1
				c0.2,0,0.3,0.1,0.4,0.1L179.8,60.2z"/>
			<path d="M175,72.6h-1.5V58.8h1.5l0,0l0,2.1c0.4-0.7,0.9-1.3,1.5-1.7c0.6-0.4,1.4-0.7,2.4-0.7c0.2,0,0.4,0,0.6,0.1
				c0.2,0,0.3,0.1,0.4,0.1l0,0l0,0l0,1.4l0,0c-0.3-0.1-0.7-0.1-1-0.1c-0.5,0-1,0.1-1.4,0.2c-0.4,0.2-0.8,0.4-1.1,0.6
				c-0.3,0.3-0.6,0.6-0.8,1c-0.2,0.4-0.4,0.8-0.5,1.2V72.6z M173.5,72.5h1.5l0-9.4c0.1-0.5,0.3-0.9,0.5-1.2c0.2-0.4,0.5-0.7,0.8-1
				c0.3-0.3,0.7-0.5,1.1-0.6c0.4-0.2,0.9-0.2,1.4-0.2c0.4,0,0.7,0,1,0.1l0-1.3c-0.1,0-0.2-0.1-0.4-0.1c-0.2,0-0.4-0.1-0.6-0.1
				c-0.9,0-1.7,0.2-2.3,0.6c-0.6,0.4-1.1,1-1.5,1.8l0,0.1l0-2.2h-1.4V72.5z"/>
		</g>
		<g>
			<path d="M182.3,58.9l0.1,2.2c0.2-0.4,0.5-0.7,0.8-1c0.3-0.3,0.6-0.6,1-0.8c0.4-0.2,0.8-0.4,1.2-0.5c0.4-0.1,0.9-0.2,1.4-0.2
				c1,0,1.9,0.2,2.6,0.6c0.7,0.4,1.2,1.1,1.5,2c0.2-0.4,0.5-0.7,0.8-1.1c0.3-0.3,0.7-0.6,1-0.8c0.4-0.2,0.8-0.4,1.3-0.6
				c0.5-0.1,1-0.2,1.5-0.2c0.7,0,1.3,0.1,1.9,0.3c0.6,0.2,1,0.5,1.4,0.9c0.4,0.4,0.7,0.9,0.9,1.6c0.2,0.6,0.3,1.4,0.3,2.3v8.9h-1.5
				v-8.9c0-0.7-0.1-1.3-0.2-1.8c-0.2-0.5-0.4-0.9-0.7-1.1c-0.3-0.3-0.6-0.5-1.1-0.6c-0.4-0.1-0.9-0.2-1.3-0.2
				c-0.6,0-1.2,0.1-1.7,0.3c-0.5,0.2-0.9,0.5-1.2,0.8c-0.3,0.3-0.6,0.7-0.8,1.1c-0.2,0.4-0.3,0.8-0.3,1.2v9h-1.5v-9
				c0-0.7-0.1-1.3-0.2-1.7c-0.2-0.5-0.4-0.8-0.7-1.1c-0.3-0.3-0.6-0.5-1.1-0.6c-0.4-0.1-0.9-0.2-1.4-0.2c-0.6,0-1.1,0.1-1.5,0.3
				c-0.4,0.2-0.8,0.4-1.1,0.7c-0.3,0.3-0.6,0.6-0.8,1c-0.2,0.4-0.4,0.8-0.5,1.2v9.4h-1.5V58.9H182.3z"/>
			<path d="M200,72.6h-1.6v-8.9c0-0.7-0.1-1.3-0.2-1.8c-0.2-0.5-0.4-0.9-0.7-1.1c-0.3-0.3-0.6-0.5-1-0.6c-0.4-0.1-0.9-0.2-1.3-0.2
				c-0.6,0-1.2,0.1-1.7,0.3c-0.5,0.2-0.9,0.5-1.2,0.8c-0.3,0.3-0.6,0.7-0.8,1.1c-0.2,0.4-0.3,0.8-0.3,1.2v9.1h-1.6v-9.1
				c0-0.7-0.1-1.2-0.2-1.7c-0.2-0.5-0.4-0.8-0.7-1.1c-0.3-0.3-0.6-0.5-1-0.6c-0.4-0.1-0.9-0.2-1.4-0.2c-0.6,0-1.1,0.1-1.5,0.3
				c-0.4,0.2-0.8,0.4-1.1,0.7c-0.3,0.3-0.6,0.6-0.8,1c-0.2,0.4-0.4,0.8-0.5,1.2v9.4h-1.6V58.8h1.5l0,0l0,2.2c0.2-0.4,0.5-0.7,0.8-1
				c0.3-0.3,0.6-0.6,1-0.8c0.4-0.2,0.8-0.4,1.2-0.5c0.4-0.1,0.9-0.2,1.4-0.2c1,0,1.9,0.2,2.6,0.6c0.7,0.4,1.2,1.1,1.5,2
				c0.2-0.4,0.5-0.7,0.8-1c0.3-0.3,0.7-0.6,1.1-0.8c0.4-0.2,0.8-0.4,1.3-0.6c0.5-0.1,1-0.2,1.5-0.2c0.7,0,1.3,0.1,1.9,0.3
				c0.6,0.2,1,0.5,1.4,0.9c0.4,0.4,0.7,0.9,0.9,1.6c0.2,0.6,0.3,1.4,0.3,2.3V72.6z M198.5,72.5h1.5v-8.9c0-0.9-0.1-1.6-0.3-2.3
				c-0.2-0.6-0.5-1.1-0.9-1.6c-0.4-0.4-0.9-0.7-1.4-0.9c-0.6-0.2-1.2-0.3-1.9-0.3c-0.5,0-1.1,0.1-1.5,0.2c-0.5,0.1-0.9,0.3-1.3,0.6
				c-0.4,0.2-0.7,0.5-1,0.8c-0.3,0.3-0.6,0.7-0.8,1.1l0,0l0,0c-0.3-0.9-0.8-1.6-1.5-2c-0.7-0.4-1.6-0.6-2.6-0.6
				c-0.5,0-1,0.1-1.4,0.2c-0.4,0.1-0.8,0.3-1.2,0.5c-0.4,0.2-0.7,0.5-1,0.8c-0.3,0.3-0.6,0.6-0.8,1l0,0.1l-0.1-2.3h-1.4v13.6h1.5
				l0-9.4c0.1-0.4,0.3-0.8,0.5-1.2c0.2-0.4,0.5-0.7,0.8-1c0.3-0.3,0.7-0.5,1.1-0.7c0.4-0.2,1-0.3,1.5-0.3c0.5,0,1,0.1,1.4,0.2
				c0.4,0.1,0.8,0.3,1.1,0.6c0.3,0.3,0.5,0.7,0.7,1.1c0.2,0.5,0.2,1,0.2,1.7v9h1.5v-9c0-0.4,0.1-0.8,0.3-1.2
				c0.2-0.4,0.4-0.8,0.8-1.1c0.3-0.3,0.7-0.6,1.2-0.9c0.5-0.2,1-0.3,1.7-0.3c0.5,0,0.9,0.1,1.4,0.2c0.4,0.1,0.8,0.3,1.1,0.6
				c0.3,0.3,0.5,0.7,0.7,1.1c0.2,0.5,0.2,1.1,0.2,1.8V72.5z"/>
		</g>
		<g>
			<path d="M210.1,71.2h11.4v1.3h-13.2v-1.2l10.9-15.9h-10.6v-1.3h12.5v1.1L210.1,71.2z"/>
			<path d="M221.5,72.6h-13.3v-1.2l0,0l10.9-15.9h-10.6v-1.4h12.5v1.1l0,0l-10.9,15.9h11.3V72.6z M208.2,72.5h13.2v-1.3h-11.4l0,0
				l11-16v-1.1h-12.5v1.3h10.6l0,0l-10.9,15.9V72.5z"/>
		</g>
		<g>
			<path d="M203.9,63.1c0-0.3,0.1-0.6,0.3-0.8c0.2-0.2,0.5-0.3,0.8-0.3c0.3,0,0.6,0.1,0.8,0.3c0.2,0.2,0.3,0.5,0.3,0.8
				c0,0.3-0.1,0.6-0.3,0.8c-0.2,0.2-0.5,0.3-0.8,0.3c-0.3,0-0.6-0.1-0.8-0.3C204,63.6,203.9,63.4,203.9,63.1z"/>
		</g>
	</g>
</g>
</svg>
