<?xml version="1.0" encoding="UTF-8"?>
<svg width="267px" height="130px" viewBox="0 0 267 130" version="1.1" xmlns="http://www.w3.org/2000/svg" xmlns:xlink="http://www.w3.org/1999/xlink">
    <!-- Generator: Sketch 53.2 (72643) - https://sketchapp.com -->
    <title>v-ray for softimage</title>
    <desc>Created with Sketch.</desc>
    <defs>
        <polygon id="path-1" points="73 84.8184158 211.736436 84.8184158 211.736436 45.1980198 73 45.1980198"></polygon>
    </defs>
    <g id="v-ray-for-softimage" stroke="none" stroke-width="1" fill="none" fill-rule="evenodd">
        <rect id="Rectangle-Copy-6" stroke="#FFFFFF" x="-0.5" y="-0.5" width="267.25" height="131"></rect>
        <polygon id="Fill-1" fill="#000000" points="138.967921 84.8184158 139.641584 84.8184158 139.641584 45.1980198 138.967921 45.1980198"></polygon>
        <path d="M91.7007525,59.976396 L91.5819406,59.6991683 C91.5423366,59.5801584 91.4631287,59.3425347 91.8593663,59.3425347 L92.3348119,59.3425347 L93.1270891,59.3425347 C93.3253069,59.3425347 93.3649109,59.5405545 93.4045149,59.6197624 L95.5043168,65.7213465 C95.5043168,65.7213465 95.6629307,66.276 95.8213465,66.276 C95.9797624,66.276 96.1383762,65.7213465 96.1383762,65.7213465 L98.1985743,59.6197624 C98.2381782,59.5009505 98.2777822,59.3425347 98.5552079,59.3425347 L99.7437228,59.3425347 C100.060752,59.3425347 100.060752,59.5405545 100.021149,59.6197624 L99.9023366,59.9367921 L96.2571881,70.475802 C96.1777822,70.7928317 95.306297,70.7928317 95.2270891,70.475802 L91.7007525,59.976396 Z" id="Fill-2" fill="#000000"></path>
        <path d="M121.614317,70.7928515 L117.850356,59.5801782 C117.810752,59.4613663 117.810752,59.3029505 118.127782,59.3029505 L119.514515,59.3029505 C119.633129,59.3029505 119.752139,59.3821584 119.791743,59.5801782 C119.791743,59.5801782 122.208574,66.8702772 122.287782,67.108099 C122.406594,67.3855248 122.446198,67.6627525 122.604812,67.6627525 C122.723624,67.6627525 122.802832,67.4645347 122.88204,67.2269109 C123.00105,66.9100792 125.813921,59.5801782 125.813921,59.5801782 C125.853525,59.4613663 125.853525,59.4217624 125.932931,59.3821584 C125.972535,59.3425545 126.051743,59.3029505 126.091347,59.3029505 L127.002634,59.3029505 L127.557287,59.3029505 C127.913723,59.3029505 127.874119,59.5009703 127.834713,59.5801782 L122.763228,72.6152277 L121.495307,75.6661188 C121.455703,75.7849307 121.416099,75.8245347 121.376495,75.8641386 C121.336891,75.9435446 121.297287,75.9435446 121.218079,75.9435446 L119.950158,75.9435446 C119.831347,75.9435446 119.791743,75.9039406 119.712535,75.8641386 C119.672733,75.8245347 119.672733,75.7453267 119.672733,75.6661188 L121.614317,70.7928515" id="Fill-4" fill="#000000"></path>
        <path d="M99.506099,65.919505 C99.506099,65.6422772 99.6249109,65.4042574 99.7833267,65.2062376 C99.9813465,65.0080198 100.219366,64.8894059 100.496594,64.8894059 C100.773822,64.8894059 101.011644,65.0080198 101.209861,65.2062376 C101.407881,65.4042574 101.526693,65.6422772 101.526693,65.919505 C101.526693,66.1967327 101.407881,66.4345545 101.209861,66.6327723 C101.011644,66.7909901 100.773822,66.91 100.496594,66.91 C100.219366,66.91 99.9813465,66.7909901 99.7833267,66.6327723 C99.5853069,66.4741584 99.506099,66.2365347 99.506099,65.919505" id="Fill-6" fill="#000000"></path>
        <path d="M106.241485,61.244198 C106.003861,61.3632079 105.805644,61.5216238 105.607624,61.6404356 C105.56802,61.6800396 105.488614,61.7196436 105.449208,61.7594455 L105.290594,61.8782574 C105.13198,62.0762772 104.973762,62.313901 104.894356,62.5519208 C104.735941,62.8687525 104.696337,63.1857822 104.696337,63.5422178 L104.696337,70.3570693 C104.696337,70.5550891 104.577525,70.634297 104.419109,70.634297 L103.309604,70.634297 C103.111386,70.634297 103.032376,70.5152871 103.032376,70.3570693 L103.032376,63.5422178 C103.032376,63.2649901 103.071782,63.0271683 103.111386,62.7499406 C103.190792,62.4329109 103.27,62.1556832 103.388812,61.8782574 C103.626634,61.3632079 103.903861,60.8875644 104.300099,60.4915248 C104.656733,60.0952871 105.13198,59.7784554 105.647228,59.5802376 C105.924455,59.4614257 106.201881,59.3822178 106.479307,59.3028119 C106.637723,59.2632079 106.835743,59.223604 106.994356,59.223604 L107.311188,59.223604 C109.609208,59.144396 110.678911,60.6103366 110.995941,60.8875644 C111.154554,61.0065743 111.154554,61.283802 110.956535,61.3632079 L109.926238,61.6404356 C109.648812,61.7594455 109.450792,61.7196436 109.252574,61.5216238 C109.094158,61.5216238 107.786832,60.5707327 106.241485,61.244198" id="Fill-8" fill="#000000"></path>
        <path d="M115.829584,69.009901 L112.818495,69.009901 C112.343248,68.970297 111.114733,68.6928713 111.114733,67.3061386 C111.114733,66.7910891 111.312752,66.3158416 111.62998,66.0778218 C112.184634,65.5629703 112.858099,65.6025743 112.858099,65.6025743 L115.59196,65.6025743 C115.750574,65.6025743 115.829584,65.6817822 115.869188,65.840198 L115.829584,69.009901 Z M117.176713,61.9574257 C116.939089,61.4423762 116.622059,60.9669307 116.265426,60.610297 C115.908792,60.2536634 114.522059,59.1049505 111.669386,59.5405941 C111.392158,59.6594059 111.431762,59.8180198 111.70899,60.0952475 C111.828,60.2140594 112.263842,60.7293069 112.461861,60.8481188 C112.778891,61.1255446 112.977109,61.0461386 113.095723,61.0461386 C115.631564,60.9273267 115.829584,63.2253465 115.829584,63.5819802 L115.829584,63.6609901 C115.78998,63.78 115.671168,63.8592079 115.552356,63.8592079 L112.858099,63.8592079 C112.422257,63.8592079 111.94701,63.9386139 111.550772,64.1366337 C111.114733,64.2950495 110.797901,64.5724752 110.441267,64.849703 C110.124238,65.1667327 109.886614,65.5233663 109.688396,65.919604 C109.530178,66.3158416 109.411168,66.7910891 109.411168,67.2269307 C109.411168,67.7023762 109.490376,68.1382178 109.688396,68.5344554 C109.84701,68.970297 110.124238,69.2871287 110.441267,69.6437624 C110.758297,69.9607921 111.114733,70.1984158 111.550772,70.3570297 C111.986614,70.5156436 112.382653,70.6342574 112.858099,70.6342574 L116.067406,70.6342574 L116.146614,70.6342574 L117.295525,70.6342574 C117.493743,70.6342574 117.57295,70.5156436 117.57295,70.3570297 L117.57295,63.5819802 C117.533347,63.0271287 117.414535,62.4328713 117.176713,61.9574257 L117.176713,61.9574257 Z" id="Fill-10" fill="#000000"></path>
        <path d="M81.6373267,59.1839406 C82.8258416,59.1839406 83.7767327,58.8669109 83.7767327,58.5104752 C83.8163366,58.1538416 82.8258416,57.8368119 81.6373267,57.8368119 C80.4486139,57.8368119 79.4977228,58.1538416 79.4581188,58.5104752 C79.4977228,58.8669109 80.4486139,59.1839406 81.6373267,59.1839406 M81.4391089,72.1795842 C77.2789109,72.1795842 73.9111881,68.8116634 73.9111881,64.6516634 C73.9111881,62.2348317 75.060297,60.0954257 76.8826733,58.7086931 C73.8715842,62.1160198 77.2393069,69.4061188 79.1808911,69.6041386 C81.5977228,69.7231485 82.5088119,62.1160198 85.3616832,61.1651287 C87.4614851,60.3726535 89.0858416,63.5423564 88.1349505,67.147703 C87.1048515,70.1589901 84.6088119,72.1003762 81.4391089,72.1795842 M77.9921782,58.3916634 C78.5864356,57.757802 79.5375248,57.2425545 80.8052475,57.1237426 C81.0428713,57.1237426 81.2410891,57.0841386 81.4391089,57.0841386 C83.5391089,57.0841386 85.480297,57.9954257 86.8670297,59.3821584 C86.6690099,59.3029505 86.3917822,59.2235446 85.9161386,59.2235446 C81.7561386,59.2235446 80.329604,67.4645347 79.0618812,67.4249307 C78.229802,67.5043366 75.4169307,61.3235446 77.9921782,58.3916634 M81.4391089,56.5690891 C76.8036634,56.5690891 73.000099,60.3726535 73.000099,65.008099 C73.000099,69.6437426 76.8036634,73.4473069 81.4391089,73.4473069 C86.0747525,73.4473069 89.8783168,69.6833465 89.8783168,65.008099 C89.9179208,60.3726535 86.1143564,56.5690891 81.4391089,56.5690891" id="Fill-12" fill="#000000"></path>
        <path d="M157.618535,67.9047327 C157.618535,67.2809703 157.399327,66.7869109 156.961109,66.4235446 C156.522693,66.0599802 155.720713,65.7144356 154.555366,65.3869109 C153.39002,65.0595842 152.539129,64.7023564 152.002891,64.3156238 C151.239525,63.7690891 150.857941,63.0522574 150.857941,62.1653267 C150.857941,61.3041386 151.212396,60.6041386 151.921505,60.0651287 C152.630614,59.5263168 153.53695,59.2568119 154.640515,59.2568119 C155.38804,59.2568119 156.057149,59.4013663 156.647842,59.6900792 C157.238139,59.9789901 157.69596,60.3811683 158.020713,60.8966139 C158.345663,61.4124554 158.50804,61.9873069 158.50804,62.6215644 L157.548832,62.6215644 C157.548832,61.8510693 157.285861,61.2316634 156.759921,60.7635446 C156.23398,60.2954257 155.527248,60.0613663 154.640515,60.0613663 C153.779129,60.0613663 153.093386,60.2536436 152.582891,60.6385941 C152.072396,61.0233465 151.817149,61.5255248 151.817149,62.1453267 C151.817149,62.7187921 152.046455,63.1861188 152.505663,63.547703 C152.964475,63.9092871 153.699327,64.228297 154.71002,64.5045347 C155.720713,64.7809703 156.486455,65.0673069 157.007446,65.3637426 C157.528238,65.6603762 157.920119,66.0148317 158.183287,66.4273069 C158.446257,66.8399802 158.577743,67.3273069 158.577743,67.8892871 C158.577743,68.7762178 158.223089,69.487901 157.514178,70.0241386 C156.805069,70.5605743 155.870416,70.8286931 154.71002,70.8286931 C153.91596,70.8286931 153.187446,70.6867129 152.524871,70.4031485 C151.862297,70.1197822 151.359525,69.7225545 151.016554,69.2120594 C150.673584,68.7013663 150.502099,68.1162178 150.502099,67.4560198 L151.453584,67.4560198 C151.453584,68.2502772 151.75002,68.8768119 152.343089,69.3358218 C152.936158,69.7948317 153.725069,70.0241386 154.71002,70.0241386 C155.586653,70.0241386 156.290614,69.8308713 156.821901,69.4439406 C157.352792,69.0572079 157.618535,68.5441386 157.618535,67.9047327" id="Fill-14" fill="#000000"></path>
        <path d="M159.688079,66.6206931 C159.688079,67.6212871 159.947287,68.4422772 160.465505,69.0842574 C160.983723,69.7264356 161.663129,70.0474257 162.503723,70.0474257 C163.33897,70.0474257 164.015802,69.7264356 164.534218,69.0842574 C165.052436,68.4422772 165.311446,67.5953465 165.311446,66.5432673 L165.311446,66.3654455 C165.311446,65.7260396 165.192832,65.1406931 164.955802,64.609604 C164.718376,64.0785149 164.385901,63.6672277 163.957782,63.3757426 C163.529663,63.0846535 163.03996,62.9387129 162.488277,62.9387129 C161.663129,62.9387129 160.990059,63.2624752 160.469267,63.909604 C159.948277,64.5567327 159.688079,65.4036634 159.688079,66.4505941 L159.688079,66.6206931 Z M158.75996,66.3654455 C158.75996,65.5608911 158.915802,64.8365347 159.227881,64.1917822 C159.539762,63.5472277 159.980752,63.0458416 160.550455,62.6874257 C161.120158,62.3290099 161.766099,62.149802 162.488277,62.149802 C163.602139,62.149802 164.504317,62.540495 165.195406,63.3216832 C165.886495,64.1028713 166.23204,65.1383168 166.23204,66.4272277 L166.23204,66.6206931 C166.23204,67.430396 166.076,68.1589109 165.764119,68.8058416 C165.451842,69.4531683 165.012436,69.9519802 164.445109,70.3026733 C163.877782,70.6533663 163.230851,70.8286139 162.503723,70.8286139 C161.394812,70.8286139 160.493624,70.4379208 159.800158,69.6567327 C159.106495,68.8755446 158.75996,67.840297 158.75996,66.5509901 L158.75996,66.3654455 Z" id="Fill-16" fill="#000000"></path>
        <path d="M167.667267,70.6739208 L167.667267,63.0624356 L166.282713,63.0624356 L166.282713,62.3044158 L167.667267,62.3044158 L167.667267,61.2911485 C167.667267,60.4353069 167.885089,59.7778812 168.320931,59.3186733 C168.756574,58.8598614 169.363703,58.6303564 170.142515,58.6303564 C170.493208,58.6303564 170.820535,58.6737228 171.124891,58.7606535 L171.055188,59.5275842 C170.797366,59.465604 170.516376,59.4347129 170.212218,59.4347129 C169.701525,59.4347129 169.304495,59.5937228 169.020931,59.9117426 C168.737168,60.2297624 168.595386,60.6808515 168.595386,61.2652079 L168.595386,62.3044158 L170.591228,62.3044158 L170.591228,63.0624356 L168.595386,63.0624356 L168.595386,70.6739208 L167.667267,70.6739208 Z" id="Fill-18" fill="#000000"></path>
        <path d="M172.544475,60.1618416 L172.544475,62.3044158 L174.277149,62.3044158 L174.277149,63.0624356 L172.544475,63.0624356 L172.544475,68.645802 C172.544475,69.1103564 172.628238,69.456495 172.79596,69.6834257 C172.963287,69.9105545 173.243089,70.0242178 173.635168,70.0242178 C173.789822,70.0242178 174.039921,69.9984752 174.385465,69.9467921 L174.424079,70.6982772 C174.181703,70.7850099 173.851802,70.8285743 173.43398,70.8285743 C172.799723,70.8285743 172.338139,70.6444158 172.049426,70.275505 C171.760515,69.9069901 171.616356,69.3642178 171.616356,68.6473861 L171.616356,63.0624356 L170.07695,63.0624356 L170.07695,62.3044158 L171.616356,62.3044158 L171.616356,60.1618416 L172.544475,60.1618416 Z" id="Fill-20" fill="#000000"></path>
        <mask id="mask-2" fill="white">
            <use xlink:href="#path-1"></use>
        </mask>
        <g id="Clip-23"></g>
        <path d="M175.163366,70.6738614 L176.091485,70.6738614 L176.091485,62.3043564 L175.163366,62.3043564 L175.163366,70.6738614 Z M175.000792,59.8873267 C175.000792,59.7130693 175.057426,59.5657426 175.170891,59.4451485 C175.284356,59.3249505 175.43901,59.2645545 175.63505,59.2645545 C175.830891,59.2645545 175.986931,59.3249505 176.10297,59.4451485 C176.21901,59.5657426 176.27703,59.7130693 176.27703,59.8873267 C176.27703,60.0615842 176.21901,60.2075248 176.10297,60.3255446 C175.986931,60.4433663 175.830891,60.5021782 175.63505,60.5021782 C175.43901,60.5021782 175.284356,60.4433663 175.170891,60.3255446 C175.057426,60.2075248 175.000792,60.0615842 175.000792,59.8873267 L175.000792,59.8873267 Z" id="Fill-22" fill="#000000" mask="url(#mask-2)"></path>
        <path d="M178.307941,62.304495 L178.338832,63.6658812 C178.648337,63.1605347 179.035069,62.7815248 179.499228,62.5288515 C179.963188,62.2761782 180.478832,62.1498416 181.046158,62.1498416 C182.366158,62.1498416 183.204376,62.6912277 183.56002,63.774198 C183.85903,63.2534059 184.258832,62.8526139 184.75903,62.5714257 C185.259228,62.2904356 185.811109,62.1498416 186.414475,62.1498416 C188.208931,62.1498416 189.124178,63.1296436 189.160416,65.0892475 L189.160416,70.674 L188.232099,70.674 L188.232099,65.1587525 C188.22695,64.4112277 188.065762,63.8567723 187.748733,63.4957822 C187.431505,63.1347921 186.914475,62.954198 186.197842,62.954198 C185.532495,62.9646931 184.970515,63.1799406 184.511505,63.6001386 C184.052495,64.0205347 183.797248,64.5322178 183.745762,65.1355842 L183.745762,70.674 L182.817446,70.674 L182.817446,65.0892475 C182.812297,64.3724158 182.643584,63.8373663 182.310911,63.484099 C181.978238,63.1310297 181.466356,62.954198 180.775465,62.954198 C180.192693,62.954198 179.692495,63.1205347 179.274871,63.4532079 C178.85705,63.7856832 178.547743,64.2797426 178.346554,64.934396 L178.346554,70.674 L177.418436,70.674 L177.418436,62.304495 L178.307941,62.304495 Z" id="Fill-24" fill="#000000" mask="url(#mask-2)"></path>
        <path d="M192.738238,70.0086931 C193.35705,70.0086931 193.910119,69.8591881 194.397446,69.5599802 C194.884772,69.2611683 195.239228,68.8613663 195.46101,68.3611683 L195.46101,66.5201782 L193.805762,66.5201782 C192.882594,66.5306733 192.160614,66.6993861 191.639822,67.0267129 C191.118832,67.3544356 190.858634,67.8041386 190.858634,68.3766139 C190.858634,68.8459208 191.032693,69.2352277 191.380812,69.5445347 C191.728733,69.8540396 192.181208,70.0086931 192.738238,70.0086931 L192.738238,70.0086931 Z M195.646752,70.6738416 C195.553881,70.4108713 195.494475,70.0215644 195.468733,69.5059208 C195.143782,69.9288911 194.730119,70.2550297 194.227347,70.4843366 C193.724376,70.7138416 193.191901,70.8286931 192.629921,70.8286931 C191.825564,70.8286931 191.174475,70.6043366 190.676851,70.1556238 C190.17903,69.7071089 189.930317,69.1397822 189.930317,68.4538416 C189.930317,67.6391881 190.269327,66.9946337 190.947545,66.5201782 C191.625564,66.0457228 192.570515,65.808495 193.782396,65.808495 L195.46101,65.808495 L195.46101,64.8570099 C195.46101,64.2589901 195.276455,63.788495 194.907941,63.4453267 C194.539228,63.1025545 194.001604,62.9310693 193.295267,62.9310693 C192.650515,62.9310693 192.116653,63.0962178 191.694079,63.4261188 C191.271109,63.7562178 191.059624,64.1532475 191.059624,64.6172079 L190.131505,64.6094851 C190.131505,63.9443366 190.440812,63.368099 191.059624,62.8807723 C191.678436,62.3934455 192.43903,62.1496832 193.341604,62.1496832 C194.274871,62.1496832 195.011109,62.3831485 195.549921,62.8498812 C196.088733,63.3166139 196.36596,63.967505 196.381406,64.8029505 L196.381406,68.7633465 C196.381406,69.5730495 196.466554,70.1787921 196.636653,70.5811683 L196.636653,70.6738416 L195.646752,70.6738416 Z" id="Fill-25" fill="#000000" mask="url(#mask-2)"></path>
        <path d="M198.272931,66.574297 C198.272931,67.6418218 198.486792,68.483802 198.914911,69.0998416 C199.342832,69.7160792 199.946198,70.024198 200.72501,70.024198 C201.864614,70.024198 202.671545,69.513703 203.146,68.4927129 L203.146,64.6018218 C202.929564,64.0655842 202.617287,63.6570693 202.210158,63.3758812 C201.802634,63.0948911 201.312931,62.954297 200.740455,62.954297 C199.961644,62.954297 199.355901,63.2598416 198.922634,63.8709307 C198.489564,64.4820198 198.272931,65.3830099 198.272931,66.574297 L198.272931,66.574297 Z M197.336891,66.4119208 C197.336891,65.1020198 197.62699,64.064198 198.207188,63.2984554 C198.787386,62.5327129 199.574911,62.1497426 200.570356,62.1497426 C201.709762,62.1497426 202.576099,62.603604 203.169366,63.5111287 L203.215703,62.3045941 L204.08204,62.3045941 L204.08204,70.503802 C204.08204,71.5814257 203.780257,72.4348911 203.177089,73.064 C202.573723,73.6931089 201.756297,74.0077624 200.72501,74.0077624 C200.14204,74.0077624 199.586594,73.8774653 199.058079,73.6170693 C198.529366,73.3566733 198.112931,73.0099406 197.808772,72.5768713 L198.32699,72.0198416 C198.981842,72.824396 199.760653,73.2265743 200.66303,73.2265743 C201.436693,73.2265743 202.039861,72.9982574 202.473129,72.5420198 C202.906198,72.0855842 203.130554,71.4525149 203.146,70.6430099 L203.146,69.5909307 C202.552931,70.4160792 201.689168,70.8285545 200.554713,70.8285545 C199.585208,70.8285545 198.806594,70.4418218 198.218871,69.6683564 C197.63095,68.8948911 197.336891,67.8505347 197.336891,66.5356832 L197.336891,66.4119208 Z" id="Fill-26" fill="#000000" mask="url(#mask-2)"></path>
        <path d="M208.425703,62.9387723 C207.729465,62.9387723 207.142733,63.1940198 206.665901,63.7045149 C206.188871,64.2150099 205.898772,64.9009505 205.795802,65.7621386 L210.815802,65.7621386 L210.815802,65.6615446 C210.789861,64.8571881 210.560554,64.2023366 210.127485,63.6967921 C209.694218,63.1914455 209.126891,62.9387723 208.425703,62.9387723 M208.595802,70.8286733 C207.884317,70.8286733 207.24095,70.6534257 206.665901,70.3027327 C206.090851,69.9520396 205.643525,69.4633267 205.323921,68.8367921 C205.004119,68.2102574 204.844317,67.5076832 204.844317,66.7290693 L204.844317,66.396396 C204.844317,65.5918416 205.000158,64.8674851 205.312238,64.2227327 C205.624317,63.5781782 206.058772,63.0716436 206.615604,62.7029307 C207.172634,62.3342178 207.776,62.1498614 208.425703,62.1498614 C209.441545,62.1498614 210.247287,62.4967921 210.842931,63.1902574 C211.438574,63.8837228 211.736396,64.8314455 211.736396,66.0328317 L211.736396,66.5510495 L205.764713,66.5510495 L205.764713,66.7290693 C205.764713,67.6779802 206.036792,68.4682772 206.58095,69.0997624 C207.124911,69.7316436 207.809465,70.0472871 208.634614,70.0472871 C209.129663,70.0472871 209.566693,69.9571881 209.945703,69.7765941 C210.324713,69.596198 210.668871,69.3074851 210.978376,68.9102574 L211.558376,69.3512475 C210.877782,70.336198 209.890257,70.8286733 208.595802,70.8286733" id="Fill-27" fill="#000000" mask="url(#mask-2)"></path>
    </g>
</svg>