<?xml version="1.0" encoding="utf-8"?>
<!-- Generator: Adobe Illustrator 24.0.2, SVG Export Plug-In . SVG Version: 6.00 Build 0)  -->
<svg version="1.1" id="Layer_1" xmlns="http://www.w3.org/2000/svg" xmlns:xlink="http://www.w3.org/1999/xlink" x="0px" y="0px"
	 width="300px" height="125px" viewBox="0 0 300 125" style="enable-background:new 0 0 300 125;" xml:space="preserve">
<style type="text/css">
	.st0{fill:#231F20;}
	.st1{fill:#808184;}
	.st2{fill:#FFFFFF;}
</style>
<g>
	<path class="st0" d="M61.3,62.5c0,12.5-10.1,22.6-22.6,22.6C26.2,85.1,16,75,16,62.5s10.1-22.6,22.6-22.6
		C51.1,39.9,61.3,50,61.3,62.5"/>
	<polygon class="st1" points="40.2,75.4 36.3,75.4 26,54.3 29.9,54.3 	"/>
	<polygon class="st2" points="40.5,75.4 36.2,75.4 45.2,57.2 42.9,55.9 50.1,51.7 50.8,60.1 48.5,59 	"/>
	<path class="st0" d="M69.7,56.8h2.9l4.5,10.7c0.1,0.2,0.2,0.4,0.3,0.7c0.1,0.3,0.2,0.6,0.3,0.8c0.1,0.4,0.3,0.7,0.4,1.1
		c0.1-0.4,0.2-0.8,0.4-1c0.1-0.3,0.2-0.6,0.3-0.8c0.1-0.3,0.2-0.6,0.3-0.8l4.5-10.7h2.9l-7.1,15.9h-2.7L69.7,56.8z"/>
	<path class="st0" d="M76.8,72.6h2.5l7-15.7h-2.6l-4.4,10.7c-0.1,0.2-0.2,0.5-0.3,0.8c-0.1,0.3-0.2,0.6-0.3,0.8
		c-0.1,0.4-0.2,0.7-0.4,1l-0.1,0.4l-0.1-0.4c-0.1-0.4-0.3-0.8-0.4-1c-0.1-0.3-0.2-0.6-0.3-0.8s-0.2-0.6-0.3-0.7L72.6,57h-2.7
		L76.8,72.6z M79.5,72.9h-2.9v-0.1l-7.1-16h3.2v0.1l4.5,10.7c0.1,0.2,0.2,0.4,0.3,0.8c0.1,0.3,0.2,0.6,0.3,0.8
		c0.1,0.2,0.2,0.5,0.3,0.8c0.1-0.3,0.2-0.5,0.2-0.7c0.1-0.3,0.2-0.6,0.3-0.8c0.1-0.3,0.2-0.6,0.3-0.8l4.5-10.8h3.1L86.4,57
		L79.5,72.9z"/>
	<path class="st0" d="M91.3,72.7h-2.6V60.6c0-0.7,0-1.3,0-2c0-0.7,0-1.3-0.1-1.9h2.6l0.1,2.4c0.5-0.8,1-1.6,1.9-2.1
		c0.8-0.5,1.6-0.8,2.6-0.8c0.7,0,1.2,0.1,1.8,0.2v2.4c-0.2-0.1-0.5-0.2-0.8-0.3c-0.3-0.1-0.7-0.1-1-0.1c-0.7,0-1.2,0.1-1.8,0.4
		c-0.6,0.3-1,0.6-1.4,1c-0.4,0.5-0.7,1-0.8,1.7s-0.3,1.4-0.3,2.2L91.3,72.7L91.3,72.7z"/>
	<path class="st0" d="M88.7,72.6h2.5v-8.7c0-0.8,0.1-1.6,0.3-2.3s0.6-1.2,0.9-1.7c0.4-0.5,0.8-0.8,1.4-1c0.6-0.3,1.1-0.4,1.8-0.4
		c0.4,0,0.8,0,1,0.1c0.3,0.1,0.5,0.1,0.7,0.2v-2.1c-0.5-0.1-1-0.2-1.6-0.2c-0.9,0-1.8,0.3-2.5,0.8c-0.8,0.5-1.3,1.1-1.8,2l-0.2,0.4
		l-0.1-2.7h-2.5c0,0.6,0,1.1,0.1,1.8c0,0.7,0,1.3,0,2L88.7,72.6L88.7,72.6z M91.5,72.9h-2.9V60.6c0-0.7,0-1.3,0-2
		c0-0.7,0-1.3-0.1-1.9v-0.1h2.9l0.1,2.1c0.5-0.8,1-1.3,1.7-1.7c0.8-0.5,1.7-0.8,2.6-0.8c0.7,0,1.2,0.1,1.8,0.2h0.1v2.7l-0.2-0.1
		c-0.2-0.1-0.5-0.2-0.8-0.3c-0.3-0.1-0.7-0.1-1-0.1c-0.7,0-1.2,0.1-1.7,0.4c-0.6,0.2-0.9,0.6-1.3,1c-0.4,0.5-0.7,0.9-0.8,1.6
		c-0.2,0.7-0.3,1.3-0.3,2.2L91.5,72.9L91.5,72.9z"/>
	<path class="st0" d="M110.2,59.6c-0.6-0.4-1.3-0.7-2.1-0.8c-0.8-0.2-1.7-0.3-2.5-0.3c-0.5,0-0.9,0.1-1.4,0.2
		c-0.4,0.1-0.8,0.3-1.1,0.5c-0.3,0.2-0.6,0.4-0.8,0.7c-0.2,0.3-0.3,0.6-0.3,0.9s0.1,0.7,0.3,0.9c0.2,0.3,0.5,0.5,0.8,0.7
		c0.3,0.2,0.7,0.4,1.1,0.5c0.4,0.2,0.8,0.3,1.3,0.5c0.5,0.1,0.8,0.3,1.4,0.4c0.5,0.1,0.9,0.3,1.5,0.5c0.5,0.2,0.9,0.4,1.4,0.7
		c0.5,0.3,0.8,0.6,1.1,0.8c0.4,0.4,0.6,0.8,0.8,1.1c0.2,0.5,0.3,0.9,0.3,1.5c0,0.8-0.2,1.5-0.6,2.1c-0.4,0.6-0.9,1.1-1.5,1.5
		c-0.7,0.4-1.4,0.7-2.2,0.8c-0.8,0.2-1.7,0.3-2.5,0.3c-0.6,0-1.1,0-1.7-0.1c-0.6-0.1-1.1-0.2-1.6-0.3c-0.5-0.2-1-0.4-1.4-0.6
		c-0.5-0.2-0.8-0.5-1.1-0.8l0.8-2.1c0.3,0.4,0.7,0.7,1,0.8c0.4,0.3,0.8,0.5,1.2,0.6c0.5,0.2,0.9,0.3,1.4,0.3
		c0.5,0.1,0.9,0.1,1.4,0.1c0.6,0,1.1-0.1,1.7-0.2c0.5-0.1,0.9-0.3,1.3-0.5c0.4-0.2,0.7-0.5,0.8-0.8s0.3-0.7,0.3-1.1
		s-0.1-0.8-0.4-1.1c-0.3-0.3-0.6-0.6-1-0.8c-0.4-0.2-0.9-0.4-1.5-0.6s-1.2-0.4-1.9-0.6c-0.8-0.3-1.5-0.5-2.2-0.8
		c-0.7-0.3-1.2-0.6-1.7-0.9c-0.5-0.4-0.8-0.8-1-1.2c-0.3-0.5-0.4-1-0.4-1.7c0-0.8,0.2-1.4,0.6-1.9c0.4-0.6,0.8-1,1.4-1.3
		c0.6-0.4,1.2-0.7,2-0.8c0.8-0.2,1.5-0.3,2.3-0.3c1.1,0,2.2,0.1,3.1,0.3c0.9,0.2,1.8,0.6,2.5,1L110.2,59.6z"/>
	<path class="st0" d="M99.4,71.3c0.3,0.3,0.7,0.6,1,0.8c0.5,0.2,0.9,0.4,1.4,0.6c0.5,0.2,1,0.3,1.6,0.3c1.4,0.2,2.8,0.1,4.2-0.2
		c0.8-0.2,1.5-0.5,2.2-0.8c0.7-0.4,1.1-0.8,1.5-1.4c0.4-0.6,0.6-1.2,0.6-2.1c0-0.6-0.1-1-0.3-1.5s-0.5-0.8-0.8-1.1
		c-0.4-0.3-0.8-0.6-1.1-0.8c-0.5-0.3-0.9-0.5-1.4-0.7s-0.9-0.4-1.4-0.5c-0.5-0.1-0.9-0.3-1.4-0.4c-0.5-0.1-0.9-0.3-1.3-0.5
		c-0.5-0.2-0.8-0.3-1.1-0.6c-0.3-0.2-0.6-0.5-0.8-0.7c-0.2-0.3-0.3-0.7-0.3-1c0-0.4,0.1-0.7,0.3-0.9c0.2-0.3,0.5-0.6,0.8-0.8
		s0.7-0.4,1.1-0.5s0.9-0.2,1.4-0.2c0.8,0,1.8,0.1,2.5,0.3c0.8,0.2,1.4,0.4,2,0.8l0.6-1.6c-0.7-0.5-1.4-0.8-2.3-0.9
		c-0.9-0.2-2-0.3-3.1-0.3c-0.8,0-1.5,0.1-2.2,0.3c-0.8,0.2-1.3,0.5-1.9,0.8c-0.6,0.4-1,0.8-1.3,1.3c-0.4,0.6-0.5,1.1-0.5,1.9
		c0,0.7,0.1,1.2,0.4,1.7c0.3,0.5,0.6,0.8,1,1.2s1,0.7,1.6,0.9c0.7,0.3,1.4,0.6,2.2,0.8c0.7,0.2,1.3,0.4,1.9,0.6
		c0.6,0.2,1.1,0.4,1.5,0.6c0.5,0.2,0.8,0.5,1,0.8c0.3,0.3,0.4,0.8,0.4,1.2s-0.1,0.8-0.4,1.1c-0.2,0.3-0.6,0.6-0.9,0.8
		c-0.4,0.2-0.8,0.4-1.3,0.5c-0.9,0.2-2,0.2-3.1,0.1c-0.5-0.1-0.9-0.2-1.4-0.4c-0.5-0.2-0.8-0.4-1.3-0.6c-0.4-0.2-0.7-0.5-0.9-0.8
		L99.4,71.3z M105.2,73.2c-0.6,0-1.1,0-1.7-0.1c-0.6-0.1-1.1-0.2-1.6-0.3c-0.6-0.2-1-0.4-1.4-0.6c-0.5-0.2-0.8-0.6-1.1-0.8l-0.1-0.1
		l0.8-2.4l0.1,0.2c0.3,0.3,0.7,0.6,1,0.8c0.4,0.2,0.8,0.4,1.2,0.6s0.9,0.3,1.4,0.3c1.1,0.2,2.2,0.1,3-0.1c0.5-0.1,0.9-0.3,1.3-0.5
		c0.4-0.2,0.7-0.5,0.8-0.8s0.3-0.7,0.3-1c0-0.5-0.1-0.8-0.4-1c-0.2-0.3-0.6-0.6-0.9-0.8c-0.4-0.2-0.9-0.4-1.5-0.6
		c-0.6-0.2-1.2-0.4-1.9-0.6c-0.8-0.3-1.5-0.5-2.3-0.8c-0.7-0.3-1.2-0.6-1.7-0.9c-0.5-0.4-0.8-0.8-1-1.3c-0.3-0.5-0.4-1.1-0.4-1.8
		c0-0.8,0.2-1.4,0.6-2c0.4-0.6,0.8-1,1.4-1.4c0.6-0.4,1.2-0.7,2-0.8c0.8-0.2,1.5-0.3,2.3-0.3c1.1,0,2.2,0.1,3.1,0.3
		c0.9,0.2,1.8,0.6,2.5,1l0.1,0.1l-0.8,2.1l-0.1-0.1c-0.6-0.4-1.2-0.7-2.1-0.8c-0.8-0.2-1.7-0.3-2.5-0.3c-0.5,0-0.9,0.1-1.3,0.2
		c-0.4,0.1-0.8,0.3-1,0.5s-0.6,0.4-0.7,0.7c-0.2,0.3-0.3,0.6-0.3,0.8c0,0.4,0.1,0.7,0.3,0.8c0.2,0.3,0.4,0.5,0.8,0.7
		c0.3,0.2,0.7,0.4,1,0.5c0.4,0.2,0.8,0.3,1.3,0.5c0.5,0.1,0.8,0.3,1.4,0.4c0.5,0.1,0.9,0.3,1.5,0.5c0.5,0.2,0.9,0.4,1.4,0.7
		c0.5,0.3,0.8,0.6,1.2,0.8c0.4,0.4,0.7,0.8,0.8,1.2s0.3,1,0.3,1.6c0,0.8-0.2,1.5-0.6,2.2c-0.4,0.6-0.9,1.1-1.6,1.5
		c-0.7,0.4-1.4,0.7-2.3,0.9C106.9,73.1,106,73.2,105.2,73.2"/>
	<path class="st0" d="M127.1,60.3c-0.6-0.7-1.1-1-1.9-1.3c-0.8-0.3-1.5-0.5-2.4-0.5c-0.9,0-1.7,0.2-2.5,0.5
		c-0.7,0.4-1.3,0.8-1.8,1.3c-0.5,0.6-0.8,1.2-1.1,2c-0.3,0.8-0.4,1.6-0.4,2.5s0.1,1.7,0.4,2.5c0.2,0.8,0.6,1.4,1,2s1,1,1.8,1.3
		c0.8,0.3,1.6,0.5,2.5,0.5c1.8,0,3.5-0.6,4.9-1.8l0.8,2.2c-0.8,0.6-1.7,1-2.6,1.3s-2.1,0.4-3.2,0.4c-1.4,0-2.5-0.2-3.6-0.7
		c-1-0.5-1.9-1-2.5-1.8s-1.2-1.6-1.5-2.6c-0.4-1-0.5-2.1-0.5-3.2c0-1.1,0.2-2.3,0.6-3.3c0.4-1,0.9-2,1.6-2.7s1.6-1.4,2.6-1.8
		c1-0.5,2.2-0.7,3.5-0.7c1.3,0,2.5,0.2,3.5,0.6c0.9,0.4,1.8,0.9,2.3,1.6L127.1,60.3z"/>
	<path class="st0" d="M122.6,56.6c-1.3,0-2.5,0.2-3.5,0.7c-1,0.5-1.9,1-2.5,1.8s-1.2,1.7-1.6,2.6c-0.4,1-0.6,2.1-0.6,3.2
		c0,1.1,0.2,2.2,0.5,3.1c0.4,0.9,0.8,1.8,1.5,2.5c0.7,0.8,1.5,1.3,2.5,1.7c1,0.4,2.3,0.7,3.6,0.7c1.1,0,2.3-0.1,3.2-0.4
		s1.8-0.7,2.5-1.2l-0.7-1.9c-1.4,1.1-3.1,1.7-4.9,1.7c-0.9,0-1.9-0.2-2.5-0.5c-0.8-0.3-1.3-0.8-1.8-1.3c-0.5-0.6-0.8-1.2-1-2
		c-0.2-0.8-0.4-1.6-0.4-2.5c0-0.8,0.1-1.7,0.4-2.5c0.3-0.8,0.7-1.5,1.1-2.1c0.5-0.6,1.1-1,1.8-1.4c0.8-0.4,1.5-0.5,2.5-0.5
		c0.8,0,1.7,0.2,2.5,0.5c0.8,0.3,1.3,0.8,1.9,1.3l1-1.5c-0.6-0.7-1.2-1.1-2.2-1.5C125.1,56.7,123.9,56.6,122.6,56.6 M122.6,73.2
		c-1.4,0-2.6-0.2-3.7-0.7c-1-0.5-1.9-1-2.6-1.8c-0.7-0.8-1.2-1.6-1.6-2.6c-0.4-1-0.6-2.1-0.6-3.2c0-1.1,0.2-2.3,0.6-3.3
		c0.4-1,0.9-2,1.6-2.7c0.8-0.8,1.6-1.4,2.6-1.9c1-0.5,2.3-0.7,3.6-0.7c1.3,0,2.5,0.2,3.5,0.6c1,0.4,1.8,0.9,2.4,1.7l0.1,0.1
		l-1.3,1.9l-0.1-0.1c-0.5-0.6-1.1-1-1.9-1.3c-0.8-0.3-1.5-0.5-2.4-0.5s-1.7,0.2-2.4,0.5c-0.7,0.3-1.3,0.8-1.8,1.3s-0.8,1.2-1.1,2
		c-0.3,0.8-0.4,1.6-0.4,2.5c0,0.8,0.1,1.7,0.4,2.4c0.2,0.8,0.6,1.4,1,1.9c0.5,0.6,1,0.9,1.7,1.3c0.7,0.3,1.5,0.5,2.5,0.5
		c1.8,0,3.4-0.6,4.8-1.8l0.1-0.1l0.8,2.4l-0.1,0.1c-0.8,0.6-1.7,1-2.7,1.3C124.9,73.1,123.8,73.2,122.6,73.2"/>
	<path class="st0" d="M138.8,71c0.8,0,1.5-0.2,2.2-0.5c0.7-0.3,1.2-0.8,1.8-1.3c0.5-0.6,0.9-1.3,1.2-2.2c0.3-0.8,0.5-1.8,0.5-2.9
		c0-0.8-0.1-1.6-0.4-2.3c-0.3-0.7-0.7-1.3-1.1-1.8s-1-0.9-1.8-1.1c-0.7-0.3-1.5-0.4-2.4-0.4c-0.7,0-1.2,0.1-1.8,0.3
		c-0.6,0.2-1,0.4-1.4,0.7c-0.4,0.3-0.8,0.7-1,1c-0.3,0.4-0.6,0.8-0.8,1.3c-0.2,0.5-0.4,0.9-0.5,1.4s-0.1,0.9-0.1,1.5
		c0,0.5,0,0.9,0.1,1.5c0.1,0.5,0.2,0.9,0.4,1.4c0.2,0.5,0.4,0.9,0.7,1.3c0.3,0.4,0.7,0.8,1,1c0.4,0.3,0.9,0.6,1.5,0.8
		C137.3,71,138,71,138.8,71 M138.5,56.5c0.7,0,1.3,0.1,1.9,0.2c0.6,0.1,1,0.3,1.6,0.5c0.5,0.2,0.9,0.5,1.3,0.8
		c0.4,0.3,0.8,0.7,1.1,1.1l0.1-2.2h2.6l-0.1,4v12h-2.6v-2.3c-0.3,0.4-0.6,0.7-0.9,0.9s-0.8,0.6-1.3,0.8s-1,0.5-1.6,0.6
		c-0.6,0.2-1.2,0.2-1.9,0.2c-0.9,0-1.8-0.1-2.5-0.4c-0.8-0.2-1.4-0.6-2.1-0.9c-0.6-0.4-1.1-0.8-1.5-1.4c-0.5-0.6-0.8-1.1-1-1.8
		c-0.3-0.7-0.5-1.3-0.7-2c-0.1-0.7-0.2-1.3-0.2-2c0-1,0.2-2,0.5-3c0.4-0.9,0.8-1.9,1.5-2.6c0.7-0.8,1.5-1.4,2.5-1.9
		C136,56.7,137.1,56.5,138.5,56.5"/>
	<path class="st0" d="M138.7,58.6c-0.7,0-1.2,0.1-1.8,0.3c-0.5,0.2-0.9,0.4-1.4,0.7c-0.4,0.3-0.8,0.7-1,1c-0.3,0.4-0.6,0.8-0.8,1.2
		c-0.2,0.5-0.4,0.9-0.4,1.4c-0.1,0.5-0.1,0.9-0.1,1.4s0,0.9,0.1,1.4c0.1,0.5,0.2,0.9,0.4,1.4c0.2,0.5,0.4,0.8,0.7,1.3
		c0.3,0.4,0.7,0.8,1,1c0.4,0.3,0.9,0.6,1.4,0.8c0.6,0.2,1.2,0.3,2,0.3s1.4-0.2,2.1-0.5c0.7-0.3,1.2-0.8,1.7-1.2
		c0.5-0.6,0.8-1.2,1.1-2.1c0.3-0.8,0.5-1.8,0.5-2.9c0-0.8-0.1-1.6-0.4-2.3c-0.3-0.7-0.7-1.2-1.1-1.8c-0.5-0.5-1-0.8-1.7-1.1
		C140.3,58.7,139.6,58.6,138.7,58.6 M138.8,71.2c-0.8,0-1.5-0.1-2.1-0.3c-0.6-0.2-1.1-0.5-1.5-0.8c-0.5-0.3-0.8-0.7-1-1.1
		c-0.3-0.4-0.5-0.8-0.7-1.3c-0.2-0.5-0.3-0.9-0.4-1.5c-0.1-0.5-0.1-1-0.1-1.5c0-0.5,0-1,0.1-1.5s0.3-1,0.5-1.4
		c0.2-0.5,0.5-0.9,0.8-1.3c0.3-0.4,0.7-0.8,1.1-1c0.4-0.3,0.9-0.6,1.4-0.8c0.6-0.2,1.1-0.3,1.8-0.3c0.8,0,1.7,0.2,2.4,0.5
		c0.8,0.3,1.3,0.7,1.8,1.2c0.5,0.5,0.8,1.1,1.1,1.8c0.3,0.7,0.4,1.5,0.4,2.4c0,1.1-0.2,2.2-0.5,3c-0.3,0.8-0.8,1.6-1.2,2.2
		c-0.5,0.6-1.1,1-1.8,1.3C140.3,71,139.6,71.2,138.8,71.2 M138.5,56.6c-1.3,0-2.5,0.2-3.5,0.7c-0.9,0.5-1.8,1-2.5,1.8
		s-1.1,1.6-1.5,2.5c-0.3,0.9-0.5,2-0.5,2.9c0,0.7,0.1,1.3,0.2,2s0.4,1.3,0.7,2c0.3,0.7,0.7,1.2,1,1.7c0.5,0.6,0.9,1,1.5,1.4
		c0.6,0.4,1.2,0.8,2,0.9c0.8,0.2,1.6,0.4,2.5,0.4c0.7,0,1.3-0.1,1.9-0.2c0.6-0.2,1.1-0.4,1.6-0.6c0.5-0.2,0.9-0.5,1.3-0.8
		c0.4-0.3,0.8-0.7,0.9-0.9l0.2-0.3v2.5h2.5V60.7l0.1-3.8h-2.5l-0.1,2.4l-0.2-0.2c-0.4-0.4-0.8-0.8-1.1-1s-0.8-0.6-1.3-0.8
		c-0.5-0.2-0.9-0.4-1.5-0.5C139.8,56.7,139.1,56.6,138.5,56.6 M138.6,73.2c-0.9,0-1.8-0.1-2.5-0.4c-0.8-0.2-1.4-0.6-2.1-0.9
		c-0.6-0.4-1.1-0.9-1.6-1.4c-0.5-0.6-0.8-1.1-1.1-1.8c-0.3-0.7-0.5-1.3-0.7-2c-0.2-0.7-0.2-1.3-0.2-2.1c0-1,0.2-2.1,0.5-3
		c0.4-1,0.8-1.9,1.5-2.6c0.7-0.8,1.5-1.4,2.5-1.9s2.2-0.8,3.6-0.8c0.7,0,1.3,0.1,1.9,0.2c0.6,0.1,1.1,0.3,1.6,0.5
		c0.5,0.2,0.9,0.5,1.3,0.8c0.3,0.3,0.7,0.6,0.9,0.8l0.1-2h2.9l-0.1,4.1v12.1h-2.9v-2c-0.2,0.3-0.5,0.5-0.8,0.8
		c-0.4,0.3-0.8,0.6-1.3,0.8c-0.5,0.3-1,0.5-1.7,0.6C139.9,73.2,139.2,73.2,138.6,73.2"/>
	<path class="st0" d="M153.8,72.7h-2.6V60.6c0-0.5,0-0.9,0-1.4s0-0.8,0-1.2c0-0.4,0-0.8-0.1-1.2h2.7l0.1,2.2c0.7-0.8,1.4-1.5,2.4-2
		c0.9-0.4,2-0.7,3.2-0.7s2.2,0.2,3,0.6c0.8,0.4,1.4,0.9,1.9,1.6c0.5,0.7,0.8,1.5,0.9,2.5c0.2,0.9,0.3,2,0.3,3.1v8.5H163v-8.2
		c0-0.9,0-1.7-0.1-2.5c-0.1-0.8-0.3-1.4-0.6-1.9c-0.3-0.6-0.7-0.9-1.1-1.2c-0.6-0.3-1.2-0.5-2.1-0.5s-1.5,0.2-2.2,0.5
		c-0.7,0.3-1.1,0.7-1.6,1.1c-0.5,0.4-0.8,0.8-1,1.3c-0.2,0.5-0.4,0.8-0.4,1.2L153.8,72.7L153.8,72.7z"/>
	<path class="st0" d="M163,72.6h2.5v-8.4c0-1.1-0.1-2.2-0.3-3.1c-0.2-0.9-0.5-1.7-0.9-2.5c-0.5-0.7-1-1.2-1.8-1.6
		c-0.8-0.4-1.8-0.6-2.9-0.6c-1.2,0-2.3,0.2-3.2,0.7c-0.8,0.4-1.7,1-2.3,1.9l-0.2,0.3l-0.1-2.5h-2.5c0,0.4,0,0.7,0,1
		c0,0.4,0,0.8,0,1.2s0,0.9,0,1.4v12h2.5v-9.9c0-0.4,0.1-0.8,0.4-1.3c0.3-0.5,0.6-0.9,1-1.4c0.5-0.5,0.9-0.8,1.6-1.1
		c0.7-0.3,1.4-0.5,2.2-0.5c0.8,0,1.6,0.2,2.2,0.5c0.6,0.3,0.9,0.8,1.2,1.2c0.3,0.6,0.5,1.2,0.6,1.9c0.1,0.8,0.1,1.6,0.1,2.5
		L163,72.6L163,72.6z M165.6,72.9h-2.9v-8.4c0-0.8,0-1.7-0.1-2.5c-0.1-0.8-0.3-1.3-0.5-1.9c-0.3-0.5-0.7-0.8-1.1-1.1
		c-0.5-0.3-1.2-0.4-2.1-0.4c-0.8,0-1.5,0.2-2.1,0.5c-0.7,0.3-1.1,0.7-1.6,1c-0.4,0.4-0.8,0.8-0.9,1.3c-0.2,0.5-0.4,0.8-0.4,1.2v10.2
		H151V60.6c0-0.5,0-0.9,0-1.4s0-0.8,0-1.2c0-0.4,0-0.8-0.1-1.2v-0.1h2.9l0.1,2c0.7-0.8,1.3-1.3,2.2-1.7c0.9-0.5,2.1-0.7,3.3-0.7
		c1.2,0,2.3,0.2,3,0.6c0.8,0.4,1.4,0.9,1.9,1.6c0.5,0.7,0.8,1.5,0.9,2.5c0.2,0.9,0.3,2,0.3,3.1L165.6,72.9L165.6,72.9z"/>
	<path class="st0" d="M180.2,59.6c-0.6-0.4-1.3-0.7-2.1-0.8c-0.8-0.2-1.7-0.3-2.5-0.3c-0.5,0-0.9,0.1-1.4,0.2
		c-0.4,0.1-0.8,0.3-1.1,0.5c-0.3,0.2-0.6,0.4-0.8,0.7c-0.2,0.3-0.3,0.6-0.3,0.9s0.1,0.7,0.3,0.9c0.2,0.3,0.5,0.5,0.8,0.7
		c0.3,0.2,0.7,0.4,1.1,0.5c0.4,0.2,0.8,0.3,1.3,0.5c0.5,0.1,0.8,0.3,1.4,0.4c0.5,0.1,0.9,0.3,1.5,0.5c0.5,0.2,0.9,0.4,1.4,0.7
		c0.5,0.3,0.8,0.6,1.1,0.8c0.4,0.4,0.6,0.8,0.8,1.1c0.2,0.5,0.3,0.9,0.3,1.5c0,0.8-0.2,1.5-0.6,2.1c-0.4,0.6-0.9,1.1-1.5,1.5
		c-0.7,0.4-1.4,0.7-2.2,0.8c-0.8,0.2-1.7,0.3-2.5,0.3c-0.6,0-1.1,0-1.7-0.1c-0.6-0.1-1.1-0.2-1.6-0.3c-0.5-0.2-1-0.4-1.4-0.6
		c-0.5-0.2-0.8-0.5-1.1-0.8l0.8-2.1c0.3,0.4,0.7,0.7,1,0.8c0.4,0.3,0.8,0.5,1.2,0.6c0.5,0.2,0.9,0.3,1.4,0.3
		c0.5,0.1,0.9,0.1,1.4,0.1c0.6,0,1.1-0.1,1.7-0.2c0.5-0.1,0.9-0.3,1.3-0.5c0.4-0.2,0.7-0.5,0.8-0.8c0.2-0.3,0.3-0.7,0.3-1.1
		s-0.1-0.8-0.4-1.1c-0.3-0.3-0.6-0.6-1-0.8c-0.4-0.2-0.9-0.4-1.5-0.6c-0.6-0.2-1.2-0.4-1.9-0.6c-0.8-0.3-1.5-0.5-2.2-0.8
		c-0.7-0.3-1.2-0.6-1.7-0.9c-0.5-0.4-0.8-0.8-1-1.2c-0.3-0.5-0.4-1-0.4-1.7c0-0.8,0.2-1.4,0.6-1.9c0.4-0.6,0.8-1,1.4-1.3
		c0.6-0.4,1.2-0.7,2-0.8c0.8-0.2,1.5-0.3,2.3-0.3c1.1,0,2.2,0.1,3.1,0.3c0.9,0.2,1.8,0.6,2.5,1L180.2,59.6z"/>
	<path class="st0" d="M169.5,71.3c0.3,0.3,0.7,0.6,1,0.8c0.5,0.2,0.9,0.4,1.4,0.6c0.5,0.2,1,0.3,1.6,0.3c1.4,0.2,2.8,0.1,4.2-0.2
		c0.8-0.2,1.5-0.5,2.2-0.8c0.7-0.4,1.1-0.8,1.5-1.4c0.4-0.6,0.6-1.2,0.6-2.1c0-0.6-0.1-1-0.3-1.5c-0.2-0.5-0.5-0.8-0.8-1.1
		c-0.4-0.3-0.8-0.6-1.1-0.8c-0.5-0.3-0.9-0.5-1.4-0.7s-0.9-0.4-1.4-0.5c-0.5-0.1-0.9-0.3-1.4-0.4c-0.5-0.1-0.9-0.3-1.3-0.5
		c-0.5-0.2-0.8-0.3-1.1-0.6c-0.3-0.2-0.6-0.5-0.8-0.7c-0.2-0.3-0.3-0.7-0.3-1c0-0.4,0.1-0.7,0.3-0.9c0.2-0.3,0.5-0.6,0.8-0.8
		s0.7-0.4,1.1-0.5s0.9-0.2,1.4-0.2c0.8,0,1.8,0.1,2.5,0.3c0.8,0.2,1.4,0.4,2,0.8l0.6-1.6c-0.7-0.5-1.4-0.8-2.3-0.9
		c-0.9-0.2-2-0.3-3.1-0.3c-0.8,0-1.5,0.1-2.2,0.3c-0.8,0.2-1.3,0.5-1.9,0.8c-0.6,0.4-1,0.8-1.3,1.3c-0.4,0.6-0.5,1.1-0.5,1.9
		c0,0.7,0.1,1.2,0.4,1.7c0.3,0.5,0.6,0.8,1,1.2s1,0.7,1.6,0.9c0.7,0.3,1.4,0.6,2.2,0.8c0.7,0.2,1.3,0.4,1.9,0.6
		c0.6,0.2,1.1,0.4,1.5,0.6c0.5,0.2,0.8,0.5,1,0.8c0.3,0.3,0.4,0.8,0.4,1.2s-0.1,0.8-0.4,1.1c-0.2,0.3-0.6,0.6-0.9,0.8
		c-0.4,0.2-0.8,0.4-1.3,0.5c-0.9,0.2-2,0.2-3.1,0.1c-0.5-0.1-0.9-0.2-1.4-0.4c-0.5-0.2-0.8-0.4-1.3-0.6c-0.4-0.2-0.7-0.5-0.9-0.8
		L169.5,71.3z M175.2,73.2c-0.6,0-1.1,0-1.7-0.1c-0.6-0.1-1.1-0.2-1.6-0.3c-0.6-0.2-1-0.4-1.4-0.6c-0.5-0.2-0.8-0.6-1.1-0.8
		l-0.1-0.1l0.8-2.4l0.1,0.2c0.3,0.3,0.7,0.6,1,0.8c0.4,0.2,0.8,0.4,1.2,0.6s0.9,0.3,1.4,0.3c1.1,0.2,2.2,0.1,3-0.1
		c0.5-0.1,0.9-0.3,1.3-0.5c0.4-0.2,0.7-0.5,0.8-0.8s0.3-0.7,0.3-1c0-0.5-0.1-0.8-0.4-1c-0.2-0.3-0.6-0.6-0.9-0.8
		c-0.4-0.2-0.9-0.4-1.5-0.6c-0.6-0.2-1.2-0.4-1.9-0.6c-0.8-0.3-1.5-0.5-2.3-0.8c-0.7-0.3-1.2-0.6-1.7-0.9c-0.5-0.4-0.8-0.8-1-1.3
		c-0.3-0.5-0.4-1.1-0.4-1.8c0-0.8,0.2-1.4,0.6-2c0.4-0.6,0.8-1,1.4-1.4c0.6-0.4,1.2-0.7,2-0.8c0.8-0.2,1.5-0.3,2.3-0.3
		c1.1,0,2.2,0.1,3.1,0.3c0.9,0.2,1.8,0.6,2.5,1l0.1,0.1l-0.8,2.1l-0.1-0.1c-0.6-0.4-1.2-0.7-2.1-0.8c-0.8-0.2-1.7-0.3-2.5-0.3
		c-0.5,0-0.9,0.1-1.3,0.2c-0.4,0.1-0.8,0.3-1,0.5c-0.3,0.2-0.6,0.4-0.7,0.7c-0.2,0.3-0.3,0.6-0.3,0.8c0,0.4,0.1,0.7,0.3,0.8
		c0.2,0.3,0.4,0.5,0.8,0.7c0.3,0.2,0.7,0.4,1,0.5c0.4,0.2,0.8,0.3,1.3,0.5c0.5,0.1,0.8,0.3,1.4,0.4c0.5,0.1,0.9,0.3,1.5,0.5
		c0.5,0.2,0.9,0.4,1.4,0.7c0.5,0.3,0.8,0.6,1.2,0.8c0.4,0.4,0.7,0.8,0.8,1.2c0.2,0.5,0.3,1,0.3,1.6c0,0.8-0.2,1.5-0.6,2.2
		c-0.4,0.6-0.9,1.1-1.6,1.5c-0.7,0.4-1.4,0.7-2.3,0.9C176.9,73.1,176.1,73.2,175.2,73.2"/>
</g>
</svg>
